200-italic.ufo
<glyph name="exclam" format="2">
  <advance width="264"/>
  <unicode hex="0021"/>
  <outline>
    <contour>
      <point x="206" y="700" type="line"/>
      <point x="245" y="700" type="line"/>
      <point x="151" y="200" type="line"/>
      <point x="129" y="200" type="line"/>
    </contour>
    <contour>
      <point x="83" y="12" type="curve" smooth="yes"/>
      <point x="83" y="26"/>
      <point x="94" y="37"/>
      <point x="107" y="37" type="curve" smooth="yes"/>
      <point x="120" y="37"/>
      <point x="132" y="26"/>
      <point x="132" y="12" type="curve" smooth="yes"/>
      <point x="132" y="-2"/>
      <point x="120" y="-12"/>
      <point x="107" y="-12" type="curve" smooth="yes"/>
      <point x="94" y="-12"/>
      <point x="83" y="-2"/>
    </contour>
  </outline>
</glyph>
<glyph name="quotedbl" format="2">
  <advance width="408"/>
  <unicode hex="0022"/>
  <outline>
    <contour>
      <point x="224" y="700" type="line"/>
      <point x="261" y="700" type="line"/>
      <point x="152" y="415" type="line"/>
      <point x="130" y="414" type="line"/>
    </contour>
    <contour>
      <point x="398" y="700" type="line"/>
      <point x="436" y="700" type="line"/>
      <point x="326" y="415" type="line"/>
      <point x="304" y="414" type="line"/>
    </contour>
  </outline>
</glyph>
<glyph name="numbersign" format="2">
  <advance width="563"/>
  <unicode hex="0023"/>
  <outline>
    <contour>
      <point x="122" y="450" type="line"/>
      <point x="126" y="476" type="line"/>
      <point x="584" y="476" type="line"/>
      <point x="580" y="450" type="line"/>
      <point x="462" y="450" type="line"/>
      <point x="454" y="450" type="line"/>
      <point x="258" y="450" type="line"/>
      <point x="251" y="450" type="line"/>
    </contour>
    <contour>
      <point x="46" y="228" type="line"/>
      <point x="50" y="255" type="line"/>
      <point x="169" y="255" type="line"/>
      <point x="177" y="255" type="line"/>
      <point x="373" y="255" type="line"/>
      <point x="384" y="255" type="line"/>
      <point x="508" y="255" type="line"/>
      <point x="504" y="228" type="line"/>
    </contour>
    <contour>
      <point x="544" y="700" type="line"/>
      <point x="575" y="700" type="line"/>
      <point x="289" y="0" type="line"/>
      <point x="258" y="0" type="line"/>
      <point x="356" y="239" type="line"/>
      <point x="360" y="246" type="line"/>
      <point x="446" y="459" type="line"/>
      <point x="448" y="467" type="line"/>
    </contour>
    <contour>
      <point x="340" y="700" type="line"/>
      <point x="371" y="700" type="line"/>
      <point x="276" y="468" type="line"/>
      <point x="273" y="460" type="line"/>
      <point x="184" y="244" type="line"/>
      <point x="183" y="238" type="line"/>
      <point x="85" y="0" type="line"/>
      <point x="56" y="0" type="line"/>
    </contour>
  </outline>
</glyph>
<glyph name="dollar" format="2">
  <advance width="562"/>
  <unicode hex="0024"/>
  <outline>
    <contour>
      <point x="353" y="818" type="line"/>
      <point x="382" y="818" type="line"/>
      <point x="361" y="691" type="line"/>
      <point x="333" y="691" type="line"/>
    </contour>
    <contour>
      <point x="230" y="12" type="line"/>
      <point x="259" y="12" type="line"/>
      <point x="239" y="-112" type="line"/>
      <point x="210" y="-112" type="line"/>
    </contour>
    <contour>
      <point x="486" y="538" type="line"/>
      <point x="472" y="605"/>
      <point x="435" y="675"/>
      <point x="346" y="676" type="curve" smooth="yes"/>
      <point x="264" y="677"/>
      <point x="193" y="621"/>
      <point x="181" y="545" type="curve" smooth="yes"/>
      <point x="167" y="455"/>
      <point x="249" y="409"/>
      <point x="325" y="376" type="curve" smooth="yes"/>
      <point x="405" y="342"/>
      <point x="476" y="283"/>
      <point x="463" y="180" type="curve" smooth="yes"/>
      <point x="448" y="74"/>
      <point x="371" y="-9"/>
      <point x="245" y="-8" type="curve" smooth="yes"/>
      <point x="127" y="-7"/>
      <point x="75" y="91"/>
      <point x="55" y="190" type="curve"/>
      <point x="86" y="206" type="line"/>
      <point x="104" y="117"/>
      <point x="143" y="25"/>
      <point x="249" y="24" type="curve" smooth="yes"/>
      <point x="353" y="23"/>
      <point x="416" y="90"/>
      <point x="429" y="178" type="curve" smooth="yes"/>
      <point x="442" y="270"/>
      <point x="370" y="320"/>
      <point x="296" y="352" type="curve" smooth="yes"/>
      <point x="218" y="386"/>
      <point x="133" y="444"/>
      <point x="147" y="548" type="curve" smooth="yes"/>
      <point x="161" y="641"/>
      <point x="251" y="708"/>
      <point x="348" y="708" type="curve" smooth="yes"/>
      <point x="451" y="708"/>
      <point x="500" y="628"/>
      <point x="514" y="552" type="curve"/>
    </contour>
  </outline>
</glyph>
<glyph name="ampersand" format="2">
  <advance width="655"/>
  <unicode hex="0026"/>
  <outline>
    <contour>
      <point x="236" y="414" type="line" smooth="yes"/>
      <point x="207" y="458"/>
      <point x="176" y="505"/>
      <point x="184" y="570" type="curve" smooth="yes"/>
      <point x="196" y="650"/>
      <point x="265" y="711"/>
      <point x="357" y="710" type="curve" smooth="yes"/>
      <point x="445" y="709"/>
      <point x="491" y="640"/>
      <point x="480" y="568" type="curve" smooth="yes"/>
      <point x="467" y="492"/>
      <point x="396" y="439"/>
      <point x="312" y="391" type="curve" smooth="yes"/>
      <point x="228" y="343"/>
      <point x="98" y="300"/>
      <point x="80" y="178" type="curve" smooth="yes"/>
      <point x="66" y="82"/>
      <point x="134" y="21"/>
      <point x="230" y="20" type="curve" smooth="yes"/>
      <point x="397" y="18"/>
      <point x="510" y="191"/>
      <point x="616" y="315" type="curve"/>
      <point x="638" y="300" type="line"/>
      <point x="526" y="170"/>
      <point x="410" y="-11"/>
      <point x="226" y="-10" type="curve" smooth="yes"/>
      <point x="116" y="-9"/>
      <point x="33" y="64"/>
      <point x="48" y="176" type="curve" smooth="yes"/>
      <point x="66" y="312"/>
      <point x="204" y="362"/>
      <point x="291" y="410" type="curve" smooth="yes"/>
      <point x="367" y="452"/>
      <point x="436" y="502"/>
      <point x="448" y="568" type="curve" smooth="yes"/>
      <point x="457" y="623"/>
      <point x="426" y="681"/>
      <point x="355" y="682" type="curve" smooth="yes"/>
      <point x="280" y="683"/>
      <point x="225" y="632"/>
      <point x="215" y="570" type="curve" smooth="yes"/>
      <point x="207" y="514"/>
      <point x="233" y="473"/>
      <point x="261" y="432" type="curve" smooth="yes"/>
      <point x="562" y="0" type="line"/>
      <point x="526" y="0" type="line"/>
    </contour>
  </outline>
</glyph>
<glyph name="quotesingle" format="2">
  <advance width="233"/>
  <unicode hex="0027"/>
  <outline>
    <contour>
      <point x="224" y="700" type="line"/>
      <point x="261" y="700" type="line"/>
      <point x="152" y="415" type="line"/>
      <point x="130" y="414" type="line"/>
    </contour>
  </outline>
</glyph>
<glyph name="asterisk" format="2">
  <advance width="574"/>
  <unicode hex="002A"/>
  <outline>
    <contour>
      <point x="524" y="588" type="line"/>
      <point x="527" y="560" type="line"/>
      <point x="350" y="510" type="line"/>
      <point x="346" y="529" type="line"/>
    </contour>
    <contour>
      <point x="440" y="381" type="line"/>
      <point x="414" y="364" type="line"/>
      <point x="340" y="512" type="line"/>
      <point x="356" y="525" type="line"/>
    </contour>
    <contour>
      <point x="231" y="365" type="line"/>
      <point x="210" y="383" type="line"/>
      <point x="341" y="524" type="line"/>
      <point x="355" y="512" type="line"/>
    </contour>
    <contour>
      <point x="184" y="561" type="line"/>
      <point x="197" y="588" type="line"/>
      <point x="354" y="528" type="line"/>
      <point x="346" y="510" type="line"/>
    </contour>
    <contour>
      <point x="366" y="700" type="line"/>
      <point x="394" y="700" type="line"/>
      <point x="358" y="520" type="line"/>
      <point x="338" y="520" type="line"/>
    </contour>
  </outline>
</glyph>
<glyph name="period" format="2">
  <advance width="263"/>
  <unicode hex="002E"/>
  <outline>
    <contour>
      <point x="83" y="12" type="curve" smooth="yes"/>
      <point x="83" y="26"/>
      <point x="94" y="36"/>
      <point x="107" y="36" type="curve" smooth="yes"/>
      <point x="120" y="36"/>
      <point x="131" y="26"/>
      <point x="131" y="12" type="curve" smooth="yes"/>
      <point x="131" y="-2"/>
      <point x="120" y="-12"/>
      <point x="107" y="-12" type="curve" smooth="yes"/>
      <point x="94" y="-12"/>
      <point x="83" y="-2"/>
    </contour>
  </outline>
</glyph>
<glyph name="slash" format="2">
  <advance width="472"/>
  <unicode hex="002F"/>
  <outline>
    <contour>
      <point x="519" y="700" type="line"/>
      <point x="552" y="699" type="line"/>
      <point x="-6" y="-150" type="line"/>
      <point x="-38" y="-149" type="line"/>
    </contour>
  </outline>
</glyph>
<glyph name="zero" format="2">
  <advance width="548"/>
  <unicode hex="0030"/>
  <outline>
    <contour>
      <point x="114" y="350" type="curve" smooth="yes"/>
      <point x="98" y="214"/>
      <point x="107" y="23"/>
      <point x="249" y="22" type="curve" smooth="yes"/>
      <point x="391" y="21"/>
      <point x="478" y="197"/>
      <point x="500" y="350" type="curve" smooth="yes"/>
      <point x="516" y="486"/>
      <point x="506" y="677"/>
      <point x="364" y="678" type="curve" smooth="yes"/>
      <point x="222" y="679"/>
      <point x="136" y="503"/>
    </contour>
    <contour>
      <point x="81" y="350" type="curve" smooth="yes"/>
      <point x="105" y="523"/>
      <point x="206" y="711"/>
      <point x="367" y="710" type="curve" smooth="yes"/>
      <point x="530" y="709"/>
      <point x="550" y="506"/>
      <point x="532" y="350" type="curve" smooth="yes"/>
      <point x="508" y="177"/>
      <point x="407" y="-11"/>
      <point x="246" y="-10" type="curve" smooth="yes"/>
      <point x="83" y="-9"/>
      <point x="63" y="194"/>
    </contour>
  </outline>
</glyph>
<glyph name="one" format="2">
  <advance width="409"/>
  <unicode hex="0031"/>
  <outline>
    <contour>
      <point x="167" y="626" type="line"/>
      <point x="173" y="661" type="line"/>
      <point x="374" y="706" type="line"/>
      <point x="252" y="0" type="line"/>
      <point x="220" y="0" type="line"/>
      <point x="335" y="665" type="line"/>
    </contour>
  </outline>
</glyph>
<glyph name="two" format="2">
  <advance width="514"/>
  <unicode hex="0032"/>
  <outline>
    <contour>
      <point x="6" y="0" type="line"/>
      <point x="370" y="340" type="line" smooth="yes"/>
      <point x="422" y="389"/>
      <point x="473" y="440"/>
      <point x="484" y="515" type="curve" smooth="yes"/>
      <point x="497" y="592"/>
      <point x="455" y="679"/>
      <point x="351" y="680" type="curve" smooth="yes"/>
      <point x="234" y="681"/>
      <point x="161" y="575"/>
      <point x="140" y="460" type="curve"/>
      <point x="108" y="460" type="line"/>
      <point x="131" y="594"/>
      <point x="217" y="711"/>
      <point x="353" y="710" type="curve" smooth="yes"/>
      <point x="477" y="709"/>
      <point x="532" y="607"/>
      <point x="518" y="516" type="curve" smooth="yes"/>
      <point x="506" y="436"/>
      <point x="453" y="374"/>
      <point x="396" y="322" type="curve" smooth="yes"/>
      <point x="80" y="32" type="line"/>
      <point x="464" y="31" type="line"/>
      <point x="459" y="0" type="line"/>
    </contour>
  </outline>
</glyph>
<glyph name="three" format="2">
  <advance width="532"/>
  <unicode hex="0033"/>
  <outline>
    <contour>
      <point x="280" y="358" type="curve"/>
      <point x="283" y="380" type="line"/>
      <point x="374" y="386"/>
      <point x="473" y="436"/>
      <point x="489" y="530" type="curve" smooth="yes"/>
      <point x="501" y="606"/>
      <point x="455" y="679"/>
      <point x="364" y="680" type="curve" smooth="yes"/>
      <point x="268" y="681"/>
      <point x="204" y="610"/>
      <point x="185" y="526" type="curve"/>
      <point x="154" y="527" type="line"/>
      <point x="175" y="629"/>
      <point x="252" y="710"/>
      <point x="366" y="710" type="curve" smooth="yes"/>
      <point x="476" y="710"/>
      <point x="535" y="622"/>
      <point x="521" y="530" type="curve" smooth="yes"/>
      <point x="503" y="420"/>
      <point x="392" y="363"/>
    </contour>
    <contour>
      <point x="254" y="-10" type="curve" smooth="yes"/>
      <point x="128" y="-10"/>
      <point x="63" y="77"/>
      <point x="73" y="185" type="curve"/>
      <point x="105" y="184" type="line"/>
      <point x="97" y="92"/>
      <point x="148" y="22"/>
      <point x="256" y="22" type="curve" smooth="yes"/>
      <point x="358" y="22"/>
      <point x="441" y="88"/>
      <point x="455" y="181" type="curve" smooth="yes"/>
      <point x="471" y="291"/>
      <point x="369" y="344"/>
      <point x="278" y="350" type="curve"/>
      <point x="282" y="371" type="line"/>
      <point x="393" y="366"/>
      <point x="505" y="305"/>
      <point x="487" y="178" type="curve" smooth="yes"/>
      <point x="471" y="68"/>
      <point x="372" y="-10"/>
    </contour>
  </outline>
</glyph>
<glyph name="four" format="2">
  <advance width="545"/>
  <unicode hex="0034"/>
  <outline>
    <contour>
      <point x="20" y="141" type="line"/>
      <point x="488" y="699" type="line"/>
      <point x="500" y="700" type="line"/>
      <point x="379" y="0" type="line"/>
      <point x="347" y="0" type="line"/>
      <point x="373" y="152" type="line"/>
      <point x="374" y="159" type="line"/>
      <point x="453" y="617" type="line"/>
      <point x="80" y="170" type="line"/>
      <point x="388" y="170" type="line"/>
      <point x="395" y="170" type="line"/>
      <point x="515" y="170" type="line"/>
      <point x="510" y="140" type="line"/>
    </contour>
  </outline>
</glyph>
<glyph name="five" format="2">
  <advance width="542"/>
  <unicode hex="0035"/>
  <outline>
    <contour>
      <point x="504" y="230" type="curve" smooth="yes"/>
      <point x="486" y="87"/>
      <point x="376" y="-10"/>
      <point x="243" y="-10" type="curve" smooth="yes"/>
      <point x="138" y="-10"/>
      <point x="80" y="51"/>
      <point x="50" y="138" type="curve"/>
      <point x="80" y="155" type="line"/>
      <point x="105" y="77"/>
      <point x="155" y="22"/>
      <point x="245" y="22" type="curve" smooth="yes"/>
      <point x="361" y="22"/>
      <point x="454" y="108"/>
      <point x="471" y="230" type="curve" smooth="yes"/>
      <point x="485" y="331"/>
      <point x="429" y="420"/>
      <point x="327" y="422" type="curve" smooth="yes"/>
      <point x="245" y="423"/>
      <point x="180" y="384"/>
      <point x="120" y="328" type="curve"/>
      <point x="267" y="700" type="line"/>
      <point x="588" y="700" type="line"/>
      <point x="583" y="670" type="line"/>
      <point x="287" y="670" type="line"/>
      <point x="172" y="384" type="line"/>
      <point x="212" y="421"/>
      <point x="272" y="453"/>
      <point x="340" y="452" type="curve" smooth="yes"/>
      <point x="457" y="451"/>
      <point x="519" y="346"/>
    </contour>
  </outline>
</glyph>
<glyph name="seven" format="2">
  <advance width="502"/>
  <unicode hex="0037"/>
  <outline>
    <contour>
      <point x="118" y="669" type="line"/>
      <point x="123" y="700" type="line"/>
      <point x="586" y="700" type="line"/>
      <point x="128" y="0" type="line"/>
      <point x="94" y="0" type="line"/>
      <point x="532" y="668" type="line"/>
    </contour>
  </outline>
</glyph>
<glyph name="eight" format="2">
  <advance width="509"/>
  <unicode hex="0038"/>
  <outline>
    <contour>
      <point x="146" y="538" type="curve" smooth="yes"/>
      <point x="161" y="629"/>
      <point x="247" y="710"/>
      <point x="347" y="710" type="curve" smooth="yes"/>
      <point x="445" y="710"/>
      <point x="508" y="626"/>
      <point x="494" y="538" type="curve" smooth="yes"/>
      <point x="479" y="442"/>
      <point x="387" y="364"/>
      <point x="291" y="364" type="curve" smooth="yes"/>
      <point x="197" y="364"/>
      <point x="132" y="444"/>
    </contour>
    <contour>
      <point x="176" y="535" type="curve" smooth="yes"/>
      <point x="165" y="459"/>
      <point x="220" y="387"/>
      <point x="292" y="386" type="curve" smooth="yes"/>
      <point x="366" y="385"/>
      <point x="449" y="455"/>
      <point x="462" y="535" type="curve" smooth="yes"/>
      <point x="474" y="609"/>
      <point x="428" y="679"/>
      <point x="345" y="680" type="curve" smooth="yes"/>
      <point x="261" y="681"/>
      <point x="189" y="613"/>
    </contour>
    <contour>
      <point x="64" y="186" type="curve" smooth="yes"/>
      <point x="81" y="294"/>
      <point x="183" y="377"/>
      <point x="290" y="377" type="curve" smooth="yes"/>
      <point x="395" y="377"/>
      <point x="469" y="292"/>
      <point x="454" y="186" type="curve" smooth="yes"/>
      <point x="437" y="78"/>
      <point x="346" y="-10"/>
      <point x="227" y="-10" type="curve" smooth="yes"/>
      <point x="109" y="-10"/>
      <point x="48" y="82"/>
    </contour>
    <contour>
      <point x="96" y="190" type="curve" smooth="yes"/>
      <point x="81" y="99"/>
      <point x="130" y="21"/>
      <point x="229" y="20" type="curve" smooth="yes"/>
      <point x="329" y="19"/>
      <point x="409" y="95"/>
      <point x="424" y="190" type="curve" smooth="yes"/>
      <point x="437" y="277"/>
      <point x="376" y="355"/>
      <point x="289" y="356" type="curve" smooth="yes"/>
      <point x="201" y="357"/>
      <point x="111" y="280"/>
    </contour>
  </outline>
</glyph>
<glyph name="nine" format="2">
  <advance width="531"/>
  <unicode hex="0039"/>
  <outline>
    <contour>
      <point x="509" y="477" type="curve" smooth="yes"/>
      <point x="524" y="582"/>
      <point x="467" y="680"/>
      <point x="354" y="680" type="curve" smooth="yes"/>
      <point x="240" y="680"/>
      <point x="152" y="587"/>
      <point x="136" y="477" type="curve" smooth="yes"/>
      <point x="122" y="378"/>
      <point x="182" y="284"/>
      <point x="284" y="283" type="curve" smooth="yes"/>
      <point x="402" y="282"/>
      <point x="492" y="375"/>
    </contour>
    <contour>
      <point x="195" y="0" type="line"/>
      <point x="154" y="0" type="line"/>
      <point x="433" y="328" type="line"/>
      <point x="436" y="326" type="line"/>
      <point x="392" y="284"/>
      <point x="338" y="257"/>
      <point x="273" y="258" type="curve" smooth="yes"/>
      <point x="157" y="260"/>
      <point x="90" y="366"/>
      <point x="104" y="477" type="curve" smooth="yes"/>
      <point x="121" y="607"/>
      <point x="223" y="710"/>
      <point x="357" y="710" type="curve" smooth="yes"/>
      <point x="489" y="710"/>
      <point x="557" y="601"/>
      <point x="540" y="477" type="curve" smooth="yes"/>
      <point x="531" y="419"/>
      <point x="500" y="362"/>
      <point x="466" y="322" type="curve" smooth="yes"/>
    </contour>
  </outline>
</glyph>
<glyph name="colon" format="2">
  <advance width="291"/>
  <unicode hex="003A"/>
  <outline>
    <contour>
      <point x="83" y="12" type="curve" smooth="yes"/>
      <point x="83" y="26"/>
      <point x="94" y="36"/>
      <point x="107" y="36" type="curve" smooth="yes"/>
      <point x="120" y="36"/>
      <point x="131" y="26"/>
      <point x="131" y="12" type="curve" smooth="yes"/>
      <point x="131" y="-2"/>
      <point x="120" y="-12"/>
      <point x="107" y="-12" type="curve" smooth="yes"/>
      <point x="94" y="-12"/>
      <point x="83" y="-2"/>
    </contour>
    <contour>
      <point x="144" y="370" type="curve" smooth="yes"/>
      <point x="144" y="384"/>
      <point x="155" y="394"/>
      <point x="168" y="394" type="curve" smooth="yes"/>
      <point x="181" y="394"/>
      <point x="192" y="384"/>
      <point x="192" y="370" type="curve" smooth="yes"/>
      <point x="192" y="356"/>
      <point x="181" y="346"/>
      <point x="168" y="346" type="curve" smooth="yes"/>
      <point x="155" y="346"/>
      <point x="144" y="356"/>
    </contour>
  </outline>
</glyph>
<glyph name="semicolon" format="2">
  <advance width="283"/>
  <unicode hex="003B"/>
  <outline>
    <contour>
      <point x="173" y="370" type="curve" smooth="yes"/>
      <point x="173" y="384"/>
      <point x="184" y="394"/>
      <point x="197" y="394" type="curve" smooth="yes"/>
      <point x="210" y="394"/>
      <point x="221" y="384"/>
      <point x="221" y="370" type="curve" smooth="yes"/>
      <point x="221" y="356"/>
      <point x="210" y="346"/>
      <point x="197" y="346" type="curve" smooth="yes"/>
      <point x="184" y="346"/>
      <point x="173" y="356"/>
    </contour>
    <contour>
      <point x="152" y="98" type="line"/>
      <point x="181" y="85" type="line"/>
      <point x="31" y="-163" type="line"/>
      <point x="10" y="-155" type="line"/>
    </contour>
  </outline>
</glyph>
<glyph name="less" format="2">
  <advance width="621"/>
  <unicode hex="003C"/>
  <outline>
    <contour>
      <point x="130" y="257" type="line"/>
      <point x="542" y="66" type="line"/>
      <point x="538" y="37" type="line"/>
      <point x="78" y="248" type="line"/>
      <point x="81" y="266" type="line"/>
      <point x="614" y="479" type="line"/>
      <point x="608" y="447" type="line"/>
    </contour>
  </outline>
</glyph>
<glyph name="equal" format="2">
  <advance width="596"/>
  <unicode hex="003D"/>
  <outline>
    <contour>
      <point x="66" y="172" type="line"/>
      <point x="70" y="201" type="line"/>
      <point x="542" y="201" type="line"/>
      <point x="536" y="172" type="line"/>
    </contour>
    <contour>
      <point x="88" y="304" type="line"/>
      <point x="92" y="334" type="line"/>
      <point x="564" y="334" type="line"/>
      <point x="559" y="304" type="line"/>
    </contour>
  </outline>
</glyph>
<glyph name="greater" format="2">
  <advance width="621"/>
  <unicode hex="003E"/>
  <outline>
    <contour>
      <point x="525" y="257" type="line"/>
      <point x="112" y="449" type="line"/>
      <point x="118" y="478" type="line"/>
      <point x="576" y="266" type="line"/>
      <point x="574" y="249" type="line"/>
      <point x="42" y="36" type="line"/>
      <point x="46" y="68" type="line"/>
    </contour>
  </outline>
</glyph>
<glyph name="question" format="2">
  <advance width="529"/>
  <unicode hex="003F"/>
  <outline>
    <contour>
      <point x="488" y="514" type="curve" smooth="yes"/>
      <point x="504" y="605"/>
      <point x="451" y="680"/>
      <point x="348" y="680" type="curve" smooth="yes"/>
      <point x="266" y="680"/>
      <point x="207" y="635"/>
      <point x="159" y="577" type="curve"/>
      <point x="135" y="594" type="line"/>
      <point x="190" y="659"/>
      <point x="255" y="711"/>
      <point x="353" y="710" type="curve" smooth="yes"/>
      <point x="471" y="709"/>
      <point x="537" y="620"/>
      <point x="520" y="514" type="curve" smooth="yes"/>
      <point x="500" y="404"/>
      <point x="390" y="333"/>
      <point x="272" y="323" type="curve"/>
      <point x="242" y="170" type="line"/>
      <point x="219" y="170" type="line"/>
      <point x="240" y="345" type="line"/>
      <point x="248" y="345" type="line"/>
      <point x="365" y="350"/>
      <point x="468" y="415"/>
    </contour>
    <contour>
      <point x="176" y="12" type="curve" smooth="yes"/>
      <point x="176" y="25"/>
      <point x="186" y="36"/>
      <point x="200" y="36" type="curve" smooth="yes"/>
      <point x="214" y="36"/>
      <point x="224" y="25"/>
      <point x="224" y="12" type="curve" smooth="yes"/>
      <point x="224" y="-2"/>
      <point x="213" y="-12"/>
      <point x="200" y="-12" type="curve" smooth="yes"/>
      <point x="186" y="-12"/>
      <point x="176" y="-2"/>
    </contour>
  </outline>
</glyph>
<glyph name="at" format="2">
  <advance width="747"/>
  <unicode hex="0040"/>
  <outline>
    <contour>
      <point x="252" y="320" type="curve" smooth="yes"/>
      <point x="243" y="254"/>
      <point x="267" y="194"/>
      <point x="335" y="192" type="curve" smooth="yes"/>
      <point x="417" y="190"/>
      <point x="491" y="278"/>
      <point x="504" y="370" type="curve" smooth="yes"/>
      <point x="512" y="430"/>
      <point x="492" y="498"/>
      <point x="426" y="500" type="curve" smooth="yes"/>
      <point x="343" y="503"/>
      <point x="265" y="418"/>
    </contour>
    <contour>
      <point x="221" y="320" type="curve" smooth="yes"/>
      <point x="236" y="437"/>
      <point x="331" y="531"/>
      <point x="429" y="528" type="curve" smooth="yes"/>
      <point x="510" y="526"/>
      <point x="532" y="442"/>
      <point x="522" y="368" type="curve" smooth="yes"/>
      <point x="507" y="264"/>
      <point x="425" y="161"/>
      <point x="328" y="162" type="curve" smooth="yes"/>
      <point x="248" y="163"/>
      <point x="211" y="237"/>
    </contour>
    <contour>
      <point x="60" y="320" type="curve" smooth="yes"/>
      <point x="94" y="530"/>
      <point x="273" y="709"/>
      <point x="496" y="708" type="curve" smooth="yes"/>
      <point x="688" y="707"/>
      <point x="780" y="546"/>
      <point x="754" y="390" type="curve" smooth="yes"/>
      <point x="738" y="259"/>
      <point x="636" y="146"/>
      <point x="539" y="152" type="curve" smooth="yes"/>
      <point x="471" y="156"/>
      <point x="468" y="220"/>
      <point x="484" y="284" type="curve"/>
      <point x="481" y="284" type="line"/>
      <point x="559" y="520" type="line"/>
      <point x="591" y="520" type="line"/>
      <point x="510" y="289" type="line" smooth="yes"/>
      <point x="508" y="281"/>
      <point x="504" y="266"/>
      <point x="502" y="256" type="curve" smooth="yes"/>
      <point x="498" y="225"/>
      <point x="498" y="184"/>
      <point x="544" y="180" type="curve" smooth="yes"/>
      <point x="623" y="171"/>
      <point x="711" y="283"/>
      <point x="724" y="390" type="curve" smooth="yes"/>
      <point x="749" y="533"/>
      <point x="669" y="680"/>
      <point x="493" y="682" type="curve" smooth="yes"/>
      <point x="284" y="684"/>
      <point x="122" y="516"/>
      <point x="90" y="320" type="curve" smooth="yes"/>
      <point x="65" y="154"/>
      <point x="143" y="21"/>
      <point x="322" y="19" type="curve" smooth="yes"/>
      <point x="412" y="18"/>
      <point x="490" y="42"/>
      <point x="556" y="74" type="curve"/>
      <point x="566" y="50" type="line"/>
      <point x="497" y="18"/>
      <point x="420" y="-8"/>
      <point x="320" y="-8" type="curve" smooth="yes"/>
      <point x="122" y="-6"/>
      <point x="32" y="138"/>
    </contour>
  </outline>
</glyph>
<glyph name="A" format="2">
  <advance width="599"/>
  <unicode hex="0041"/>
  <outline>
    <contour>
      <point x="146" y="254" type="line"/>
      <point x="160" y="284" type="line"/>
      <point x="484" y="284" type="line"/>
      <point x="488" y="254" type="line"/>
    </contour>
    <contour>
      <point x="384" y="644" type="line"/>
      <point x="174" y="273" type="line"/>
      <point x="170" y="265" type="line"/>
      <point x="20" y="0" type="line"/>
      <point x="-17" y="0" type="line"/>
      <point x="396" y="722" type="line"/>
      <point x="561" y="0" type="line"/>
      <point x="524" y="0" type="line"/>
      <point x="468" y="263" type="line"/>
      <point x="466" y="271" type="line"/>
    </contour>
  </outline>
</glyph>
<glyph name="B" format="2">
  <advance width="498"/>
  <unicode hex="0042"/>
  <outline>
    <contour>
      <point x="147" y="382" type="line"/>
      <point x="150" y="400" type="line"/>
      <point x="252" y="401" type="line"/>
      <point x="340" y="403"/>
      <point x="423" y="444"/>
      <point x="438" y="534" type="curve" smooth="yes"/>
      <point x="453" y="619"/>
      <point x="392" y="670"/>
      <point x="300" y="670" type="curve" smooth="yes"/>
      <point x="204" y="670" type="line"/>
      <point x="94" y="30" type="line"/>
      <point x="198" y="30" type="line" smooth="yes"/>
      <point x="311" y="30"/>
      <point x="401" y="91"/>
      <point x="419" y="203" type="curve" smooth="yes"/>
      <point x="435" y="303"/>
      <point x="354" y="372"/>
      <point x="258" y="372" type="curve" smooth="yes"/>
      <point x="145" y="372" type="line"/>
      <point x="148" y="392" type="line"/>
      <point x="266" y="392" type="line" smooth="yes"/>
      <point x="369" y="392"/>
      <point x="469" y="320"/>
      <point x="452" y="202" type="curve" smooth="yes"/>
      <point x="433" y="70"/>
      <point x="325" y="0"/>
      <point x="195" y="0" type="curve" smooth="yes"/>
      <point x="56" y="0" type="line"/>
      <point x="176" y="700" type="line"/>
      <point x="303" y="700" type="line" smooth="yes"/>
      <point x="413" y="700"/>
      <point x="489" y="639"/>
      <point x="472" y="535" type="curve" smooth="yes"/>
      <point x="455" y="432"/>
      <point x="364" y="384"/>
      <point x="258" y="382" type="curve"/>
    </contour>
  </outline>
</glyph>
<glyph name="D" format="2">
  <advance width="628"/>
  <unicode hex="0044"/>
  <outline>
    <contour>
      <point x="176" y="700" type="line"/>
      <point x="210" y="700" type="line"/>
      <point x="89" y="0" type="line"/>
      <point x="57" y="0" type="line"/>
    </contour>
    <contour>
      <point x="228" y="0" type="curve" smooth="yes"/>
      <point x="74" y="0" type="line"/>
      <point x="80" y="33" type="line"/>
      <point x="232" y="33" type="line" smooth="yes"/>
      <point x="419" y="33"/>
      <point x="554" y="168"/>
      <point x="584" y="350" type="curve" smooth="yes"/>
      <point x="611" y="522"/>
      <point x="526" y="667"/>
      <point x="342" y="667" type="curve" smooth="yes"/>
      <point x="188" y="667" type="line"/>
      <point x="193" y="700" type="line"/>
      <point x="345" y="700" type="line" smooth="yes"/>
      <point x="546" y="700"/>
      <point x="645" y="540"/>
      <point x="617" y="350" type="curve" smooth="yes"/>
      <point x="586" y="152"/>
      <point x="432" y="0"/>
    </contour>
  </outline>
</glyph>
<glyph name="F" format="2">
  <advance width="451"/>
  <unicode hex="0046"/>
  <outline>
    <contour>
      <point x="187" y="668" type="line"/>
      <point x="192" y="700" type="line"/>
      <point x="486" y="700" type="line"/>
      <point x="480" y="668" type="line"/>
    </contour>
    <contour>
      <point x="134" y="364" type="line"/>
      <point x="140" y="394" type="line"/>
      <point x="424" y="394" type="line"/>
      <point x="418" y="363" type="line"/>
    </contour>
    <contour>
      <point x="176" y="700" type="line"/>
      <point x="210" y="700" type="line"/>
      <point x="89" y="0" type="line"/>
      <point x="57" y="0" type="line"/>
    </contour>
  </outline>
</glyph>
<glyph name="J" format="2">
  <advance width="203"/>
  <unicode hex="004A"/>
  <outline>
    <contour>
      <point x="-158" y="-142" type="line"/>
      <point x="-137" y="-166"/>
      <point x="-108" y="-188"/>
      <point x="-68" y="-188" type="curve" smooth="yes"/>
      <point x="7" y="-188"/>
      <point x="40" y="-132"/>
      <point x="52" y="-50" type="curve" smooth="yes"/>
      <point x="181" y="700" type="line"/>
      <point x="212" y="700" type="line"/>
      <point x="82" y="-60" type="line" smooth="yes"/>
      <point x="68" y="-154"/>
      <point x="22" y="-221"/>
      <point x="-72" y="-220" type="curve" smooth="yes"/>
      <point x="-120" y="-220"/>
      <point x="-160" y="-192"/>
      <point x="-180" y="-166" type="curve"/>
    </contour>
  </outline>
</glyph>
<glyph name="K" format="2">
  <advance width="472"/>
  <unicode hex="004B"/>
  <outline>
    <contour>
      <point x="174" y="700" type="line"/>
      <point x="206" y="700" type="line"/>
      <point x="86" y="0" type="line"/>
      <point x="54" y="0" type="line"/>
    </contour>
    <contour>
      <point x="497" y="699" type="line"/>
      <point x="540" y="699" type="line"/>
      <point x="180" y="371" type="line"/>
      <point x="434" y="0" type="line"/>
      <point x="393" y="0" type="line"/>
      <point x="141" y="373" type="line"/>
    </contour>
  </outline>
</glyph>
<glyph name="L" format="2">
  <advance width="422"/>
  <unicode hex="004C"/>
  <outline>
    <contour>
      <point x="176" y="700" type="line"/>
      <point x="210" y="700" type="line"/>
      <point x="94" y="31" type="line"/>
      <point x="385" y="31" type="line"/>
      <point x="380" y="0" type="line"/>
      <point x="56" y="0" type="line"/>
    </contour>
  </outline>
</glyph>
<glyph name="M" format="2">
  <advance width="799"/>
  <unicode hex="004D"/>
  <outline>
    <contour>
      <point x="226" y="614" type="line"/>
      <point x="57" y="0" type="line"/>
      <point x="24" y="0" type="line"/>
      <point x="224" y="722" type="line"/>
      <point x="399" y="161" type="line"/>
      <point x="769" y="722" type="line"/>
      <point x="720" y="0" type="line"/>
      <point x="688" y="0" type="line"/>
      <point x="730" y="612" type="line"/>
      <point x="389" y="92" type="line"/>
    </contour>
  </outline>
</glyph>
<glyph name="N" format="2">
  <advance width="698"/>
  <unicode hex="004E"/>
  <outline>
    <contour>
      <point x="681" y="700" type="line"/>
      <point x="714" y="700" type="line"/>
      <point x="590" y="-20" type="line"/>
      <point x="185" y="631" type="line"/>
      <point x="76" y="0" type="line"/>
      <point x="43" y="0" type="line"/>
      <point x="167" y="720" type="line"/>
      <point x="572" y="66" type="line"/>
    </contour>
  </outline>
</glyph>
<glyph name="O" format="2">
  <advance width="755"/>
  <unicode hex="004F"/>
  <outline>
    <contour>
      <point x="112" y="350" type="curve" smooth="yes"/>
      <point x="87" y="183"/>
      <point x="174" y="25"/>
      <point x="354" y="24" type="curve" smooth="yes"/>
      <point x="536" y="23"/>
      <point x="680" y="174"/>
      <point x="708" y="350" type="curve" smooth="yes"/>
      <point x="733" y="517"/>
      <point x="648" y="675"/>
      <point x="468" y="676" type="curve" smooth="yes"/>
      <point x="286" y="677"/>
      <point x="140" y="526"/>
    </contour>
    <contour>
      <point x="78" y="350" type="curve" smooth="yes"/>
      <point x="108" y="546"/>
      <point x="270" y="708"/>
      <point x="470" y="708" type="curve" smooth="yes"/>
      <point x="668" y="708"/>
      <point x="771" y="536"/>
      <point x="744" y="350" type="curve" smooth="yes"/>
      <point x="714" y="154"/>
      <point x="551" y="-8"/>
      <point x="351" y="-8" type="curve" smooth="yes"/>
      <point x="153" y="-8"/>
      <point x="51" y="164"/>
    </contour>
  </outline>
</glyph>
<glyph name="P" format="2">
  <advance width="485"/>
  <unicode hex="0050"/>
  <outline>
    <contour>
      <point x="176" y="700" type="line"/>
      <point x="210" y="700" type="line"/>
      <point x="89" y="0" type="line"/>
      <point x="57" y="0" type="line"/>
    </contour>
    <contour>
      <point x="189" y="669" type="line"/>
      <point x="195" y="700" type="line"/>
      <point x="316" y="700" type="line" smooth="yes"/>
      <point x="438" y="700"/>
      <point x="517" y="614"/>
      <point x="498" y="494" type="curve" smooth="yes"/>
      <point x="478" y="370"/>
      <point x="374" y="290"/>
      <point x="248" y="290" type="curve" smooth="yes"/>
      <point x="125" y="290" type="line"/>
      <point x="130" y="321" type="line"/>
      <point x="252" y="321" type="line"/>
      <point x="361" y="321"/>
      <point x="447" y="388"/>
      <point x="465" y="495" type="curve" smooth="yes"/>
      <point x="482" y="599"/>
      <point x="419" y="668"/>
      <point x="313" y="668" type="curve" smooth="yes"/>
    </contour>
  </outline>
</glyph>
<glyph name="S" format="2">
  <advance width="490"/>
  <unicode hex="0053"/>
  <outline>
    <contour>
      <point x="75" y="198" type="line"/>
      <point x="90" y="109"/>
      <point x="128" y="25"/>
      <point x="236" y="24" type="curve" smooth="yes"/>
      <point x="338" y="23"/>
      <point x="409" y="94"/>
      <point x="420" y="180" type="curve" smooth="yes"/>
      <point x="430" y="273"/>
      <point x="366" y="318"/>
      <point x="291" y="352" type="curve" smooth="yes"/>
      <point x="212" y="388"/>
      <point x="129" y="439"/>
      <point x="140" y="542" type="curve" smooth="yes"/>
      <point x="150" y="637"/>
      <point x="234" y="708"/>
      <point x="338" y="708" type="curve" smooth="yes"/>
      <point x="442" y="708"/>
      <point x="491" y="635"/>
      <point x="507" y="563" type="curve"/>
      <point x="478" y="549" type="line"/>
      <point x="464" y="610"/>
      <point x="427" y="676"/>
      <point x="334" y="676" type="curve" smooth="yes"/>
      <point x="250" y="676"/>
      <point x="184" y="622"/>
      <point x="174" y="546" type="curve" smooth="yes"/>
      <point x="163" y="460"/>
      <point x="230" y="412"/>
      <point x="316" y="376" type="curve" smooth="yes"/>
      <point x="392" y="342"/>
      <point x="464" y="290"/>
      <point x="454" y="184" type="curve" smooth="yes"/>
      <point x="443" y="76"/>
      <point x="352" y="-9"/>
      <point x="234" y="-8" type="curve" smooth="yes"/>
      <point x="114" y="-7"/>
      <point x="63" y="86"/>
      <point x="47" y="182" type="curve"/>
    </contour>
  </outline>
</glyph>
<glyph name="U" format="2">
  <advance width="573"/>
  <unicode hex="0055"/>
  <outline>
    <contour>
      <point x="172" y="700" type="line"/>
      <point x="204" y="700" type="line"/>
      <point x="122" y="223" type="line" smooth="yes"/>
      <point x="108" y="116"/>
      <point x="147" y="22"/>
      <point x="262" y="22" type="curve" smooth="yes"/>
      <point x="380" y="22"/>
      <point x="454" y="111"/>
      <point x="472" y="223" type="curve" smooth="yes"/>
      <point x="554" y="700" type="line"/>
      <point x="588" y="700" type="line"/>
      <point x="506" y="223" type="line" smooth="yes"/>
      <point x="485" y="93"/>
      <point x="402" y="-10"/>
      <point x="260" y="-10" type="curve" smooth="yes"/>
      <point x="124" y="-10"/>
      <point x="73" y="99"/>
      <point x="90" y="223" type="curve" smooth="yes"/>
    </contour>
  </outline>
</glyph>
<glyph name="V" format="2">
  <advance width="599"/>
  <unicode hex="0056"/>
  <outline>
    <contour>
      <point x="290" y="58" type="line"/>
      <point x="642" y="700" type="line"/>
      <point x="680" y="700" type="line"/>
      <point x="279" y="-22" type="line"/>
      <point x="103" y="700" type="line"/>
      <point x="139" y="700" type="line"/>
    </contour>
  </outline>
</glyph>
<glyph name="W" format="2">
  <advance width="933"/>
  <unicode hex="0057"/>
  <outline>
    <contour>
      <point x="670" y="74" type="line"/>
      <point x="972" y="700" type="line"/>
      <point x="1009" y="700" type="line"/>
      <point x="656" y="-22" type="line"/>
      <point x="546" y="625" type="line"/>
      <point x="236" y="-22" type="line"/>
      <point x="108" y="700" type="line"/>
      <point x="142" y="700" type="line"/>
      <point x="251" y="74" type="line"/>
      <point x="562" y="722" type="line"/>
    </contour>
  </outline>
</glyph>
<glyph name="X" format="2">
  <advance width="500"/>
  <unicode hex="0058"/>
  <outline>
    <contour>
      <point x="522" y="699" type="line"/>
      <point x="562" y="699" type="line"/>
      <point x="309" y="366" type="line"/>
      <point x="468" y="0" type="line"/>
      <point x="430" y="0" type="line"/>
      <point x="288" y="336" type="line"/>
      <point x="38" y="0" type="line"/>
      <point x="-2" y="0" type="line"/>
      <point x="276" y="368" type="line"/>
      <point x="132" y="700" type="line"/>
      <point x="170" y="700" type="line"/>
      <point x="297" y="397" type="line"/>
    </contour>
  </outline>
</glyph>
<glyph name="Y" format="2">
  <advance width="507"/>
  <unicode hex="0059"/>
  <outline>
    <contour>
      <point x="552" y="699" type="line"/>
      <point x="590" y="699" type="line"/>
      <point x="286" y="277" type="line"/>
      <point x="239" y="0" type="line"/>
      <point x="206" y="0" type="line"/>
      <point x="255" y="278" type="line"/>
      <point x="104" y="700" type="line"/>
      <point x="140" y="700" type="line"/>
      <point x="275" y="310" type="line"/>
    </contour>
  </outline>
</glyph>
<glyph name="Z" format="2">
  <advance width="521"/>
  <unicode hex="005A"/>
  <outline>
    <contour>
      <point x="124" y="668" type="line"/>
      <point x="129" y="700" type="line"/>
      <point x="600" y="700" type="line"/>
      <point x="53" y="32" type="line"/>
      <point x="472" y="32" type="line"/>
      <point x="466" y="0" type="line"/>
      <point x="-11" y="0" type="line"/>
      <point x="536" y="668" type="line"/>
    </contour>
  </outline>
</glyph>
<glyph name="bracketleft" format="2">
  <advance width="263"/>
  <unicode hex="005B"/>
  <outline>
    <contour>
      <point x="227" y="750" type="line"/>
      <point x="82" y="-190" type="line"/>
      <point x="198" y="-190" type="line"/>
      <point x="194" y="-220" type="line"/>
      <point x="45" y="-220" type="line"/>
      <point x="200" y="780" type="line"/>
      <point x="348" y="780" type="line"/>
      <point x="344" y="750" type="line"/>
    </contour>
  </outline>
</glyph>
<glyph name="backslash" format="2">
  <advance width="445"/>
  <unicode hex="005C"/>
  <outline>
    <contour>
      <point x="106" y="700" type="line"/>
      <point x="140" y="700" type="line"/>
      <point x="404" y="0" type="line"/>
      <point x="371" y="0" type="line"/>
    </contour>
  </outline>
</glyph>
<glyph name="bracketright" format="2">
  <advance width="263"/>
  <unicode hex="005D"/>
  <outline>
    <contour>
      <point x="89" y="-190" type="line"/>
      <point x="234" y="750" type="line"/>
      <point x="117" y="750" type="line"/>
      <point x="122" y="780" type="line"/>
      <point x="270" y="780" type="line"/>
      <point x="116" y="-220" type="line"/>
      <point x="-32" y="-220" type="line"/>
      <point x="-28" y="-190" type="line"/>
    </contour>
  </outline>
</glyph>
<glyph name="grave" format="2">
  <advance width="348"/>
  <unicode hex="0060"/>
  <outline>
    <contour>
      <point x="177" y="682" type="line"/>
      <point x="206" y="700" type="line"/>
      <point x="342" y="540" type="line"/>
      <point x="325" y="528" type="line"/>
    </contour>
  </outline>
</glyph>
<glyph name="b" format="2">
  <advance width="533"/>
  <unicode hex="0062"/>
  <outline>
    <contour>
      <point x="212" y="780" type="line"/>
      <point x="77" y="0" type="line"/>
      <point x="46" y="0" type="line"/>
      <point x="180" y="780" type="line"/>
    </contour>
    <contour>
      <point x="506" y="230" type="curve" smooth="yes"/>
      <point x="486" y="97"/>
      <point x="382" y="-11"/>
      <point x="254" y="-10" type="curve" smooth="yes"/>
      <point x="130" y="-9"/>
      <point x="87" y="118"/>
      <point x="103" y="230" type="curve" smooth="yes"/>
      <point x="121" y="350"/>
      <point x="209" y="470"/>
      <point x="333" y="470" type="curve" smooth="yes"/>
      <point x="461" y="470"/>
      <point x="523" y="356"/>
    </contour>
    <contour>
      <point x="474" y="230" type="curve" smooth="yes"/>
      <point x="490" y="340"/>
      <point x="438" y="441"/>
      <point x="326" y="440" type="curve" smooth="yes"/>
      <point x="222" y="439"/>
      <point x="134" y="335"/>
      <point x="117" y="230" type="curve" smooth="yes"/>
      <point x="103" y="132"/>
      <point x="149" y="22"/>
      <point x="252" y="20" type="curve" smooth="yes"/>
      <point x="364" y="18"/>
      <point x="456" y="114"/>
    </contour>
  </outline>
</glyph>
<glyph name="c" format="2">
  <advance width="470"/>
  <unicode hex="0063"/>
  <outline>
    <contour>
      <point x="84" y="230" type="curve" smooth="yes"/>
      <point x="69" y="120"/>
      <point x="135" y="21"/>
      <point x="249" y="20" type="curve" smooth="yes"/>
      <point x="318" y="20"/>
      <point x="376" y="54"/>
      <point x="412" y="87" type="curve"/>
      <point x="406" y="48" type="line"/>
      <point x="368" y="18"/>
      <point x="311" y="-10"/>
      <point x="246" y="-10" type="curve" smooth="yes"/>
      <point x="114" y="-10"/>
      <point x="37" y="104"/>
      <point x="54" y="230" type="curve" smooth="yes"/>
      <point x="72" y="362"/>
      <point x="184" y="470"/>
      <point x="318" y="470" type="curve" smooth="yes"/>
      <point x="380" y="470"/>
      <point x="432" y="445"/>
      <point x="462" y="412" type="curve"/>
      <point x="456" y="373" type="line"/>
      <point x="430" y="410"/>
      <point x="380" y="440"/>
      <point x="316" y="440" type="curve" smooth="yes"/>
      <point x="200" y="440"/>
      <point x="101" y="345"/>
    </contour>
  </outline>
</glyph>
<glyph name="e" format="2">
  <advance width="500"/>
  <unicode hex="0065"/>
  <outline>
    <contour>
      <point x="229" y="-10" type="curve" smooth="yes"/>
      <point x="124" y="-10"/>
      <point x="52" y="72"/>
      <point x="52" y="198" type="curve" smooth="yes"/>
      <point x="52" y="336"/>
      <point x="169" y="470"/>
      <point x="304" y="470" type="curve" smooth="yes"/>
      <point x="406" y="470"/>
      <point x="476" y="387"/>
      <point x="476" y="276" type="curve" smooth="yes"/>
      <point x="476" y="258"/>
      <point x="471" y="236"/>
      <point x="465" y="222" type="curve"/>
      <point x="76" y="222" type="line"/>
      <point x="76" y="250" type="line"/>
      <point x="446" y="250" type="line"/>
      <point x="432" y="230" type="line"/>
      <point x="437" y="242"/>
      <point x="444" y="260"/>
      <point x="444" y="282" type="curve" smooth="yes"/>
      <point x="444" y="372"/>
      <point x="388" y="442"/>
      <point x="302" y="442" type="curve" smooth="yes"/>
      <point x="184" y="442"/>
      <point x="84" y="322"/>
      <point x="84" y="200" type="curve" smooth="yes"/>
      <point x="84" y="94"/>
      <point x="140" y="20"/>
      <point x="232" y="20" type="curve" smooth="yes"/>
      <point x="308" y="20"/>
      <point x="370" y="56"/>
      <point x="418" y="124" type="curve"/>
      <point x="442" y="107" type="line"/>
      <point x="388" y="32"/>
      <point x="317" y="-10"/>
    </contour>
  </outline>
</glyph>
<glyph name="f" format="2">
  <advance width="271"/>
  <unicode hex="0066"/>
  <outline>
    <contour>
      <point x="96" y="460" type="line"/>
      <point x="296" y="460" type="line"/>
      <point x="291" y="430" type="line"/>
      <point x="92" y="430" type="line"/>
    </contour>
    <contour>
      <point x="364" y="718" type="line"/>
      <point x="350" y="738"/>
      <point x="332" y="757"/>
      <point x="304" y="758" type="curve" smooth="yes"/>
      <point x="240" y="759"/>
      <point x="212" y="695"/>
      <point x="202" y="641" type="curve" smooth="yes"/>
      <point x="92" y="0" type="line"/>
      <point x="61" y="0" type="line"/>
      <point x="171" y="644" type="line" smooth="yes"/>
      <point x="183" y="718"/>
      <point x="226" y="790"/>
      <point x="308" y="788" type="curve" smooth="yes"/>
      <point x="346" y="787"/>
      <point x="369" y="764"/>
      <point x="385" y="742" type="curve"/>
    </contour>
  </outline>
</glyph>
<glyph name="g" format="2">
  <advance width="533"/>
  <unicode hex="0067"/>
  <outline>
    <contour>
      <point x="22" y="-30" type="curve"/>
      <point x="52" y="-30" type="line"/>
      <point x="42" y="-122"/>
      <point x="86" y="-199"/>
      <point x="188" y="-200" type="curve" smooth="yes"/>
      <point x="296" y="-201"/>
      <point x="385" y="-114"/>
      <point x="403" y="10" type="curve" smooth="yes"/>
      <point x="480" y="460" type="line"/>
      <point x="511" y="460" type="line"/>
      <point x="434" y="10" type="line" smooth="yes"/>
      <point x="414" y="-129"/>
      <point x="316" y="-230"/>
      <point x="188" y="-230" type="curve" smooth="yes"/>
      <point x="68" y="-230"/>
      <point x="10" y="-140"/>
    </contour>
    <contour>
      <point x="52" y="230" type="curve" smooth="yes"/>
      <point x="72" y="363"/>
      <point x="176" y="471"/>
      <point x="304" y="470" type="curve" smooth="yes"/>
      <point x="428" y="469"/>
      <point x="471" y="342"/>
      <point x="455" y="230" type="curve" smooth="yes"/>
      <point x="437" y="110"/>
      <point x="348" y="-10"/>
      <point x="224" y="-10" type="curve" smooth="yes"/>
      <point x="96" y="-10"/>
      <point x="35" y="104"/>
    </contour>
    <contour>
      <point x="84" y="230" type="curve" smooth="yes"/>
      <point x="68" y="120"/>
      <point x="119" y="20"/>
      <point x="231" y="20" type="curve" smooth="yes"/>
      <point x="336" y="20"/>
      <point x="425" y="127"/>
      <point x="441" y="234" type="curve" smooth="yes"/>
      <point x="455" y="328"/>
      <point x="408" y="438"/>
      <point x="306" y="440" type="curve" smooth="yes"/>
      <point x="194" y="442"/>
      <point x="102" y="346"/>
    </contour>
  </outline>
</glyph>
<glyph name="h" format="2">
  <advance width="475"/>
  <unicode hex="0068"/>
  <outline>
    <contour>
      <point x="216" y="780" type="line"/>
      <point x="82" y="0" type="line"/>
      <point x="52" y="0" type="line"/>
      <point x="186" y="780" type="line"/>
    </contour>
    <contour>
      <point x="392" y="308" type="line" smooth="yes"/>
      <point x="401" y="378"/>
      <point x="384" y="439"/>
      <point x="304" y="440" type="curve" smooth="yes"/>
      <point x="216" y="441"/>
      <point x="149" y="361"/>
      <point x="130" y="281" type="curve"/>
      <point x="118" y="281" type="line"/>
      <point x="138" y="379"/>
      <point x="210" y="470"/>
      <point x="312" y="470" type="curve" smooth="yes"/>
      <point x="406" y="470"/>
      <point x="433" y="397"/>
      <point x="422" y="311" type="curve"/>
      <point x="368" y="0" type="line"/>
      <point x="338" y="0" type="line"/>
    </contour>
  </outline>
</glyph>
<glyph name="i" format="2">
  <advance width="204"/>
  <unicode hex="0069"/>
  <outline>
    <contour>
      <point x="168" y="682" type="curve" smooth="yes"/>
      <point x="168" y="695"/>
      <point x="178" y="704"/>
      <point x="192" y="704" type="curve" smooth="yes"/>
      <point x="206" y="704"/>
      <point x="216" y="695"/>
      <point x="216" y="682" type="curve" smooth="yes"/>
      <point x="216" y="669"/>
      <point x="206" y="658"/>
      <point x="192" y="658" type="curve" smooth="yes"/>
      <point x="178" y="658"/>
      <point x="168" y="669"/>
    </contour>
    <contour>
      <point x="139" y="460" type="line"/>
      <point x="170" y="460" type="line"/>
      <point x="90" y="0" type="line"/>
      <point x="60" y="0" type="line"/>
    </contour>
  </outline>
</glyph>
<glyph name="j" format="2">
  <advance width="194"/>
  <unicode hex="006A"/>
  <outline>
    <contour>
      <point x="158" y="682" type="curve" smooth="yes"/>
      <point x="158" y="695"/>
      <point x="167" y="704"/>
      <point x="181" y="704" type="curve" smooth="yes"/>
      <point x="195" y="704"/>
      <point x="205" y="695"/>
      <point x="205" y="682" type="curve" smooth="yes"/>
      <point x="205" y="669"/>
      <point x="195" y="658"/>
      <point x="181" y="658" type="curve" smooth="yes"/>
      <point x="167" y="658"/>
      <point x="158" y="669"/>
    </contour>
    <contour>
      <point x="-124" y="-150" type="line"/>
      <point x="-112" y="-168"/>
      <point x="-92" y="-188"/>
      <point x="-64" y="-188" type="curve" smooth="yes"/>
      <point x="0" y="-188"/>
      <point x="29" y="-124"/>
      <point x="38" y="-72" type="curve" smooth="yes"/>
      <point x="129" y="460" type="line"/>
      <point x="160" y="460" type="line"/>
      <point x="68" y="-76" type="line" smooth="yes"/>
      <point x="56" y="-148"/>
      <point x="16" y="-220"/>
      <point x="-66" y="-220" type="curve" smooth="yes"/>
      <point x="-104" y="-220"/>
      <point x="-128" y="-197"/>
      <point x="-145" y="-174" type="curve"/>
    </contour>
  </outline>
</glyph>
<glyph name="k" format="2">
  <advance width="380"/>
  <unicode hex="006B"/>
  <outline>
    <contour>
      <point x="180" y="780" type="line"/>
      <point x="212" y="780" type="line"/>
      <point x="77" y="0" type="line"/>
      <point x="48" y="0" type="line"/>
    </contour>
    <contour>
      <point x="367" y="459" type="line"/>
      <point x="408" y="459" type="line"/>
      <point x="151" y="268" type="line"/>
      <point x="347" y="0" type="line"/>
      <point x="310" y="0" type="line"/>
      <point x="114" y="271" type="line"/>
    </contour>
  </outline>
</glyph>
<glyph name="l" format="2">
  <advance width="189"/>
  <unicode hex="006C"/>
  <outline>
    <contour>
      <point x="186" y="780" type="line"/>
      <point x="216" y="780" type="line"/>
      <point x="82" y="0" type="line"/>
      <point x="52" y="0" type="line"/>
    </contour>
  </outline>
</glyph>
<glyph name="m" format="2">
  <advance width="695"/>
  <unicode hex="006D"/>
  <outline>
    <contour>
      <point x="642" y="311" type="curve" smooth="yes"/>
      <point x="589" y="0" type="line"/>
      <point x="558" y="0" type="line"/>
      <point x="612" y="308" type="line" smooth="yes"/>
      <point x="620" y="373"/>
      <point x="610" y="439"/>
      <point x="540" y="440" type="curve" smooth="yes"/>
      <point x="464" y="442"/>
      <point x="398" y="366"/>
      <point x="386" y="287" type="curve" smooth="yes"/>
      <point x="336" y="0" type="line"/>
      <point x="306" y="0" type="line"/>
      <point x="358" y="308" type="line" smooth="yes"/>
      <point x="366" y="373"/>
      <point x="356" y="439"/>
      <point x="286" y="440" type="curve" smooth="yes"/>
      <point x="212" y="442"/>
      <point x="146" y="369"/>
      <point x="134" y="289" type="curve" smooth="yes"/>
      <point x="82" y="0" type="line"/>
      <point x="51" y="0" type="line"/>
      <point x="131" y="460" type="line"/>
      <point x="162" y="460" type="line"/>
      <point x="144" y="354" type="line"/>
      <point x="170" y="418"/>
      <point x="228" y="471"/>
      <point x="295" y="470" type="curve" smooth="yes"/>
      <point x="367" y="469"/>
      <point x="391" y="412"/>
      <point x="391" y="352" type="curve"/>
      <point x="424" y="423"/>
      <point x="479" y="471"/>
      <point x="548" y="470" type="curve" smooth="yes"/>
      <point x="633" y="469"/>
      <point x="652" y="391"/>
    </contour>
  </outline>
</glyph>
<glyph name="n" format="2">
  <advance width="475"/>
  <unicode hex="006E"/>
  <outline>
    <contour>
      <point x="392" y="308" type="line" smooth="yes"/>
      <point x="401" y="378"/>
      <point x="384" y="439"/>
      <point x="304" y="440" type="curve" smooth="yes"/>
      <point x="219" y="441"/>
      <point x="147" y="370"/>
      <point x="134" y="288" type="curve" smooth="yes"/>
      <point x="82" y="0" type="line"/>
      <point x="51" y="0" type="line"/>
      <point x="131" y="460" type="line"/>
      <point x="162" y="460" type="line"/>
      <point x="144" y="352" type="line"/>
      <point x="172" y="420"/>
      <point x="235" y="470"/>
      <point x="312" y="470" type="curve" smooth="yes"/>
      <point x="407" y="470"/>
      <point x="434" y="395"/>
      <point x="422" y="311" type="curve" smooth="yes"/>
      <point x="368" y="0" type="line"/>
      <point x="338" y="0" type="line"/>
    </contour>
  </outline>
</glyph>
<glyph name="o" format="2">
  <advance width="536"/>
  <unicode hex="006F"/>
  <outline>
    <contour>
      <point x="58" y="230" type="curve" smooth="yes"/>
      <point x="76" y="362"/>
      <point x="188" y="470"/>
      <point x="322" y="470" type="curve" smooth="yes"/>
      <point x="454" y="470"/>
      <point x="531" y="356"/>
      <point x="514" y="230" type="curve" smooth="yes"/>
      <point x="496" y="98"/>
      <point x="384" y="-10"/>
      <point x="250" y="-10" type="curve" smooth="yes"/>
      <point x="118" y="-10"/>
      <point x="41" y="104"/>
    </contour>
    <contour>
      <point x="90" y="230" type="curve" smooth="yes"/>
      <point x="75" y="120"/>
      <point x="139" y="20"/>
      <point x="253" y="20" type="curve" smooth="yes"/>
      <point x="369" y="20"/>
      <point x="467" y="115"/>
      <point x="484" y="230" type="curve" smooth="yes"/>
      <point x="499" y="340"/>
      <point x="434" y="440"/>
      <point x="320" y="440" type="curve" smooth="yes"/>
      <point x="204" y="440"/>
      <point x="107" y="345"/>
    </contour>
  </outline>
</glyph>
<glyph name="q" format="2">
  <advance width="533"/>
  <unicode hex="0071"/>
  <outline>
    <contour>
      <point x="363" y="-220" type="line"/>
      <point x="480" y="460" type="line"/>
      <point x="511" y="460" type="line"/>
      <point x="393" y="-220" type="line"/>
    </contour>
    <contour>
      <point x="52" y="230" type="curve" smooth="yes"/>
      <point x="72" y="363"/>
      <point x="176" y="471"/>
      <point x="304" y="470" type="curve" smooth="yes"/>
      <point x="428" y="469"/>
      <point x="471" y="342"/>
      <point x="455" y="230" type="curve" smooth="yes"/>
      <point x="437" y="110"/>
      <point x="348" y="-10"/>
      <point x="224" y="-10" type="curve" smooth="yes"/>
      <point x="96" y="-10"/>
      <point x="35" y="104"/>
    </contour>
    <contour>
      <point x="84" y="230" type="curve" smooth="yes"/>
      <point x="68" y="120"/>
      <point x="119" y="19"/>
      <point x="231" y="20" type="curve" smooth="yes"/>
      <point x="335" y="21"/>
      <point x="424" y="125"/>
      <point x="441" y="230" type="curve" smooth="yes"/>
      <point x="455" y="328"/>
      <point x="409" y="438"/>
      <point x="306" y="440" type="curve" smooth="yes"/>
      <point x="194" y="442"/>
      <point x="102" y="346"/>
    </contour>
  </outline>
</glyph>
<glyph name="s" format="2">
  <advance width="391"/>
  <unicode hex="0073"/>
  <outline>
    <contour>
      <point x="68" y="134" type="line"/>
      <point x="78" y="76"/>
      <point x="108" y="18"/>
      <point x="188" y="18" type="curve" smooth="yes"/>
      <point x="250" y="18"/>
      <point x="302" y="60"/>
      <point x="308" y="120" type="curve" smooth="yes"/>
      <point x="314" y="178"/>
      <point x="262" y="206"/>
      <point x="208" y="226" type="curve" smooth="yes"/>
      <point x="146" y="248"/>
      <point x="90" y="276"/>
      <point x="98" y="354" type="curve" smooth="yes"/>
      <point x="105" y="427"/>
      <point x="172" y="468"/>
      <point x="240" y="468" type="curve" smooth="yes"/>
      <point x="314" y="468"/>
      <point x="353" y="424"/>
      <point x="371" y="372" type="curve"/>
      <point x="346" y="358" type="line"/>
      <point x="330" y="404"/>
      <point x="300" y="440"/>
      <point x="238" y="440" type="curve" smooth="yes"/>
      <point x="183" y="440"/>
      <point x="136" y="409"/>
      <point x="129" y="357" type="curve" smooth="yes"/>
      <point x="121" y="293"/>
      <point x="168" y="271"/>
      <point x="225" y="251" type="curve" smooth="yes"/>
      <point x="288" y="227"/>
      <point x="344" y="195"/>
      <point x="338" y="122" type="curve" smooth="yes"/>
      <point x="331" y="46"/>
      <point x="268" y="-10"/>
      <point x="186" y="-10" type="curve" smooth="yes"/>
      <point x="92" y="-10"/>
      <point x="50" y="57"/>
      <point x="42" y="122" type="curve"/>
    </contour>
  </outline>
</glyph>
<glyph name="u" format="2">
  <advance width="475"/>
  <unicode hex="0075"/>
  <outline>
    <contour>
      <point x="110" y="159" type="line" smooth="yes"/>
      <point x="100" y="86"/>
      <point x="114" y="20"/>
      <point x="196" y="20" type="curve" smooth="yes"/>
      <point x="282" y="19"/>
      <point x="354" y="95"/>
      <point x="366" y="173" type="curve" smooth="yes"/>
      <point x="418" y="460" type="line"/>
      <point x="448" y="460" type="line"/>
      <point x="369" y="0" type="line"/>
      <point x="338" y="0" type="line"/>
      <point x="355" y="105" type="line"/>
      <point x="323" y="38"/>
      <point x="265" y="-11"/>
      <point x="188" y="-10" type="curve" smooth="yes"/>
      <point x="91" y="-10"/>
      <point x="66" y="68"/>
      <point x="78" y="156" type="curve" smooth="yes"/>
      <point x="132" y="460" type="line"/>
      <point x="162" y="460" type="line"/>
    </contour>
  </outline>
</glyph>
<glyph name="v" format="2">
  <advance width="413"/>
  <unicode hex="0076"/>
  <outline>
    <contour>
      <point x="60" y="460" type="line"/>
      <point x="94" y="460" type="line"/>
      <point x="196" y="49" type="line"/>
      <point x="426" y="460" type="line"/>
      <point x="462" y="460" type="line"/>
      <point x="186" y="-22" type="line"/>
    </contour>
  </outline>
</glyph>
<glyph name="w" format="2">
  <advance width="618"/>
  <unicode hex="0077"/>
  <outline>
    <contour>
      <point x="64" y="460" type="line"/>
      <point x="96" y="460" type="line"/>
      <point x="154" y="62" type="line"/>
      <point x="360" y="482" type="line"/>
      <point x="430" y="61" type="line"/>
      <point x="626" y="460" type="line"/>
      <point x="660" y="460" type="line"/>
      <point x="418" y="-22" type="line"/>
      <point x="347" y="398" type="line"/>
      <point x="138" y="-22" type="line"/>
    </contour>
  </outline>
</glyph>
<glyph name="x" format="2">
  <advance width="380"/>
  <unicode hex="0078"/>
  <outline>
    <contour>
      <point x="381" y="459" type="line"/>
      <point x="418" y="459" type="line"/>
      <point x="228" y="236" type="line"/>
      <point x="356" y="0" type="line"/>
      <point x="322" y="0" type="line"/>
      <point x="206" y="213" type="line"/>
      <point x="26" y="0" type="line"/>
      <point x="-12" y="0" type="line"/>
      <point x="193" y="238" type="line"/>
      <point x="70" y="460" type="line"/>
      <point x="105" y="460" type="line"/>
      <point x="214" y="262" type="line"/>
    </contour>
  </outline>
</glyph>
<glyph name="y" format="2">
  <advance width="416"/>
  <unicode hex="0079"/>
  <outline>
    <contour>
      <point x="462" y="460" type="line"/>
      <point x="54" y="-220" type="line"/>
      <point x="20" y="-219" type="line"/>
      <point x="173" y="35" type="line"/>
      <point x="58" y="460" type="line"/>
      <point x="92" y="460" type="line"/>
      <point x="201" y="44" type="line"/>
      <point x="184" y="46" type="line"/>
      <point x="428" y="460" type="line"/>
    </contour>
  </outline>
</glyph>
<glyph name="z" format="2">
  <advance width="425"/>
  <unicode hex="007A"/>
  <outline>
    <contour>
      <point x="390" y="430" type="line"/>
      <point x="86" y="430" type="line"/>
      <point x="92" y="460" type="line"/>
      <point x="454" y="460" type="line"/>
      <point x="53" y="30" type="line"/>
      <point x="380" y="30" type="line"/>
      <point x="375" y="0" type="line"/>
      <point x="-11" y="0" type="line"/>
    </contour>
  </outline>
</glyph>
<glyph name="braceleft" format="2">
  <advance width="281"/>
  <unicode hex="007B"/>
  <outline>
    <contour>
      <point x="235" y="646" type="curve" smooth="yes"/>
      <point x="204" y="448" type="line" smooth="yes"/>
      <point x="192" y="368"/>
      <point x="164" y="299"/>
      <point x="100" y="286" type="curve"/>
      <point x="102" y="294" type="line"/>
      <point x="160" y="277"/>
      <point x="165" y="206"/>
      <point x="156" y="132" type="curve" smooth="yes"/>
      <point x="124" y="-66" type="line" smooth="yes"/>
      <point x="118" y="-126"/>
      <point x="122" y="-172"/>
      <point x="179" y="-172" type="curve" smooth="yes"/>
      <point x="203" y="-172" type="line"/>
      <point x="199" y="-200" type="line"/>
      <point x="168" y="-200" type="line" smooth="yes"/>
      <point x="96" y="-200"/>
      <point x="88" y="-138"/>
      <point x="96" y="-60" type="curve" smooth="yes"/>
      <point x="128" y="150" type="line" smooth="yes"/>
      <point x="135" y="212"/>
      <point x="126" y="254"/>
      <point x="94" y="278" type="curve"/>
      <point x="98" y="302" type="line"/>
      <point x="137" y="322"/>
      <point x="162" y="365"/>
      <point x="171" y="430" type="curve" smooth="yes"/>
      <point x="203" y="640" type="line" smooth="yes"/>
      <point x="214" y="722"/>
      <point x="248" y="780"/>
      <point x="318" y="780" type="curve" smooth="yes"/>
      <point x="350" y="780" type="line"/>
      <point x="346" y="752" type="line"/>
      <point x="322" y="752" type="line" smooth="yes"/>
      <point x="265" y="752"/>
      <point x="243" y="710"/>
    </contour>
  </outline>
</glyph>
<glyph name="bar" format="2">
  <advance width="222"/>
  <unicode hex="007C"/>
  <outline>
    <contour>
      <point x="201" y="784" type="line"/>
      <point x="230" y="784" type="line"/>
      <point x="75" y="-214" type="line"/>
      <point x="46" y="-214" type="line"/>
    </contour>
  </outline>
</glyph>
<glyph name="braceright" format="2">
  <advance width="281"/>
  <unicode hex="007D"/>
  <outline>
    <contour>
      <point x="104" y="-66" type="curve" smooth="yes"/>
      <point x="134" y="132" type="line" smooth="yes"/>
      <point x="146" y="212"/>
      <point x="175" y="281"/>
      <point x="239" y="294" type="curve"/>
      <point x="238" y="286" type="line"/>
      <point x="180" y="303"/>
      <point x="175" y="374"/>
      <point x="184" y="448" type="curve" smooth="yes"/>
      <point x="214" y="646" type="line" smooth="yes"/>
      <point x="220" y="706"/>
      <point x="217" y="752"/>
      <point x="160" y="752" type="curve" smooth="yes"/>
      <point x="136" y="752" type="line"/>
      <point x="140" y="780" type="line"/>
      <point x="170" y="780" type="line" smooth="yes"/>
      <point x="242" y="780"/>
      <point x="251" y="718"/>
      <point x="243" y="640" type="curve" smooth="yes"/>
      <point x="210" y="430" type="line" smooth="yes"/>
      <point x="203" y="368"/>
      <point x="214" y="326"/>
      <point x="246" y="302" type="curve"/>
      <point x="242" y="278" type="line"/>
      <point x="203" y="258"/>
      <point x="177" y="215"/>
      <point x="168" y="150" type="curve" smooth="yes"/>
      <point x="136" y="-60" type="line" smooth="yes"/>
      <point x="125" y="-142"/>
      <point x="91" y="-200"/>
      <point x="21" y="-200" type="curve" smooth="yes"/>
      <point x="-11" y="-200" type="line"/>
      <point x="-7" y="-172" type="line"/>
      <point x="16" y="-172" type="line" smooth="yes"/>
      <point x="73" y="-172"/>
      <point x="96" y="-130"/>
    </contour>
  </outline>
</glyph>
<glyph name="asciitilde" format="2">
  <advance width="558"/>
  <unicode hex="007E"/>
  <outline>
    <contour>
      <point x="111" y="178" type="curve"/>
      <point x="84" y="182" type="line"/>
      <point x="84" y="190"/>
      <point x="83" y="198"/>
      <point x="84" y="206" type="curve" smooth="yes"/>
      <point x="89" y="236"/>
      <point x="101" y="264"/>
      <point x="121" y="286" type="curve" smooth="yes"/>
      <point x="144" y="311"/>
      <point x="178" y="326"/>
      <point x="214" y="326" type="curve" smooth="yes"/>
      <point x="263" y="326"/>
      <point x="292" y="291"/>
      <point x="319" y="258" type="curve" smooth="yes"/>
      <point x="340" y="232"/>
      <point x="365" y="202"/>
      <point x="401" y="202" type="curve" smooth="yes"/>
      <point x="450" y="202"/>
      <point x="481" y="245"/>
      <point x="488" y="292" type="curve" smooth="yes"/>
      <point x="490" y="301"/>
      <point x="489" y="312"/>
      <point x="487" y="322" type="curve"/>
      <point x="516" y="318" type="line"/>
      <point x="516" y="310"/>
      <point x="518" y="300"/>
      <point x="516" y="290" type="curve" smooth="yes"/>
      <point x="512" y="262"/>
      <point x="500" y="231"/>
      <point x="482" y="210" type="curve" smooth="yes"/>
      <point x="462" y="186"/>
      <point x="432" y="172"/>
      <point x="400" y="172" type="curve" smooth="yes"/>
      <point x="355" y="172"/>
      <point x="327" y="205"/>
      <point x="301" y="236" type="curve" smooth="yes"/>
      <point x="279" y="263"/>
      <point x="253" y="298"/>
      <point x="211" y="298" type="curve" smooth="yes"/>
      <point x="155" y="298"/>
      <point x="119" y="252"/>
      <point x="111" y="200" type="curve" smooth="yes"/>
      <point x="110" y="193"/>
      <point x="110" y="186"/>
    </contour>
  </outline>
</glyph>
<glyph name="exclamdown" format="2">
  <advance width="291"/>
  <unicode hex="00A1"/>
  <outline>
    <contour>
      <point x="109" y="-244" type="line"/>
      <point x="70" y="-244" type="line"/>
      <point x="164" y="254" type="line"/>
      <point x="186" y="254" type="line"/>
    </contour>
    <contour>
      <point x="231" y="442" type="curve" smooth="yes"/>
      <point x="230" y="430"/>
      <point x="216" y="418"/>
      <point x="204" y="418" type="curve" smooth="yes"/>
      <point x="192" y="418"/>
      <point x="182" y="429"/>
      <point x="183" y="442" type="curve" smooth="yes"/>
      <point x="184" y="454"/>
      <point x="199" y="466"/>
      <point x="211" y="466" type="curve" smooth="yes"/>
      <point x="223" y="466"/>
      <point x="232" y="455"/>
    </contour>
  </outline>
</glyph>
<glyph name="cent" format="2">
  <advance width="562"/>
  <unicode hex="00A2"/>
  <outline>
    <contour>
      <point x="270" y="8" type="line"/>
      <point x="292" y="8" type="line"/>
      <point x="274" y="-112" type="line"/>
      <point x="246" y="-112" type="line"/>
    </contour>
    <contour>
      <point x="124" y="230" type="curve" smooth="yes"/>
      <point x="107" y="122"/>
      <point x="168" y="21"/>
      <point x="284" y="20" type="curve" smooth="yes"/>
      <point x="353" y="20"/>
      <point x="414" y="53"/>
      <point x="450" y="87" type="curve"/>
      <point x="444" y="48" type="line"/>
      <point x="406" y="18"/>
      <point x="347" y="-10"/>
      <point x="282" y="-10" type="curve" smooth="yes"/>
      <point x="149" y="-10"/>
      <point x="76" y="104"/>
      <point x="94" y="230" type="curve" smooth="yes"/>
      <point x="115" y="362"/>
      <point x="228" y="470"/>
      <point x="362" y="470" type="curve" smooth="yes"/>
      <point x="423" y="470"/>
      <point x="475" y="445"/>
      <point x="505" y="412" type="curve"/>
      <point x="499" y="373" type="line"/>
      <point x="475" y="411"/>
      <point x="423" y="440"/>
      <point x="359" y="440" type="curve" smooth="yes"/>
      <point x="241" y="440"/>
      <point x="143" y="344"/>
    </contour>
    <contour>
      <point x="365" y="578" type="line"/>
      <point x="393" y="578" type="line"/>
      <point x="368" y="453" type="line"/>
      <point x="346" y="453" type="line"/>
    </contour>
  </outline>
</glyph>
<glyph name="sterling" format="2">
  <advance width="562"/>
  <unicode hex="00A3"/>
  <outline>
    <contour>
      <point x="106" y="324" type="line"/>
      <point x="423" y="324" type="line"/>
      <point x="417" y="295" type="line"/>
      <point x="102" y="295" type="line"/>
    </contour>
    <contour>
      <point x="514" y="492" type="line"/>
      <point x="520" y="568"/>
      <point x="501" y="677"/>
      <point x="395" y="678" type="curve" smooth="yes"/>
      <point x="308" y="679"/>
      <point x="236" y="610"/>
      <point x="222" y="532" type="curve" smooth="yes"/>
      <point x="206" y="426"/>
      <point x="302" y="364"/>
      <point x="288" y="264" type="curve" smooth="yes"/>
      <point x="270" y="156"/>
      <point x="154" y="68"/>
      <point x="92" y="16" type="curve"/>
      <point x="94" y="32" type="line"/>
      <point x="466" y="31" type="line"/>
      <point x="462" y="0" type="line"/>
      <point x="56" y="0" type="line"/>
      <point x="140" y="89"/>
      <point x="238" y="159"/>
      <point x="256" y="260" type="curve" smooth="yes"/>
      <point x="271" y="357"/>
      <point x="174" y="420"/>
      <point x="189" y="532" type="curve" smooth="yes"/>
      <point x="205" y="628"/>
      <point x="291" y="711"/>
      <point x="398" y="710" type="curve" smooth="yes"/>
      <point x="523" y="709"/>
      <point x="550" y="585"/>
      <point x="544" y="501" type="curve"/>
    </contour>
  </outline>
</glyph>
<glyph name="currency" format="2">
  <advance width="548"/>
  <unicode hex="00A4"/>
  <outline>
    <contour>
      <point x="110" y="518" type="line"/>
      <point x="135" y="538" type="line"/>
      <point x="194" y="466" type="line"/>
      <point x="170" y="446" type="line"/>
    </contour>
    <contour>
      <point x="54" y="62" type="line"/>
      <point x="36" y="84" type="line"/>
      <point x="120" y="154" type="line"/>
      <point x="138" y="133" type="line"/>
    </contour>
    <contour>
      <point x="485" y="446" type="line"/>
      <point x="466" y="467" type="line"/>
      <point x="550" y="538" type="line"/>
      <point x="568" y="516" type="line"/>
    </contour>
    <contour>
      <point x="410" y="134" type="line"/>
      <point x="434" y="154" type="line"/>
      <point x="493" y="82" type="line"/>
      <point x="470" y="62" type="line"/>
    </contour>
    <contour>
      <point x="74" y="300" type="curve" smooth="yes"/>
      <point x="94" y="430"/>
      <point x="207" y="540"/>
      <point x="338" y="540" type="curve" smooth="yes"/>
      <point x="468" y="540"/>
      <point x="542" y="424"/>
      <point x="524" y="300" type="curve" smooth="yes"/>
      <point x="504" y="170"/>
      <point x="390" y="60"/>
      <point x="259" y="60" type="curve" smooth="yes"/>
      <point x="129" y="60"/>
      <point x="56" y="176"/>
    </contour>
    <contour>
      <point x="105" y="300" type="curve" smooth="yes"/>
      <point x="89" y="193"/>
      <point x="149" y="90"/>
      <point x="262" y="90" type="curve" smooth="yes"/>
      <point x="376" y="90"/>
      <point x="474" y="187"/>
      <point x="492" y="300" type="curve" smooth="yes"/>
      <point x="508" y="407"/>
      <point x="449" y="510"/>
      <point x="336" y="510" type="curve" smooth="yes"/>
      <point x="222" y="510"/>
      <point x="123" y="413"/>
    </contour>
  </outline>
</glyph>
<glyph name="yen" format="2">
  <advance width="552"/>
  <unicode hex="00A5"/>
  <outline>
    <contour>
      <point x="53" y="276" type="line"/>
      <point x="58" y="306" type="line"/>
      <point x="524" y="306" type="line"/>
      <point x="519" y="276" type="line"/>
    </contour>
    <contour>
      <point x="30" y="144" type="line"/>
      <point x="36" y="173" type="line"/>
      <point x="502" y="173" type="line"/>
      <point x="497" y="144" type="line"/>
    </contour>
    <contour>
      <point x="564" y="699" type="line"/>
      <point x="602" y="699" type="line"/>
      <point x="300" y="276" type="line"/>
      <point x="252" y="0" type="line"/>
      <point x="220" y="0" type="line"/>
      <point x="268" y="279" type="line"/>
      <point x="118" y="700" type="line"/>
      <point x="154" y="700" type="line"/>
      <point x="289" y="310" type="line"/>
    </contour>
  </outline>
</glyph>
<glyph name="section" format="2">
  <advance width="388"/>
  <unicode hex="00A7"/>
  <outline>
    <contour>
      <point x="410" y="605" type="line"/>
      <point x="391" y="652"/>
      <point x="343" y="680"/>
      <point x="289" y="680" type="curve" smooth="yes"/>
      <point x="236" y="680"/>
      <point x="170" y="652"/>
      <point x="162" y="596" type="curve" smooth="yes"/>
      <point x="153" y="536"/>
      <point x="235" y="511"/>
      <point x="281" y="490" type="curve" smooth="yes"/>
      <point x="339" y="464"/>
      <point x="405" y="428"/>
      <point x="396" y="362" type="curve" smooth="yes"/>
      <point x="383" y="274"/>
      <point x="303" y="244"/>
      <point x="214" y="241" type="curve"/>
      <point x="216" y="250" type="line"/>
      <point x="286" y="266"/>
      <point x="354" y="296"/>
      <point x="364" y="362" type="curve" smooth="yes"/>
      <point x="372" y="420"/>
      <point x="304" y="448"/>
      <point x="256" y="468" type="curve" smooth="yes"/>
      <point x="198" y="494"/>
      <point x="121" y="522"/>
      <point x="132" y="596" type="curve" smooth="yes"/>
      <point x="143" y="669"/>
      <point x="219" y="710"/>
      <point x="291" y="710" type="curve" smooth="yes"/>
      <point x="359" y="710"/>
      <point x="417" y="676"/>
      <point x="435" y="620" type="curve"/>
    </contour>
    <contour>
      <point x="50" y="137" type="line"/>
      <point x="58" y="72"/>
      <point x="110" y="21"/>
      <point x="184" y="20" type="curve" smooth="yes"/>
      <point x="242" y="19"/>
      <point x="310" y="44"/>
      <point x="320" y="107" type="curve" smooth="yes"/>
      <point x="332" y="175"/>
      <point x="264" y="203"/>
      <point x="210" y="228" type="curve" smooth="yes"/>
      <point x="154" y="255"/>
      <point x="80" y="291"/>
      <point x="90" y="360" type="curve" smooth="yes"/>
      <point x="103" y="436"/>
      <point x="176" y="475"/>
      <point x="272" y="479" type="curve"/>
      <point x="272" y="472" type="line"/>
      <point x="198" y="454"/>
      <point x="132" y="420"/>
      <point x="122" y="362" type="curve" smooth="yes"/>
      <point x="113" y="299"/>
      <point x="186" y="270"/>
      <point x="234" y="248" type="curve" smooth="yes"/>
      <point x="294" y="220"/>
      <point x="363" y="184"/>
      <point x="352" y="108" type="curve" smooth="yes"/>
      <point x="340" y="27"/>
      <point x="260" y="-11"/>
      <point x="180" y="-10" type="curve" smooth="yes"/>
      <point x="96" y="-9"/>
      <point x="31" y="48"/>
      <point x="23" y="124" type="curve"/>
    </contour>
  </outline>
</glyph>
<glyph name="copyright" format="2">
  <advance width="776"/>
  <unicode hex="00A9"/>
  <outline>
    <contour>
      <point x="241" y="350" type="curve" smooth="yes"/>
      <point x="227" y="249"/>
      <point x="280" y="157"/>
      <point x="386" y="156" type="curve" smooth="yes"/>
      <point x="442" y="155"/>
      <point x="488" y="176"/>
      <point x="526" y="208" type="curve"/>
      <point x="522" y="182" type="line"/>
      <point x="482" y="154"/>
      <point x="440" y="135"/>
      <point x="384" y="135" type="curve" smooth="yes"/>
      <point x="267" y="136"/>
      <point x="205" y="238"/>
      <point x="220" y="350" type="curve" smooth="yes"/>
      <point x="236" y="468"/>
      <point x="330" y="564"/>
      <point x="448" y="565" type="curve" smooth="yes"/>
      <point x="502" y="565"/>
      <point x="540" y="548"/>
      <point x="574" y="518" type="curve"/>
      <point x="570" y="492" type="line"/>
      <point x="539" y="526"/>
      <point x="500" y="544"/>
      <point x="448" y="544" type="curve" smooth="yes"/>
      <point x="341" y="544"/>
      <point x="257" y="456"/>
    </contour>
    <contour>
      <point x="99" y="350" type="curve" smooth="yes"/>
      <point x="74" y="172"/>
      <point x="186" y="12"/>
      <point x="372" y="12" type="curve" smooth="yes"/>
      <point x="562" y="12"/>
      <point x="723" y="164"/>
      <point x="751" y="350" type="curve" smooth="yes"/>
      <point x="776" y="528"/>
      <point x="664" y="688"/>
      <point x="478" y="688" type="curve" smooth="yes"/>
      <point x="288" y="688"/>
      <point x="127" y="536"/>
    </contour>
    <contour>
      <point x="75" y="350" type="curve" smooth="yes"/>
      <point x="104" y="550"/>
      <point x="274" y="710"/>
      <point x="479" y="710" type="curve" smooth="yes"/>
      <point x="680" y="710"/>
      <point x="801" y="542"/>
      <point x="775" y="350" type="curve" smooth="yes"/>
      <point x="746" y="150"/>
      <point x="576" y="-10"/>
      <point x="371" y="-10" type="curve" smooth="yes"/>
      <point x="170" y="-10"/>
      <point x="49" y="158"/>
    </contour>
  </outline>
</glyph>
<glyph name="ordfeminine" format="2">
  <advance width="230"/>
  <unicode hex="00AA"/>
  <outline>
    <contour>
      <point x="102" y="529" type="curve" smooth="yes"/>
      <point x="98" y="493"/>
      <point x="119" y="471"/>
      <point x="153" y="470" type="curve" smooth="yes"/>
      <point x="197" y="469"/>
      <point x="230" y="504"/>
      <point x="242" y="542" type="curve"/>
      <point x="246" y="535" type="line"/>
      <point x="234" y="494"/>
      <point x="200" y="455"/>
      <point x="150" y="456" type="curve" smooth="yes"/>
      <point x="110" y="457"/>
      <point x="80" y="486"/>
      <point x="86" y="530" type="curve" smooth="yes"/>
      <point x="93" y="576"/>
      <point x="143" y="604"/>
      <point x="188" y="604" type="curve" smooth="yes"/>
      <point x="220" y="604"/>
      <point x="240" y="590"/>
      <point x="254" y="580" type="curve"/>
      <point x="252" y="568" type="line"/>
      <point x="236" y="580"/>
      <point x="215" y="592"/>
      <point x="188" y="592" type="curve" smooth="yes"/>
      <point x="150" y="592"/>
      <point x="108" y="567"/>
    </contour>
    <contour>
      <point x="136" y="658" type="curve"/>
      <point x="129" y="670" type="line"/>
      <point x="149" y="684"/>
      <point x="178" y="703"/>
      <point x="212" y="702" type="curve" smooth="yes"/>
      <point x="256" y="700"/>
      <point x="276" y="668"/>
      <point x="272" y="628" type="curve"/>
      <point x="242" y="460" type="line"/>
      <point x="227" y="460" type="line"/>
      <point x="257" y="628" type="line"/>
      <point x="259" y="660"/>
      <point x="248" y="685"/>
      <point x="212" y="687" type="curve" smooth="yes"/>
      <point x="182" y="689"/>
      <point x="155" y="672"/>
    </contour>
  </outline>
</glyph>
<glyph name="guillemotleft" format="2">
  <advance width="477"/>
  <unicode hex="00AB"/>
  <outline>
    <contour>
      <point x="244" y="256" type="line"/>
      <point x="390" y="38" type="line"/>
      <point x="368" y="20" type="line"/>
      <point x="210" y="256" type="line"/>
      <point x="446" y="489" type="line"/>
      <point x="464" y="471" type="line"/>
    </contour>
    <contour>
      <point x="88" y="256" type="line"/>
      <point x="234" y="38" type="line"/>
      <point x="212" y="20" type="line"/>
      <point x="55" y="256" type="line"/>
      <point x="291" y="489" type="line"/>
      <point x="309" y="471" type="line"/>
    </contour>
  </outline>
</glyph>
<glyph name="logicalnot" format="2">
  <advance width="601"/>
  <unicode hex="00AC"/>
  <outline>
    <contour>
      <point x="94" y="346" type="line"/>
      <point x="100" y="375" type="line"/>
      <point x="576" y="375" type="line"/>
      <point x="540" y="176" type="line"/>
      <point x="512" y="176" type="line"/>
      <point x="542" y="346" type="line"/>
    </contour>
  </outline>
</glyph>
<glyph name="uni00AD" format="2">
  <advance width="203"/>
  <unicode hex="00AD"/>
  <outline>
    <contour>
      <point x="20" y="246" type="line"/>
      <point x="24" y="275" type="line"/>
      <point x="220" y="275" type="line"/>
      <point x="214" y="246" type="line"/>
    </contour>
  </outline>
</glyph>
<glyph name="registered" format="2">
  <advance width="776"/>
  <unicode hex="00AE"/>
  <outline>
    <contour>
      <point x="385" y="346" type="line"/>
      <point x="407" y="346" type="line"/>
      <point x="512" y="150" type="line"/>
      <point x="488" y="150" type="line"/>
    </contour>
    <contour>
      <point x="354" y="570" type="line"/>
      <point x="374" y="570" type="line"/>
      <point x="309" y="150" type="line"/>
      <point x="289" y="150" type="line"/>
    </contour>
    <contour>
      <point x="360" y="552" type="line"/>
      <point x="363" y="570" type="line"/>
      <point x="433" y="570" type="line"/>
      <point x="507" y="568"/>
      <point x="565" y="525"/>
      <point x="554" y="450" type="curve" smooth="yes"/>
      <point x="543" y="374"/>
      <point x="474" y="334"/>
      <point x="398" y="332" type="curve"/>
      <point x="326" y="332" type="line"/>
      <point x="329" y="350" type="line"/>
      <point x="399" y="350" type="line"/>
      <point x="466" y="352"/>
      <point x="524" y="385"/>
      <point x="534" y="451" type="curve" smooth="yes"/>
      <point x="544" y="516"/>
      <point x="497" y="549"/>
      <point x="432" y="551" type="curve"/>
    </contour>
    <contour>
      <point x="99" y="350" type="curve" smooth="yes"/>
      <point x="74" y="172"/>
      <point x="186" y="12"/>
      <point x="372" y="12" type="curve" smooth="yes"/>
      <point x="562" y="12"/>
      <point x="723" y="164"/>
      <point x="751" y="350" type="curve" smooth="yes"/>
      <point x="776" y="528"/>
      <point x="664" y="688"/>
      <point x="478" y="688" type="curve" smooth="yes"/>
      <point x="288" y="688"/>
      <point x="127" y="536"/>
    </contour>
    <contour>
      <point x="75" y="350" type="curve" smooth="yes"/>
      <point x="104" y="550"/>
      <point x="274" y="710"/>
      <point x="479" y="710" type="curve" smooth="yes"/>
      <point x="680" y="710"/>
      <point x="801" y="542"/>
      <point x="775" y="350" type="curve" smooth="yes"/>
      <point x="746" y="150"/>
      <point x="576" y="-10"/>
      <point x="371" y="-10" type="curve" smooth="yes"/>
      <point x="170" y="-10"/>
      <point x="49" y="158"/>
    </contour>
  </outline>
</glyph>
<glyph name="macron" format="2">
  <advance width="494"/>
  <unicode hex="00AF"/>
  <outline>
    <contour>
      <point x="160" y="646" type="line"/>
      <point x="164" y="675" type="line"/>
      <point x="504" y="675" type="line"/>
      <point x="500" y="646" type="line"/>
    </contour>
  </outline>
</glyph>
<glyph name="degree" format="2">
  <advance width="269"/>
  <unicode hex="00B0"/>
  <outline>
    <contour>
      <point x="94" y="600" type="curve" smooth="yes"/>
      <point x="104" y="666"/>
      <point x="163" y="720"/>
      <point x="230" y="720" type="curve" smooth="yes"/>
      <point x="297" y="720"/>
      <point x="335" y="664"/>
      <point x="326" y="600" type="curve" smooth="yes"/>
      <point x="316" y="534"/>
      <point x="257" y="480"/>
      <point x="190" y="480" type="curve" smooth="yes"/>
      <point x="123" y="480"/>
      <point x="85" y="536"/>
    </contour>
    <contour>
      <point x="112" y="600" type="curve" smooth="yes"/>
      <point x="104" y="547"/>
      <point x="136" y="500"/>
      <point x="192" y="499" type="curve" smooth="yes"/>
      <point x="248" y="498"/>
      <point x="299" y="545"/>
      <point x="308" y="600" type="curve" smooth="yes"/>
      <point x="316" y="653"/>
      <point x="284" y="700"/>
      <point x="228" y="701" type="curve" smooth="yes"/>
      <point x="172" y="702"/>
      <point x="121" y="655"/>
    </contour>
  </outline>
</glyph>
<glyph name="plusminus" format="2">
  <advance width="592"/>
  <unicode hex="00B1"/>
  <outline>
    <contour>
      <point x="46" y="0" type="line"/>
      <point x="50" y="31" type="line"/>
      <point x="518" y="31" type="line"/>
      <point x="514" y="0" type="line"/>
    </contour>
    <contour>
      <point x="103" y="370" type="line"/>
      <point x="108" y="400" type="line"/>
      <point x="575" y="400" type="line"/>
      <point x="570" y="370" type="line"/>
    </contour>
    <contour>
      <point x="360" y="620" type="line"/>
      <point x="392" y="620" type="line"/>
      <point x="318" y="150" type="line"/>
      <point x="287" y="150" type="line"/>
    </contour>
  </outline>
</glyph>
<glyph name="uni00B2" format="2">
  <advance width="325"/>
  <unicode hex="00B2"/>
  <outline>
    <contour>
      <point x="48" y="283" type="line"/>
      <point x="270" y="486" type="line" smooth="yes"/>
      <point x="301" y="515"/>
      <point x="334" y="548"/>
      <point x="342" y="592" type="curve" smooth="yes"/>
      <point x="350" y="637"/>
      <point x="326" y="689"/>
      <point x="264" y="690" type="curve" smooth="yes"/>
      <point x="194" y="692"/>
      <point x="148" y="627"/>
      <point x="134" y="559" type="curve"/>
      <point x="114" y="559" type="line"/>
      <point x="130" y="637"/>
      <point x="184" y="709"/>
      <point x="266" y="708" type="curve" smooth="yes"/>
      <point x="341" y="707"/>
      <point x="369" y="645"/>
      <point x="360" y="590" type="curve" smooth="yes"/>
      <point x="352" y="543"/>
      <point x="320" y="507"/>
      <point x="286" y="475" type="curve" smooth="yes"/>
      <point x="93" y="301" type="line"/>
      <point x="323" y="300" type="line"/>
      <point x="320" y="282" type="line"/>
    </contour>
  </outline>
</glyph>
<glyph name="uni00B3" format="2">
  <advance width="299"/>
  <unicode hex="00B3"/>
  <outline>
    <contour>
      <point x="193" y="495" type="curve"/>
      <point x="195" y="508" type="line"/>
      <point x="249" y="513"/>
      <point x="311" y="541"/>
      <point x="321" y="598" type="curve" smooth="yes"/>
      <point x="329" y="644"/>
      <point x="302" y="687"/>
      <point x="248" y="688" type="curve" smooth="yes"/>
      <point x="190" y="689"/>
      <point x="152" y="646"/>
      <point x="138" y="597" type="curve"/>
      <point x="119" y="597" type="line"/>
      <point x="134" y="657"/>
      <point x="181" y="707"/>
      <point x="250" y="706" type="curve" smooth="yes"/>
      <point x="316" y="705"/>
      <point x="350" y="652"/>
      <point x="340" y="598" type="curve" smooth="yes"/>
      <point x="328" y="532"/>
      <point x="259" y="499"/>
    </contour>
    <contour>
      <point x="174" y="274" type="curve" smooth="yes"/>
      <point x="96" y="274"/>
      <point x="63" y="327"/>
      <point x="67" y="391" type="curve"/>
      <point x="86" y="391" type="line"/>
      <point x="83" y="336"/>
      <point x="109" y="294"/>
      <point x="175" y="293" type="curve" smooth="yes"/>
      <point x="235" y="292"/>
      <point x="289" y="333"/>
      <point x="297" y="388" type="curve" smooth="yes"/>
      <point x="307" y="454"/>
      <point x="246" y="485"/>
      <point x="192" y="490" type="curve"/>
      <point x="194" y="502" type="line"/>
      <point x="260" y="497"/>
      <point x="328" y="463"/>
      <point x="316" y="386" type="curve" smooth="yes"/>
      <point x="306" y="320"/>
      <point x="244" y="274"/>
    </contour>
  </outline>
</glyph>
<glyph name="mu" format="2">
  <advance width="475"/>
  <unicode hex="00B5"/>
  <outline>
    <contour>
      <point x="162" y="460" type="line"/>
      <point x="107" y="150" type="line"/>
      <point x="99" y="80"/>
      <point x="118" y="20"/>
      <point x="196" y="20" type="curve" smooth="yes"/>
      <point x="282" y="20"/>
      <point x="353" y="92"/>
      <point x="366" y="174" type="curve" smooth="yes"/>
      <point x="418" y="460" type="line"/>
      <point x="448" y="460" type="line"/>
      <point x="369" y="0" type="line"/>
      <point x="338" y="0" type="line"/>
      <point x="355" y="104" type="line"/>
      <point x="324" y="40"/>
      <point x="264" y="-10"/>
      <point x="188" y="-10" type="curve" smooth="yes"/>
      <point x="132" y="-10"/>
      <point x="105" y="19"/>
      <point x="94" y="58" type="curve"/>
      <point x="28" y="-320" type="line"/>
      <point x="-2" y="-320" type="line"/>
      <point x="131" y="460" type="line"/>
    </contour>
  </outline>
</glyph>
<glyph name="paragraph" format="2">
  <advance width="472"/>
  <unicode hex="00B6"/>
  <outline>
    <contour>
      <point x="298" y="270" type="line"/>
      <point x="176" y="277"/>
      <point x="93" y="357"/>
      <point x="113" y="486" type="curve" smooth="yes"/>
      <point x="134" y="620"/>
      <point x="243" y="700"/>
      <point x="371" y="700" type="curve" smooth="yes"/>
      <point x="508" y="700" type="line"/>
      <point x="350" y="-220" type="line"/>
      <point x="322" y="-220" type="line"/>
      <point x="475" y="674" type="line"/>
      <point x="396" y="674" type="line"/>
      <point x="242" y="-220" type="line"/>
      <point x="214" y="-220" type="line"/>
    </contour>
  </outline>
</glyph>
<glyph name="periodcentered" format="2">
  <advance width="251"/>
  <unicode hex="00B7"/>
  <outline>
    <contour>
      <point x="114" y="227" type="curve" smooth="yes"/>
      <point x="115" y="239"/>
      <point x="129" y="250"/>
      <point x="141" y="250" type="curve" smooth="yes"/>
      <point x="153" y="250"/>
      <point x="163" y="239"/>
      <point x="162" y="226" type="curve" smooth="yes"/>
      <point x="161" y="214"/>
      <point x="146" y="202"/>
      <point x="134" y="202" type="curve" smooth="yes"/>
      <point x="122" y="202"/>
      <point x="113" y="214"/>
    </contour>
  </outline>
</glyph>
<glyph name="cedilla" format="2">
  <advance width="339"/>
  <unicode hex="00B8"/>
  <outline>
    <contour>
      <point x="152" y="18" type="line"/>
      <point x="179" y="18" type="line"/>
      <point x="106" y="-68" type="line"/>
      <point x="124" y="-59"/>
      <point x="138" y="-51"/>
      <point x="159" y="-52" type="curve" smooth="yes"/>
      <point x="195" y="-54"/>
      <point x="223" y="-84"/>
      <point x="218" y="-127" type="curve" smooth="yes"/>
      <point x="211" y="-184"/>
      <point x="153" y="-220"/>
      <point x="99" y="-220" type="curve" smooth="yes"/>
      <point x="65" y="-220"/>
      <point x="43" y="-207"/>
      <point x="18" y="-182" type="curve"/>
      <point x="34" y="-166" type="line"/>
      <point x="56" y="-185"/>
      <point x="73" y="-196"/>
      <point x="101" y="-196" type="curve" smooth="yes"/>
      <point x="143" y="-196"/>
      <point x="190" y="-169"/>
      <point x="196" y="-126" type="curve" smooth="yes"/>
      <point x="200" y="-93"/>
      <point x="177" y="-72"/>
      <point x="148" y="-70" type="curve" smooth="yes"/>
      <point x="123" y="-68"/>
      <point x="94" y="-80"/>
      <point x="71" y="-93" type="curve"/>
    </contour>
  </outline>
</glyph>
<glyph name="onequarter" format="2">
  <advance width="731"/>
  <unicode hex="00BC"/>
  <outline>
    <contour>
      <point x="728" y="699" type="line"/>
      <point x="756" y="699" type="line"/>
      <point x="96" y="0" type="line"/>
      <point x="68" y="0" type="line"/>
    </contour>
    <contour>
      <point x="107" y="650" type="line"/>
      <point x="110" y="670" type="line"/>
      <point x="231" y="698" type="line"/>
      <point x="158" y="274" type="line"/>
      <point x="138" y="274" type="line"/>
      <point x="206" y="673" type="line"/>
    </contour>
    <contour>
      <point x="376" y="84" type="line"/>
      <point x="394" y="102" type="line"/>
      <point x="596" y="102" type="line"/>
      <point x="601" y="102" type="line"/>
      <point x="673" y="102" type="line"/>
      <point x="670" y="84" type="line"/>
    </contour>
    <contour>
      <point x="396" y="85" type="line"/>
      <point x="375" y="85" type="line"/>
      <point x="656" y="419" type="line"/>
      <point x="663" y="420" type="line"/>
      <point x="592" y="0" type="line"/>
      <point x="572" y="0" type="line"/>
      <point x="588" y="92" type="line"/>
      <point x="588" y="95" type="line"/>
      <point x="636" y="369" type="line"/>
    </contour>
  </outline>
</glyph>
<glyph name="onehalf" format="2">
  <advance width="794"/>
  <unicode hex="00BD"/>
  <outline>
    <contour>
      <point x="728" y="699" type="line"/>
      <point x="756" y="699" type="line"/>
      <point x="96" y="0" type="line"/>
      <point x="68" y="0" type="line"/>
    </contour>
    <contour>
      <point x="107" y="650" type="line"/>
      <point x="110" y="670" type="line"/>
      <point x="231" y="698" type="line"/>
      <point x="158" y="274" type="line"/>
      <point x="138" y="274" type="line"/>
      <point x="206" y="673" type="line"/>
    </contour>
    <contour>
      <point x="454" y="3" type="line"/>
      <point x="676" y="206" type="line" smooth="yes"/>
      <point x="707" y="235"/>
      <point x="738" y="267"/>
      <point x="746" y="311" type="curve" smooth="yes"/>
      <point x="754" y="356"/>
      <point x="731" y="408"/>
      <point x="669" y="410" type="curve" smooth="yes"/>
      <point x="599" y="412"/>
      <point x="552" y="347"/>
      <point x="538" y="279" type="curve"/>
      <point x="519" y="279" type="line"/>
      <point x="535" y="357"/>
      <point x="588" y="429"/>
      <point x="670" y="428" type="curve" smooth="yes"/>
      <point x="745" y="427"/>
      <point x="775" y="365"/>
      <point x="766" y="310" type="curve" smooth="yes"/>
      <point x="758" y="263"/>
      <point x="724" y="227"/>
      <point x="690" y="195" type="curve" smooth="yes"/>
      <point x="498" y="21" type="line"/>
      <point x="728" y="20" type="line"/>
      <point x="725" y="2" type="line"/>
    </contour>
  </outline>
</glyph>
<glyph name="threequarters" format="2">
  <advance width="795"/>
  <unicode hex="00BE"/>
  <outline>
    <contour>
      <point x="792" y="699" type="line"/>
      <point x="821" y="699" type="line"/>
      <point x="160" y="0" type="line"/>
      <point x="132" y="0" type="line"/>
    </contour>
    <contour>
      <point x="198" y="495" type="curve"/>
      <point x="200" y="508" type="line"/>
      <point x="254" y="513"/>
      <point x="316" y="541"/>
      <point x="326" y="598" type="curve" smooth="yes"/>
      <point x="334" y="644"/>
      <point x="307" y="687"/>
      <point x="253" y="688" type="curve" smooth="yes"/>
      <point x="195" y="689"/>
      <point x="156" y="646"/>
      <point x="142" y="597" type="curve"/>
      <point x="124" y="597" type="line"/>
      <point x="139" y="657"/>
      <point x="185" y="707"/>
      <point x="254" y="706" type="curve" smooth="yes"/>
      <point x="320" y="705"/>
      <point x="355" y="652"/>
      <point x="345" y="598" type="curve" smooth="yes"/>
      <point x="333" y="532"/>
      <point x="264" y="499"/>
    </contour>
    <contour>
      <point x="180" y="274" type="curve" smooth="yes"/>
      <point x="102" y="274"/>
      <point x="68" y="327"/>
      <point x="72" y="391" type="curve"/>
      <point x="92" y="391" type="line"/>
      <point x="89" y="336"/>
      <point x="114" y="294"/>
      <point x="180" y="293" type="curve" smooth="yes"/>
      <point x="240" y="292"/>
      <point x="294" y="333"/>
      <point x="302" y="388" type="curve" smooth="yes"/>
      <point x="312" y="454"/>
      <point x="252" y="485"/>
      <point x="198" y="490" type="curve"/>
      <point x="200" y="502" type="line"/>
      <point x="266" y="497"/>
      <point x="333" y="463"/>
      <point x="321" y="386" type="curve" smooth="yes"/>
      <point x="311" y="320"/>
      <point x="250" y="274"/>
    </contour>
    <contour>
      <point x="440" y="84" type="line"/>
      <point x="459" y="102" type="line"/>
      <point x="661" y="102" type="line"/>
      <point x="666" y="102" type="line"/>
      <point x="738" y="102" type="line"/>
      <point x="735" y="84" type="line"/>
    </contour>
    <contour>
      <point x="461" y="85" type="line"/>
      <point x="440" y="85" type="line"/>
      <point x="722" y="419" type="line"/>
      <point x="728" y="420" type="line"/>
      <point x="656" y="0" type="line"/>
      <point x="637" y="0" type="line"/>
      <point x="653" y="92" type="line"/>
      <point x="654" y="95" type="line"/>
      <point x="700" y="369" type="line"/>
    </contour>
  </outline>
</glyph>
<glyph name="Agrave" format="2">
  <advance width="599"/>
  <unicode hex="00C0"/>
  <outline>
    <contour>
      <point x="146" y="254" type="line"/>
      <point x="159" y="284" type="line"/>
      <point x="484" y="284" type="line"/>
      <point x="488" y="254" type="line"/>
    </contour>
    <contour>
      <point x="384" y="644" type="line"/>
      <point x="174" y="273" type="line"/>
      <point x="170" y="265" type="line"/>
      <point x="20" y="0" type="line"/>
      <point x="-17" y="0" type="line"/>
      <point x="396" y="722" type="line"/>
      <point x="561" y="0" type="line"/>
      <point x="524" y="0" type="line"/>
      <point x="468" y="263" type="line"/>
      <point x="466" y="271" type="line"/>
    </contour>
    <contour>
      <point x="302" y="936" type="line"/>
      <point x="332" y="954" type="line"/>
      <point x="465" y="794" type="line"/>
      <point x="447" y="782" type="line"/>
    </contour>
  </outline>
</glyph>
<glyph name="Aacute" format="2">
  <advance width="599"/>
  <unicode hex="00C1"/>
  <outline>
    <contour>
      <point x="146" y="254" type="line"/>
      <point x="159" y="284" type="line"/>
      <point x="484" y="284" type="line"/>
      <point x="488" y="254" type="line"/>
    </contour>
    <contour>
      <point x="384" y="644" type="line"/>
      <point x="174" y="273" type="line"/>
      <point x="170" y="265" type="line"/>
      <point x="20" y="0" type="line"/>
      <point x="-17" y="0" type="line"/>
      <point x="396" y="722" type="line"/>
      <point x="561" y="0" type="line"/>
      <point x="524" y="0" type="line"/>
      <point x="468" y="263" type="line"/>
      <point x="466" y="271" type="line"/>
    </contour>
    <contour>
      <point x="564" y="934" type="line"/>
      <point x="366" y="782" type="line"/>
      <point x="352" y="795" type="line"/>
      <point x="538" y="953" type="line"/>
    </contour>
  </outline>
</glyph>
<glyph name="Acircumflex" format="2">
  <advance width="599"/>
  <unicode hex="00C2"/>
  <outline>
    <contour>
      <point x="146" y="254" type="line"/>
      <point x="159" y="284" type="line"/>
      <point x="484" y="284" type="line"/>
      <point x="488" y="254" type="line"/>
    </contour>
    <contour>
      <point x="384" y="644" type="line"/>
      <point x="174" y="273" type="line"/>
      <point x="170" y="265" type="line"/>
      <point x="20" y="0" type="line"/>
      <point x="-17" y="0" type="line"/>
      <point x="396" y="722" type="line"/>
      <point x="561" y="0" type="line"/>
      <point x="524" y="0" type="line"/>
      <point x="468" y="263" type="line"/>
      <point x="466" y="271" type="line"/>
    </contour>
    <contour>
      <point x="426" y="892" type="line"/>
      <point x="268" y="770" type="line"/>
      <point x="250" y="787" type="line"/>
      <point x="430" y="926" type="line"/>
      <point x="562" y="786" type="line"/>
      <point x="541" y="770" type="line"/>
    </contour>
  </outline>
</glyph>
<glyph name="Atilde" format="2">
  <advance width="599"/>
  <unicode hex="00C3"/>
  <outline>
    <contour>
      <point x="146" y="254" type="line"/>
      <point x="159" y="284" type="line"/>
      <point x="484" y="284" type="line"/>
      <point x="488" y="254" type="line"/>
    </contour>
    <contour>
      <point x="384" y="644" type="line"/>
      <point x="174" y="273" type="line"/>
      <point x="170" y="265" type="line"/>
      <point x="20" y="0" type="line"/>
      <point x="-17" y="0" type="line"/>
      <point x="396" y="722" type="line"/>
      <point x="561" y="0" type="line"/>
      <point x="524" y="0" type="line"/>
      <point x="468" y="263" type="line"/>
      <point x="466" y="271" type="line"/>
    </contour>
    <contour>
      <point x="276" y="802" type="line"/>
      <point x="288" y="834"/>
      <point x="314" y="866"/>
      <point x="358" y="866" type="curve" smooth="yes"/>
      <point x="410" y="866"/>
      <point x="423" y="819"/>
      <point x="470" y="820" type="curve" smooth="yes"/>
      <point x="497" y="821"/>
      <point x="516" y="841"/>
      <point x="534" y="866" type="curve"/>
      <point x="552" y="851" type="line"/>
      <point x="532" y="821"/>
      <point x="504" y="794"/>
      <point x="467" y="794" type="curve" smooth="yes"/>
      <point x="417" y="794"/>
      <point x="399" y="841"/>
      <point x="357" y="840" type="curve" smooth="yes"/>
      <point x="321" y="839"/>
      <point x="305" y="812"/>
      <point x="296" y="790" type="curve"/>
    </contour>
  </outline>
</glyph>
<glyph name="Adieresis" format="2">
  <advance width="599"/>
  <unicode hex="00C4"/>
  <outline>
    <contour>
      <point x="146" y="254" type="line"/>
      <point x="159" y="284" type="line"/>
      <point x="484" y="284" type="line"/>
      <point x="488" y="254" type="line"/>
    </contour>
    <contour>
      <point x="384" y="644" type="line"/>
      <point x="174" y="273" type="line"/>
      <point x="170" y="265" type="line"/>
      <point x="20" y="0" type="line"/>
      <point x="-17" y="0" type="line"/>
      <point x="396" y="722" type="line"/>
      <point x="561" y="0" type="line"/>
      <point x="524" y="0" type="line"/>
      <point x="468" y="263" type="line"/>
      <point x="466" y="271" type="line"/>
    </contour>
    <contour>
      <point x="486" y="820" type="curve" smooth="yes"/>
      <point x="487" y="832"/>
      <point x="502" y="844"/>
      <point x="514" y="844" type="curve" smooth="yes"/>
      <point x="526" y="844"/>
      <point x="535" y="831"/>
      <point x="534" y="818" type="curve" smooth="yes"/>
      <point x="533" y="806"/>
      <point x="518" y="796"/>
      <point x="506" y="796" type="curve" smooth="yes"/>
      <point x="494" y="796"/>
      <point x="485" y="807"/>
    </contour>
    <contour>
      <point x="292" y="820" type="curve" smooth="yes"/>
      <point x="293" y="832"/>
      <point x="307" y="844"/>
      <point x="319" y="844" type="curve" smooth="yes"/>
      <point x="331" y="844"/>
      <point x="341" y="831"/>
      <point x="340" y="818" type="curve" smooth="yes"/>
      <point x="339" y="806"/>
      <point x="324" y="796"/>
      <point x="312" y="796" type="curve" smooth="yes"/>
      <point x="300" y="796"/>
      <point x="291" y="807"/>
    </contour>
  </outline>
</glyph>
<glyph name="Aring" format="2">
  <advance width="599"/>
  <unicode hex="00C5"/>
  <outline>
    <contour>
      <point x="146" y="254" type="line"/>
      <point x="159" y="284" type="line"/>
      <point x="484" y="284" type="line"/>
      <point x="488" y="254" type="line"/>
    </contour>
    <contour>
      <point x="384" y="644" type="line"/>
      <point x="174" y="273" type="line"/>
      <point x="170" y="265" type="line"/>
      <point x="20" y="0" type="line"/>
      <point x="-17" y="0" type="line"/>
      <point x="396" y="722" type="line"/>
      <point x="561" y="0" type="line"/>
      <point x="524" y="0" type="line"/>
      <point x="468" y="263" type="line"/>
      <point x="466" y="271" type="line"/>
    </contour>
    <contour>
      <point x="310" y="806" type="curve" smooth="yes"/>
      <point x="318" y="861"/>
      <point x="373" y="904"/>
      <point x="426" y="904" type="curve" smooth="yes"/>
      <point x="479" y="904"/>
      <point x="518" y="858"/>
      <point x="510" y="804" type="curve" smooth="yes"/>
      <point x="502" y="749"/>
      <point x="447" y="706"/>
      <point x="394" y="706" type="curve" smooth="yes"/>
      <point x="341" y="706"/>
      <point x="302" y="752"/>
    </contour>
    <contour>
      <point x="333" y="804" type="curve" smooth="yes"/>
      <point x="327" y="762"/>
      <point x="356" y="727"/>
      <point x="396" y="726" type="curve" smooth="yes"/>
      <point x="438" y="725"/>
      <point x="482" y="764"/>
      <point x="488" y="806" type="curve" smooth="yes"/>
      <point x="494" y="848"/>
      <point x="464" y="883"/>
      <point x="424" y="884" type="curve" smooth="yes"/>
      <point x="382" y="885"/>
      <point x="339" y="846"/>
    </contour>
  </outline>
</glyph>
<glyph name="AE" format="2">
  <advance width="888"/>
  <unicode hex="00C6"/>
  <outline>
    <contour>
      <point x="221" y="260" type="line"/>
      <point x="226" y="290" type="line"/>
      <point x="512" y="290" type="line"/>
      <point x="506" y="259" type="line"/>
    </contour>
    <contour>
      <point x="549" y="700" type="line"/>
      <point x="576" y="686" type="line"/>
      <point x="14" y="0" type="line"/>
      <point x="-22" y="0" type="line"/>
    </contour>
    <contour>
      <point x="466" y="0" type="line"/>
      <point x="472" y="31" type="line"/>
      <point x="792" y="31" type="line"/>
      <point x="787" y="0" type="line"/>
    </contour>
    <contour>
      <point x="587" y="669" type="line"/>
      <point x="549" y="700" type="line"/>
      <point x="906" y="700" type="line"/>
      <point x="901" y="669" type="line"/>
    </contour>
    <contour>
      <point x="530" y="371" type="line"/>
      <point x="536" y="402" type="line"/>
      <point x="836" y="402" type="line"/>
      <point x="831" y="371" type="line"/>
    </contour>
    <contour>
      <point x="568" y="700" type="line"/>
      <point x="602" y="700" type="line"/>
      <point x="480" y="0" type="line"/>
      <point x="448" y="0" type="line"/>
    </contour>
  </outline>
</glyph>
<glyph name="Ccedilla" format="2">
  <advance width="664"/>
  <unicode hex="00C7"/>
  <outline>
    <contour>
      <point x="113" y="350" type="curve" smooth="yes"/>
      <point x="88" y="184"/>
      <point x="173" y="28"/>
      <point x="348" y="26" type="curve" smooth="yes"/>
      <point x="442" y="25"/>
      <point x="519" y="61"/>
      <point x="583" y="115" type="curve"/>
      <point x="576" y="70" type="line"/>
      <point x="510" y="21"/>
      <point x="438" y="-8"/>
      <point x="344" y="-8" type="curve" smooth="yes"/>
      <point x="148" y="-7"/>
      <point x="51" y="164"/>
      <point x="78" y="350" type="curve" smooth="yes"/>
      <point x="108" y="546"/>
      <point x="266" y="707"/>
      <point x="464" y="708" type="curve" smooth="yes"/>
      <point x="553" y="708"/>
      <point x="615" y="683"/>
      <point x="671" y="630" type="curve"/>
      <point x="664" y="586" type="line"/>
      <point x="615" y="646"/>
      <point x="547" y="674"/>
      <point x="461" y="674" type="curve" smooth="yes"/>
      <point x="283" y="673"/>
      <point x="141" y="528"/>
    </contour>
    <contour>
      <point x="340" y="16" type="line"/>
      <point x="367" y="16" type="line"/>
      <point x="294" y="-70" type="line"/>
      <point x="312" y="-61"/>
      <point x="326" y="-53"/>
      <point x="347" y="-54" type="curve" smooth="yes"/>
      <point x="383" y="-56"/>
      <point x="411" y="-86"/>
      <point x="406" y="-128" type="curve" smooth="yes"/>
      <point x="399" y="-184"/>
      <point x="341" y="-220"/>
      <point x="287" y="-220" type="curve" smooth="yes"/>
      <point x="253" y="-220"/>
      <point x="231" y="-207"/>
      <point x="206" y="-182" type="curve"/>
      <point x="222" y="-167" type="line"/>
      <point x="244" y="-186"/>
      <point x="261" y="-198"/>
      <point x="289" y="-198" type="curve" smooth="yes"/>
      <point x="331" y="-198"/>
      <point x="376" y="-169"/>
      <point x="382" y="-126" type="curve" smooth="yes"/>
      <point x="386" y="-93"/>
      <point x="365" y="-74"/>
      <point x="336" y="-72" type="curve" smooth="yes"/>
      <point x="311" y="-70"/>
      <point x="282" y="-81"/>
      <point x="259" y="-94" type="curve"/>
    </contour>
  </outline>
</glyph>
<glyph name="Egrave" format="2">
  <advance width="506"/>
  <unicode hex="00C8"/>
  <outline>
    <contour>
      <point x="72" y="0" type="line"/>
      <point x="77" y="31" type="line"/>
      <point x="410" y="31" type="line"/>
      <point x="406" y="0" type="line"/>
    </contour>
    <contour>
      <point x="186" y="670" type="line"/>
      <point x="192" y="700" type="line"/>
      <point x="524" y="700" type="line"/>
      <point x="520" y="669" type="line"/>
    </contour>
    <contour>
      <point x="135" y="371" type="line"/>
      <point x="141" y="402" type="line"/>
      <point x="454" y="402" type="line"/>
      <point x="450" y="371" type="line"/>
    </contour>
    <contour>
      <point x="176" y="700" type="line"/>
      <point x="210" y="700" type="line"/>
      <point x="89" y="0" type="line"/>
      <point x="57" y="0" type="line"/>
    </contour>
    <contour>
      <point x="244" y="924" type="line"/>
      <point x="274" y="940" type="line"/>
      <point x="408" y="780" type="line"/>
      <point x="390" y="769" type="line"/>
    </contour>
  </outline>
</glyph>
<glyph name="Ecircumflex" format="2">
  <advance width="506"/>
  <unicode hex="00CA"/>
  <outline>
    <contour>
      <point x="72" y="0" type="line"/>
      <point x="77" y="31" type="line"/>
      <point x="410" y="31" type="line"/>
      <point x="406" y="0" type="line"/>
    </contour>
    <contour>
      <point x="186" y="670" type="line"/>
      <point x="192" y="700" type="line"/>
      <point x="524" y="700" type="line"/>
      <point x="520" y="669" type="line"/>
    </contour>
    <contour>
      <point x="135" y="371" type="line"/>
      <point x="141" y="402" type="line"/>
      <point x="454" y="402" type="line"/>
      <point x="450" y="371" type="line"/>
    </contour>
    <contour>
      <point x="176" y="700" type="line"/>
      <point x="210" y="700" type="line"/>
      <point x="89" y="0" type="line"/>
      <point x="57" y="0" type="line"/>
    </contour>
    <contour>
      <point x="388" y="891" type="line"/>
      <point x="230" y="769" type="line"/>
      <point x="212" y="787" type="line"/>
      <point x="391" y="926" type="line"/>
      <point x="524" y="786" type="line"/>
      <point x="502" y="768" type="line"/>
    </contour>
  </outline>
</glyph>
<glyph name="Edieresis" format="2">
  <advance width="506"/>
  <unicode hex="00CB"/>
  <outline>
    <contour>
      <point x="72" y="0" type="line"/>
      <point x="77" y="31" type="line"/>
      <point x="410" y="31" type="line"/>
      <point x="406" y="0" type="line"/>
    </contour>
    <contour>
      <point x="186" y="670" type="line"/>
      <point x="192" y="700" type="line"/>
      <point x="524" y="700" type="line"/>
      <point x="520" y="669" type="line"/>
    </contour>
    <contour>
      <point x="135" y="371" type="line"/>
      <point x="141" y="402" type="line"/>
      <point x="454" y="402" type="line"/>
      <point x="450" y="371" type="line"/>
    </contour>
    <contour>
      <point x="176" y="700" type="line"/>
      <point x="210" y="700" type="line"/>
      <point x="89" y="0" type="line"/>
      <point x="57" y="0" type="line"/>
    </contour>
    <contour>
      <point x="446" y="814" type="curve" smooth="yes"/>
      <point x="447" y="826"/>
      <point x="462" y="836"/>
      <point x="474" y="836" type="curve" smooth="yes"/>
      <point x="486" y="836"/>
      <point x="495" y="825"/>
      <point x="494" y="812" type="curve" smooth="yes"/>
      <point x="493" y="800"/>
      <point x="478" y="788"/>
      <point x="466" y="788" type="curve" smooth="yes"/>
      <point x="454" y="788"/>
      <point x="445" y="801"/>
    </contour>
    <contour>
      <point x="252" y="814" type="curve" smooth="yes"/>
      <point x="253" y="826"/>
      <point x="267" y="836"/>
      <point x="279" y="836" type="curve" smooth="yes"/>
      <point x="291" y="836"/>
      <point x="301" y="825"/>
      <point x="300" y="812" type="curve" smooth="yes"/>
      <point x="299" y="800"/>
      <point x="284" y="788"/>
      <point x="272" y="788" type="curve" smooth="yes"/>
      <point x="260" y="788"/>
      <point x="251" y="801"/>
    </contour>
  </outline>
</glyph>
<glyph name="Igrave" format="2">
  <advance width="193"/>
  <unicode hex="00CC"/>
  <outline>
    <contour>
      <point x="174" y="700" type="line"/>
      <point x="206" y="700" type="line"/>
      <point x="85" y="0" type="line"/>
      <point x="54" y="0" type="line"/>
    </contour>
    <contour>
      <point x="83" y="924" type="line"/>
      <point x="113" y="940" type="line"/>
      <point x="246" y="780" type="line"/>
      <point x="228" y="769" type="line"/>
    </contour>
  </outline>
</glyph>
<glyph name="Icircumflex" format="2">
  <advance width="193"/>
  <unicode hex="00CE"/>
  <outline>
    <contour>
      <point x="174" y="700" type="line"/>
      <point x="206" y="700" type="line"/>
      <point x="85" y="0" type="line"/>
      <point x="54" y="0" type="line"/>
    </contour>
    <contour>
      <point x="223" y="891" type="line"/>
      <point x="65" y="769" type="line"/>
      <point x="48" y="787" type="line"/>
      <point x="227" y="926" type="line"/>
      <point x="360" y="786" type="line"/>
      <point x="338" y="768" type="line"/>
    </contour>
  </outline>
</glyph>
<glyph name="Idieresis" format="2">
  <advance width="193"/>
  <unicode hex="00CF"/>
  <outline>
    <contour>
      <point x="174" y="700" type="line"/>
      <point x="206" y="700" type="line"/>
      <point x="85" y="0" type="line"/>
      <point x="54" y="0" type="line"/>
    </contour>
    <contour>
      <point x="260" y="808" type="curve" smooth="yes"/>
      <point x="261" y="820"/>
      <point x="275" y="830"/>
      <point x="287" y="830" type="curve" smooth="yes"/>
      <point x="299" y="830"/>
      <point x="309" y="819"/>
      <point x="308" y="806" type="curve" smooth="yes"/>
      <point x="307" y="794"/>
      <point x="292" y="782"/>
      <point x="280" y="782" type="curve" smooth="yes"/>
      <point x="268" y="782"/>
      <point x="259" y="796"/>
    </contour>
    <contour>
      <point x="107" y="808" type="curve" smooth="yes"/>
      <point x="108" y="820"/>
      <point x="122" y="830"/>
      <point x="134" y="830" type="curve" smooth="yes"/>
      <point x="146" y="830"/>
      <point x="155" y="819"/>
      <point x="154" y="806" type="curve" smooth="yes"/>
      <point x="153" y="794"/>
      <point x="139" y="782"/>
      <point x="127" y="782" type="curve" smooth="yes"/>
      <point x="115" y="782"/>
      <point x="106" y="796"/>
    </contour>
  </outline>
</glyph>
<glyph name="Eth" format="2">
  <advance width="659"/>
  <unicode hex="00D0"/>
  <outline>
    <contour>
      <point x="34" y="334" type="line"/>
      <point x="40" y="364" type="line"/>
      <point x="332" y="364" type="line"/>
      <point x="326" y="334" type="line"/>
    </contour>
    <contour>
      <point x="176" y="700" type="line"/>
      <point x="210" y="700" type="line"/>
      <point x="89" y="0" type="line"/>
      <point x="57" y="0" type="line"/>
    </contour>
    <contour>
      <point x="228" y="0" type="curve"/>
      <point x="74" y="0" type="line"/>
      <point x="80" y="33" type="line"/>
      <point x="232" y="33" type="line"/>
      <point x="418" y="36"/>
      <point x="554" y="170"/>
      <point x="584" y="350" type="curve" smooth="yes"/>
      <point x="611" y="522"/>
      <point x="525" y="663"/>
      <point x="342" y="667" type="curve"/>
      <point x="188" y="667" type="line"/>
      <point x="193" y="700" type="line"/>
      <point x="345" y="700" type="line"/>
      <point x="546" y="696"/>
      <point x="645" y="540"/>
      <point x="617" y="350" type="curve" smooth="yes"/>
      <point x="586" y="152"/>
      <point x="432" y="3"/>
    </contour>
  </outline>
</glyph>
<glyph name="Ntilde" format="2">
  <advance width="677"/>
  <unicode hex="00D1"/>
  <outline>
    <contour>
      <point x="667" y="700" type="line"/>
      <point x="700" y="700" type="line"/>
      <point x="576" y="-20" type="line"/>
      <point x="171" y="631" type="line"/>
      <point x="62" y="0" type="line"/>
      <point x="29" y="0" type="line"/>
      <point x="153" y="720" type="line"/>
      <point x="558" y="66" type="line"/>
    </contour>
    <contour>
      <point x="305" y="768" type="line"/>
      <point x="317" y="800"/>
      <point x="344" y="832"/>
      <point x="388" y="832" type="curve" smooth="yes"/>
      <point x="437" y="832"/>
      <point x="453" y="785"/>
      <point x="500" y="786" type="curve" smooth="yes"/>
      <point x="527" y="787"/>
      <point x="545" y="807"/>
      <point x="563" y="832" type="curve"/>
      <point x="581" y="817" type="line"/>
      <point x="561" y="787"/>
      <point x="533" y="760"/>
      <point x="496" y="760" type="curve" smooth="yes"/>
      <point x="450" y="760"/>
      <point x="428" y="806"/>
      <point x="386" y="806" type="curve" smooth="yes"/>
      <point x="350" y="806"/>
      <point x="333" y="778"/>
      <point x="325" y="756" type="curve"/>
    </contour>
  </outline>
</glyph>
<glyph name="Otilde" format="2">
  <advance width="755"/>
  <unicode hex="00D5"/>
  <outline>
    <contour>
      <point x="112" y="350" type="curve" smooth="yes"/>
      <point x="87" y="183"/>
      <point x="174" y="25"/>
      <point x="354" y="24" type="curve" smooth="yes"/>
      <point x="536" y="23"/>
      <point x="680" y="174"/>
      <point x="708" y="350" type="curve" smooth="yes"/>
      <point x="733" y="517"/>
      <point x="648" y="675"/>
      <point x="468" y="676" type="curve" smooth="yes"/>
      <point x="286" y="677"/>
      <point x="140" y="526"/>
    </contour>
    <contour>
      <point x="78" y="350" type="curve" smooth="yes"/>
      <point x="108" y="546"/>
      <point x="270" y="708"/>
      <point x="470" y="708" type="curve" smooth="yes"/>
      <point x="668" y="708"/>
      <point x="771" y="536"/>
      <point x="744" y="350" type="curve" smooth="yes"/>
      <point x="714" y="154"/>
      <point x="551" y="-8"/>
      <point x="351" y="-8" type="curve" smooth="yes"/>
      <point x="153" y="-8"/>
      <point x="51" y="164"/>
    </contour>
    <contour>
      <point x="352" y="795" type="line"/>
      <point x="358" y="827"/>
      <point x="396" y="859"/>
      <point x="436" y="859" type="curve" smooth="yes"/>
      <point x="485" y="859"/>
      <point x="501" y="812"/>
      <point x="548" y="813" type="curve" smooth="yes"/>
      <point x="575" y="814"/>
      <point x="594" y="835"/>
      <point x="612" y="860" type="curve"/>
      <point x="628" y="845" type="line"/>
      <point x="608" y="815"/>
      <point x="581" y="787"/>
      <point x="544" y="787" type="curve" smooth="yes"/>
      <point x="498" y="787"/>
      <point x="477" y="833"/>
      <point x="435" y="833" type="curve" smooth="yes"/>
      <point x="398" y="833"/>
      <point x="381" y="805"/>
      <point x="372" y="783" type="curve"/>
    </contour>
  </outline>
</glyph>
<glyph name="Odieresis" format="2">
  <advance width="755"/>
  <unicode hex="00D6"/>
  <outline>
    <contour>
      <point x="112" y="350" type="curve" smooth="yes"/>
      <point x="87" y="183"/>
      <point x="174" y="25"/>
      <point x="354" y="24" type="curve" smooth="yes"/>
      <point x="536" y="23"/>
      <point x="680" y="174"/>
      <point x="708" y="350" type="curve" smooth="yes"/>
      <point x="733" y="517"/>
      <point x="648" y="675"/>
      <point x="468" y="676" type="curve" smooth="yes"/>
      <point x="286" y="677"/>
      <point x="140" y="526"/>
    </contour>
    <contour>
      <point x="78" y="350" type="curve" smooth="yes"/>
      <point x="108" y="546"/>
      <point x="270" y="708"/>
      <point x="470" y="708" type="curve" smooth="yes"/>
      <point x="668" y="708"/>
      <point x="771" y="536"/>
      <point x="744" y="350" type="curve" smooth="yes"/>
      <point x="714" y="154"/>
      <point x="551" y="-8"/>
      <point x="351" y="-8" type="curve" smooth="yes"/>
      <point x="153" y="-8"/>
      <point x="51" y="164"/>
    </contour>
    <contour>
      <point x="570" y="814" type="curve" smooth="yes"/>
      <point x="571" y="826"/>
      <point x="585" y="838"/>
      <point x="597" y="838" type="curve" smooth="yes"/>
      <point x="609" y="838"/>
      <point x="618" y="827"/>
      <point x="617" y="814" type="curve" smooth="yes"/>
      <point x="616" y="802"/>
      <point x="602" y="790"/>
      <point x="590" y="790" type="curve" smooth="yes"/>
      <point x="578" y="790"/>
      <point x="569" y="801"/>
    </contour>
    <contour>
      <point x="362" y="814" type="curve" smooth="yes"/>
      <point x="363" y="826"/>
      <point x="377" y="838"/>
      <point x="389" y="838" type="curve" smooth="yes"/>
      <point x="401" y="838"/>
      <point x="410" y="827"/>
      <point x="409" y="814" type="curve" smooth="yes"/>
      <point x="408" y="802"/>
      <point x="394" y="790"/>
      <point x="382" y="790" type="curve" smooth="yes"/>
      <point x="370" y="790"/>
      <point x="361" y="801"/>
    </contour>
  </outline>
</glyph>
<glyph name="multiply" format="2">
  <advance width="565"/>
  <unicode hex="00D7"/>
  <outline>
    <contour>
      <point x="75" y="40" type="line"/>
      <point x="56" y="62" type="line"/>
      <point x="281" y="255" type="line"/>
      <point x="123" y="450" type="line"/>
      <point x="146" y="470" type="line"/>
      <point x="302" y="274" type="line"/>
      <point x="524" y="470" type="line"/>
      <point x="543" y="448" type="line"/>
      <point x="318" y="254" type="line"/>
      <point x="476" y="60" type="line"/>
      <point x="452" y="39" type="line"/>
      <point x="297" y="234" type="line"/>
    </contour>
  </outline>
</glyph>
<glyph name="Ugrave" format="2">
  <advance width="573"/>
  <unicode hex="00D9"/>
  <outline>
    <contour>
      <point x="172" y="700" type="line"/>
      <point x="204" y="700" type="line"/>
      <point x="122" y="223" type="line" smooth="yes"/>
      <point x="108" y="116"/>
      <point x="147" y="23"/>
      <point x="262" y="22" type="curve" smooth="yes"/>
      <point x="378" y="21"/>
      <point x="453" y="111"/>
      <point x="472" y="223" type="curve"/>
      <point x="554" y="700" type="line"/>
      <point x="588" y="700" type="line"/>
      <point x="506" y="223" type="line" smooth="yes"/>
      <point x="484" y="94"/>
      <point x="397" y="-10"/>
      <point x="260" y="-10" type="curve" smooth="yes"/>
      <point x="124" y="-10"/>
      <point x="74" y="99"/>
      <point x="90" y="223" type="curve"/>
    </contour>
    <contour>
      <point x="287" y="924" type="line"/>
      <point x="316" y="940" type="line"/>
      <point x="450" y="780" type="line"/>
      <point x="432" y="769" type="line"/>
    </contour>
  </outline>
</glyph>
<glyph name="Uacute" format="2">
  <advance width="573"/>
  <unicode hex="00DA"/>
  <outline>
    <contour>
      <point x="172" y="700" type="line"/>
      <point x="204" y="700" type="line"/>
      <point x="122" y="223" type="line" smooth="yes"/>
      <point x="108" y="116"/>
      <point x="147" y="23"/>
      <point x="262" y="22" type="curve" smooth="yes"/>
      <point x="378" y="21"/>
      <point x="453" y="111"/>
      <point x="472" y="223" type="curve"/>
      <point x="554" y="700" type="line"/>
      <point x="588" y="700" type="line"/>
      <point x="506" y="223" type="line" smooth="yes"/>
      <point x="484" y="94"/>
      <point x="397" y="-10"/>
      <point x="260" y="-10" type="curve" smooth="yes"/>
      <point x="124" y="-10"/>
      <point x="74" y="99"/>
      <point x="90" y="223" type="curve"/>
    </contour>
    <contour>
      <point x="548" y="922" type="line"/>
      <point x="351" y="769" type="line"/>
      <point x="336" y="782" type="line"/>
      <point x="523" y="940" type="line"/>
    </contour>
  </outline>
</glyph>
<glyph name="Ucircumflex" format="2">
  <advance width="573"/>
  <unicode hex="00DB"/>
  <outline>
    <contour>
      <point x="172" y="700" type="line"/>
      <point x="204" y="700" type="line"/>
      <point x="122" y="223" type="line" smooth="yes"/>
      <point x="108" y="116"/>
      <point x="147" y="23"/>
      <point x="262" y="22" type="curve" smooth="yes"/>
      <point x="378" y="21"/>
      <point x="453" y="111"/>
      <point x="472" y="223" type="curve"/>
      <point x="554" y="700" type="line"/>
      <point x="588" y="700" type="line"/>
      <point x="506" y="223" type="line" smooth="yes"/>
      <point x="484" y="94"/>
      <point x="397" y="-10"/>
      <point x="260" y="-10" type="curve" smooth="yes"/>
      <point x="124" y="-10"/>
      <point x="74" y="99"/>
      <point x="90" y="223" type="curve"/>
    </contour>
    <contour>
      <point x="413" y="891" type="line"/>
      <point x="255" y="769" type="line"/>
      <point x="238" y="787" type="line"/>
      <point x="417" y="926" type="line"/>
      <point x="550" y="786" type="line"/>
      <point x="528" y="768" type="line"/>
    </contour>
  </outline>
</glyph>
<glyph name="Udieresis" format="2">
  <advance width="573"/>
  <unicode hex="00DC"/>
  <outline>
    <contour>
      <point x="172" y="700" type="line"/>
      <point x="204" y="700" type="line"/>
      <point x="122" y="223" type="line" smooth="yes"/>
      <point x="108" y="116"/>
      <point x="147" y="23"/>
      <point x="262" y="22" type="curve" smooth="yes"/>
      <point x="378" y="21"/>
      <point x="453" y="111"/>
      <point x="472" y="223" type="curve"/>
      <point x="554" y="700" type="line"/>
      <point x="588" y="700" type="line"/>
      <point x="506" y="223" type="line" smooth="yes"/>
      <point x="484" y="94"/>
      <point x="397" y="-10"/>
      <point x="260" y="-10" type="curve" smooth="yes"/>
      <point x="124" y="-10"/>
      <point x="74" y="99"/>
      <point x="90" y="223" type="curve"/>
    </contour>
    <contour>
      <point x="462" y="794" type="curve" smooth="yes"/>
      <point x="463" y="806"/>
      <point x="477" y="816"/>
      <point x="489" y="816" type="curve" smooth="yes"/>
      <point x="501" y="816"/>
      <point x="510" y="805"/>
      <point x="509" y="792" type="curve" smooth="yes"/>
      <point x="508" y="780"/>
      <point x="494" y="768"/>
      <point x="482" y="768" type="curve" smooth="yes"/>
      <point x="470" y="768"/>
      <point x="461" y="781"/>
    </contour>
    <contour>
      <point x="281" y="794" type="curve" smooth="yes"/>
      <point x="282" y="806"/>
      <point x="296" y="816"/>
      <point x="308" y="816" type="curve" smooth="yes"/>
      <point x="320" y="816"/>
      <point x="329" y="805"/>
      <point x="328" y="792" type="curve" smooth="yes"/>
      <point x="327" y="780"/>
      <point x="313" y="768"/>
      <point x="301" y="768" type="curve" smooth="yes"/>
      <point x="289" y="768"/>
      <point x="280" y="781"/>
    </contour>
  </outline>
</glyph>
<glyph name="Yacute" format="2">
  <advance width="507"/>
  <unicode hex="00DD"/>
  <outline>
    <contour>
      <point x="529" y="922" type="line"/>
      <point x="332" y="769" type="line"/>
      <point x="317" y="782" type="line"/>
      <point x="504" y="940" type="line"/>
    </contour>
    <contour>
      <point x="552" y="699" type="line"/>
      <point x="590" y="699" type="line"/>
      <point x="286" y="277" type="line"/>
      <point x="239" y="0" type="line"/>
      <point x="206" y="0" type="line"/>
      <point x="255" y="278" type="line"/>
      <point x="104" y="700" type="line"/>
      <point x="140" y="700" type="line"/>
      <point x="275" y="310" type="line"/>
    </contour>
  </outline>
</glyph>
<glyph name="Thorn" format="2">
  <advance width="513"/>
  <unicode hex="00DE"/>
  <outline>
    <contour>
      <point x="170" y="700" type="line"/>
      <point x="202" y="700" type="line"/>
      <point x="81" y="0" type="line"/>
      <point x="50" y="0" type="line"/>
    </contour>
    <contour>
      <point x="156" y="529" type="line"/>
      <point x="162" y="560" type="line"/>
      <point x="309" y="560" type="line"/>
      <point x="436" y="558"/>
      <point x="526" y="474"/>
      <point x="506" y="350" type="curve" smooth="yes"/>
      <point x="486" y="224"/>
      <point x="372" y="142"/>
      <point x="240" y="140" type="curve"/>
      <point x="90" y="140" type="line"/>
      <point x="96" y="171" type="line"/>
      <point x="242" y="171" type="line"/>
      <point x="354" y="174"/>
      <point x="455" y="244"/>
      <point x="473" y="350" type="curve" smooth="yes"/>
      <point x="491" y="458"/>
      <point x="414" y="525"/>
      <point x="306" y="528" type="curve"/>
    </contour>
  </outline>
</glyph>
<glyph name="germandbls" format="2">
  <advance width="540"/>
  <unicode hex="00DF"/>
  <outline>
    <contour>
      <point x="302" y="-10" type="curve" smooth="yes"/>
      <point x="244" y="-10"/>
      <point x="186" y="13"/>
      <point x="153" y="49" type="curve"/>
      <point x="172" y="71" type="line"/>
      <point x="204" y="39"/>
      <point x="254" y="19"/>
      <point x="304" y="19" type="curve" smooth="yes"/>
      <point x="400" y="19"/>
      <point x="472" y="109"/>
      <point x="472" y="213" type="curve" smooth="yes"/>
      <point x="472" y="362"/>
      <point x="318" y="326"/>
      <point x="318" y="422" type="curve" smooth="yes"/>
      <point x="318" y="502"/>
      <point x="480" y="519"/>
      <point x="480" y="650" type="curve" smooth="yes"/>
      <point x="480" y="720"/>
      <point x="427" y="765"/>
      <point x="358" y="765" type="curve" smooth="yes"/>
      <point x="268" y="765"/>
      <point x="196" y="686"/>
      <point x="180" y="582" type="curve" smooth="yes"/>
      <point x="80" y="0" type="line"/>
      <point x="49" y="0" type="line"/>
      <point x="148" y="586" type="line" smooth="yes"/>
      <point x="166" y="700"/>
      <point x="250" y="794"/>
      <point x="362" y="794" type="curve" smooth="yes"/>
      <point x="448" y="794"/>
      <point x="512" y="739"/>
      <point x="512" y="652" type="curve" smooth="yes"/>
      <point x="512" y="502"/>
      <point x="352" y="491"/>
      <point x="352" y="421" type="curve" smooth="yes"/>
      <point x="352" y="347"/>
      <point x="504" y="378"/>
      <point x="504" y="217" type="curve" smooth="yes"/>
      <point x="504" y="91"/>
      <point x="416" y="-10"/>
    </contour>
  </outline>
</glyph>
<glyph name="atilde" format="2">
  <advance width="533"/>
  <unicode hex="00E3"/>
  <outline>
    <contour>
      <point x="482" y="460" type="line"/>
      <point x="511" y="460" type="line"/>
      <point x="431" y="0" type="line"/>
      <point x="402" y="0" type="line"/>
    </contour>
    <contour>
      <point x="52" y="230" type="curve" smooth="yes"/>
      <point x="72" y="363"/>
      <point x="176" y="471"/>
      <point x="304" y="470" type="curve" smooth="yes"/>
      <point x="428" y="469"/>
      <point x="471" y="342"/>
      <point x="455" y="230" type="curve" smooth="yes"/>
      <point x="437" y="110"/>
      <point x="348" y="-10"/>
      <point x="224" y="-10" type="curve" smooth="yes"/>
      <point x="96" y="-10"/>
      <point x="35" y="104"/>
    </contour>
    <contour>
      <point x="84" y="230" type="curve" smooth="yes"/>
      <point x="68" y="120"/>
      <point x="119" y="19"/>
      <point x="231" y="20" type="curve" smooth="yes"/>
      <point x="335" y="21"/>
      <point x="424" y="125"/>
      <point x="441" y="230" type="curve" smooth="yes"/>
      <point x="455" y="328"/>
      <point x="409" y="438"/>
      <point x="306" y="440" type="curve" smooth="yes"/>
      <point x="194" y="442"/>
      <point x="102" y="346"/>
    </contour>
    <contour>
      <point x="191" y="557" type="line"/>
      <point x="193" y="589"/>
      <point x="238" y="620"/>
      <point x="274" y="620" type="curve" smooth="yes"/>
      <point x="323" y="620"/>
      <point x="339" y="573"/>
      <point x="386" y="574" type="curve" smooth="yes"/>
      <point x="413" y="575"/>
      <point x="432" y="597"/>
      <point x="450" y="622" type="curve"/>
      <point x="468" y="606" type="line"/>
      <point x="448" y="576"/>
      <point x="420" y="548"/>
      <point x="383" y="548" type="curve" smooth="yes"/>
      <point x="337" y="548"/>
      <point x="315" y="595"/>
      <point x="273" y="594" type="curve" smooth="yes"/>
      <point x="237" y="593"/>
      <point x="221" y="566"/>
      <point x="212" y="544" type="curve"/>
    </contour>
  </outline>
</glyph>
<glyph name="adieresis" format="2">
  <advance width="533"/>
  <unicode hex="00E4"/>
  <outline>
    <contour>
      <point x="482" y="460" type="line"/>
      <point x="511" y="460" type="line"/>
      <point x="431" y="0" type="line"/>
      <point x="402" y="0" type="line"/>
    </contour>
    <contour>
      <point x="52" y="230" type="curve" smooth="yes"/>
      <point x="72" y="363"/>
      <point x="176" y="471"/>
      <point x="304" y="470" type="curve" smooth="yes"/>
      <point x="428" y="469"/>
      <point x="471" y="342"/>
      <point x="455" y="230" type="curve" smooth="yes"/>
      <point x="437" y="110"/>
      <point x="348" y="-10"/>
      <point x="224" y="-10" type="curve" smooth="yes"/>
      <point x="96" y="-10"/>
      <point x="35" y="104"/>
    </contour>
    <contour>
      <point x="84" y="230" type="curve" smooth="yes"/>
      <point x="68" y="120"/>
      <point x="119" y="19"/>
      <point x="231" y="20" type="curve" smooth="yes"/>
      <point x="335" y="21"/>
      <point x="424" y="125"/>
      <point x="441" y="230" type="curve" smooth="yes"/>
      <point x="455" y="328"/>
      <point x="409" y="438"/>
      <point x="306" y="440" type="curve" smooth="yes"/>
      <point x="194" y="442"/>
      <point x="102" y="346"/>
    </contour>
    <contour>
      <point x="411" y="590" type="curve" smooth="yes"/>
      <point x="412" y="602"/>
      <point x="426" y="614"/>
      <point x="438" y="614" type="curve" smooth="yes"/>
      <point x="450" y="614"/>
      <point x="459" y="601"/>
      <point x="458" y="588" type="curve" smooth="yes"/>
      <point x="457" y="576"/>
      <point x="443" y="566"/>
      <point x="431" y="566" type="curve" smooth="yes"/>
      <point x="419" y="566"/>
      <point x="410" y="577"/>
    </contour>
    <contour>
      <point x="217" y="590" type="curve" smooth="yes"/>
      <point x="218" y="602"/>
      <point x="232" y="614"/>
      <point x="244" y="614" type="curve" smooth="yes"/>
      <point x="256" y="614"/>
      <point x="265" y="601"/>
      <point x="264" y="588" type="curve" smooth="yes"/>
      <point x="263" y="576"/>
      <point x="249" y="566"/>
      <point x="237" y="566" type="curve" smooth="yes"/>
      <point x="225" y="566"/>
      <point x="216" y="577"/>
    </contour>
  </outline>
</glyph>
<glyph name="aring" format="2">
  <advance width="533"/>
  <unicode hex="00E5"/>
  <outline>
    <contour>
      <point x="482" y="460" type="line"/>
      <point x="511" y="460" type="line"/>
      <point x="431" y="0" type="line"/>
      <point x="402" y="0" type="line"/>
    </contour>
    <contour>
      <point x="52" y="230" type="curve" smooth="yes"/>
      <point x="72" y="363"/>
      <point x="176" y="471"/>
      <point x="304" y="470" type="curve" smooth="yes"/>
      <point x="428" y="469"/>
      <point x="471" y="342"/>
      <point x="455" y="230" type="curve" smooth="yes"/>
      <point x="437" y="110"/>
      <point x="348" y="-10"/>
      <point x="224" y="-10" type="curve" smooth="yes"/>
      <point x="96" y="-10"/>
      <point x="35" y="104"/>
    </contour>
    <contour>
      <point x="84" y="230" type="curve" smooth="yes"/>
      <point x="68" y="120"/>
      <point x="119" y="19"/>
      <point x="231" y="20" type="curve" smooth="yes"/>
      <point x="335" y="21"/>
      <point x="424" y="125"/>
      <point x="441" y="230" type="curve" smooth="yes"/>
      <point x="455" y="328"/>
      <point x="409" y="438"/>
      <point x="306" y="440" type="curve" smooth="yes"/>
      <point x="194" y="442"/>
      <point x="102" y="346"/>
    </contour>
    <contour>
      <point x="231" y="630" type="curve" smooth="yes"/>
      <point x="239" y="685"/>
      <point x="293" y="729"/>
      <point x="346" y="729" type="curve" smooth="yes"/>
      <point x="399" y="729"/>
      <point x="438" y="683"/>
      <point x="430" y="629" type="curve" smooth="yes"/>
      <point x="422" y="574"/>
      <point x="367" y="530"/>
      <point x="314" y="530" type="curve" smooth="yes"/>
      <point x="261" y="530"/>
      <point x="223" y="576"/>
    </contour>
    <contour>
      <point x="252" y="630" type="curve" smooth="yes"/>
      <point x="246" y="588"/>
      <point x="276" y="553"/>
      <point x="316" y="552" type="curve" smooth="yes"/>
      <point x="358" y="551"/>
      <point x="402" y="588"/>
      <point x="408" y="630" type="curve" smooth="yes"/>
      <point x="414" y="672"/>
      <point x="385" y="707"/>
      <point x="345" y="708" type="curve" smooth="yes"/>
      <point x="303" y="709"/>
      <point x="258" y="672"/>
    </contour>
  </outline>
</glyph>
<glyph name="ae" format="2">
  <advance width="817"/>
  <unicode hex="00E6"/>
  <outline>
    <contour>
      <point x="165" y="-10" type="curve" smooth="yes"/>
      <point x="69" y="-10"/>
      <point x="15" y="49"/>
      <point x="25" y="128" type="curve" smooth="yes"/>
      <point x="35" y="218"/>
      <point x="120" y="282"/>
      <point x="234" y="282" type="curve" smooth="yes"/>
      <point x="290" y="282"/>
      <point x="335" y="266"/>
      <point x="371" y="233" type="curve"/>
      <point x="356" y="232" type="line"/>
      <point x="370" y="317" type="line" smooth="yes"/>
      <point x="383" y="399"/>
      <point x="351" y="442"/>
      <point x="281" y="442" type="curve" smooth="yes"/>
      <point x="229" y="442"/>
      <point x="170" y="420"/>
      <point x="124" y="382" type="curve"/>
      <point x="109" y="406" type="line"/>
      <point x="160" y="446"/>
      <point x="222" y="470"/>
      <point x="282" y="470" type="curve" smooth="yes"/>
      <point x="374" y="470"/>
      <point x="411" y="414"/>
      <point x="390" y="304" type="curve"/>
      <point x="382" y="300" type="line"/>
      <point x="420" y="398"/>
      <point x="514" y="470"/>
      <point x="620" y="470" type="curve" smooth="yes"/>
      <point x="730" y="470"/>
      <point x="806" y="380"/>
      <point x="792" y="258" type="curve" smooth="yes"/>
      <point x="791" y="243"/>
      <point x="789" y="235"/>
      <point x="784" y="222" type="curve"/>
      <point x="376" y="222" type="line"/>
      <point x="386" y="230" type="line"/>
      <point x="365" y="106"/>
      <point x="419" y="20"/>
      <point x="531" y="20" type="curve" smooth="yes"/>
      <point x="609" y="20"/>
      <point x="682" y="57"/>
      <point x="734" y="124" type="curve"/>
      <point x="759" y="107" type="line"/>
      <point x="704" y="32"/>
      <point x="618" y="-10"/>
      <point x="530" y="-10" type="curve" smooth="yes"/>
      <point x="424" y="-10"/>
      <point x="364" y="49"/>
      <point x="357" y="158" type="curve"/>
      <point x="365" y="158" type="line"/>
      <point x="335" y="52"/>
      <point x="262" y="-10"/>
    </contour>
    <contour>
      <point x="170" y="18" type="curve" smooth="yes"/>
      <point x="260" y="18"/>
      <point x="327" y="82"/>
      <point x="357" y="196" type="curve"/>
      <point x="351" y="160" type="line"/>
      <point x="355" y="228" type="line"/>
      <point x="358" y="215" type="line"/>
      <point x="332" y="241"/>
      <point x="287" y="257"/>
      <point x="234" y="257" type="curve" smooth="yes"/>
      <point x="140" y="257"/>
      <point x="66" y="207"/>
      <point x="56" y="132" type="curve" smooth="yes"/>
      <point x="47" y="64"/>
      <point x="92" y="18"/>
    </contour>
    <contour>
      <point x="387" y="237" type="curve"/>
      <point x="378" y="250" type="line"/>
      <point x="768" y="250" type="line"/>
      <point x="755" y="239" type="line"/>
      <point x="757" y="243"/>
      <point x="758" y="248"/>
      <point x="759" y="256" type="curve" smooth="yes"/>
      <point x="773" y="362"/>
      <point x="715" y="442"/>
      <point x="613" y="442" type="curve" smooth="yes"/>
      <point x="504" y="442"/>
      <point x="409" y="353"/>
    </contour>
  </outline>
</glyph>
<glyph name="ccedilla" format="2">
  <advance width="470"/>
  <unicode hex="00E7"/>
  <outline>
    <contour>
      <point x="78" y="230" type="curve" smooth="yes"/>
      <point x="61" y="121"/>
      <point x="124" y="21"/>
      <point x="239" y="20" type="curve" smooth="yes"/>
      <point x="308" y="20"/>
      <point x="367" y="54"/>
      <point x="403" y="87" type="curve"/>
      <point x="397" y="48" type="line"/>
      <point x="359" y="18"/>
      <point x="301" y="-10"/>
      <point x="236" y="-10" type="curve" smooth="yes"/>
      <point x="103" y="-10"/>
      <point x="30" y="104"/>
      <point x="48" y="230" type="curve" smooth="yes"/>
      <point x="68" y="362"/>
      <point x="182" y="470"/>
      <point x="316" y="470" type="curve" smooth="yes"/>
      <point x="377" y="470"/>
      <point x="429" y="445"/>
      <point x="459" y="412" type="curve"/>
      <point x="453" y="373" type="line"/>
      <point x="429" y="410"/>
      <point x="377" y="440"/>
      <point x="313" y="440" type="curve" smooth="yes"/>
      <point x="197" y="440"/>
      <point x="97" y="345"/>
    </contour>
    <contour>
      <point x="232" y="15" type="line"/>
      <point x="258" y="15" type="line"/>
      <point x="186" y="-70" type="line"/>
      <point x="204" y="-61"/>
      <point x="217" y="-53"/>
      <point x="238" y="-54" type="curve" smooth="yes"/>
      <point x="274" y="-56"/>
      <point x="303" y="-87"/>
      <point x="298" y="-129" type="curve" smooth="yes"/>
      <point x="291" y="-185"/>
      <point x="232" y="-222"/>
      <point x="178" y="-222" type="curve" smooth="yes"/>
      <point x="144" y="-222"/>
      <point x="123" y="-209"/>
      <point x="98" y="-184" type="curve"/>
      <point x="114" y="-168" type="line"/>
      <point x="136" y="-187"/>
      <point x="153" y="-198"/>
      <point x="181" y="-198" type="curve" smooth="yes"/>
      <point x="223" y="-198"/>
      <point x="268" y="-171"/>
      <point x="274" y="-128" type="curve" smooth="yes"/>
      <point x="278" y="-95"/>
      <point x="256" y="-76"/>
      <point x="227" y="-74" type="curve" smooth="yes"/>
      <point x="202" y="-72"/>
      <point x="173" y="-83"/>
      <point x="150" y="-96" type="curve"/>
    </contour>
  </outline>
</glyph>
<glyph name="egrave" format="2">
  <advance width="490"/>
  <unicode hex="00E8"/>
  <outline>
    <contour>
      <point x="76" y="222" type="line"/>
      <point x="80" y="250" type="line"/>
      <point x="436" y="250" type="line"/>
      <point x="452" y="344"/>
      <point x="405" y="440"/>
      <point x="302" y="441" type="curve" smooth="yes"/>
      <point x="196" y="442"/>
      <point x="108" y="351"/>
      <point x="90" y="241" type="curve"/>
      <point x="88" y="232" type="line"/>
      <point x="76" y="126"/>
      <point x="119" y="22"/>
      <point x="228" y="20" type="curve" smooth="yes"/>
      <point x="318" y="19"/>
      <point x="376" y="72"/>
      <point x="418" y="123" type="curve"/>
      <point x="440" y="106" type="line"/>
      <point x="391" y="48"/>
      <point x="331" y="-10"/>
      <point x="223" y="-10" type="curve" smooth="yes"/>
      <point x="99" y="-9"/>
      <point x="42" y="112"/>
      <point x="57" y="232" type="curve" smooth="yes"/>
      <point x="61" y="256"/>
      <point x="67" y="278"/>
      <point x="76" y="300" type="curve" smooth="yes"/>
      <point x="112" y="394"/>
      <point x="198" y="470"/>
      <point x="303" y="470" type="curve" smooth="yes"/>
      <point x="420" y="469"/>
      <point x="484" y="364"/>
      <point x="470" y="248" type="curve" smooth="yes"/>
      <point x="469" y="240"/>
      <point x="466" y="230"/>
      <point x="464" y="222" type="curve"/>
    </contour>
    <contour>
      <point x="185" y="688" type="line"/>
      <point x="214" y="705" type="line"/>
      <point x="350" y="545" type="line"/>
      <point x="332" y="533" type="line"/>
    </contour>
  </outline>
</glyph>
<glyph name="edieresis" format="2">
  <advance width="490"/>
  <unicode hex="00EB"/>
  <outline>
    <contour>
      <point x="76" y="222" type="line"/>
      <point x="80" y="250" type="line"/>
      <point x="436" y="250" type="line"/>
      <point x="452" y="344"/>
      <point x="405" y="440"/>
      <point x="302" y="441" type="curve" smooth="yes"/>
      <point x="196" y="442"/>
      <point x="108" y="351"/>
      <point x="90" y="241" type="curve"/>
      <point x="88" y="232" type="line"/>
      <point x="76" y="126"/>
      <point x="119" y="22"/>
      <point x="228" y="20" type="curve" smooth="yes"/>
      <point x="318" y="19"/>
      <point x="376" y="72"/>
      <point x="418" y="123" type="curve"/>
      <point x="440" y="106" type="line"/>
      <point x="391" y="48"/>
      <point x="331" y="-10"/>
      <point x="223" y="-10" type="curve" smooth="yes"/>
      <point x="99" y="-9"/>
      <point x="42" y="112"/>
      <point x="57" y="232" type="curve" smooth="yes"/>
      <point x="61" y="256"/>
      <point x="67" y="278"/>
      <point x="76" y="300" type="curve" smooth="yes"/>
      <point x="112" y="394"/>
      <point x="198" y="470"/>
      <point x="303" y="470" type="curve" smooth="yes"/>
      <point x="420" y="469"/>
      <point x="484" y="364"/>
      <point x="470" y="248" type="curve" smooth="yes"/>
      <point x="469" y="240"/>
      <point x="466" y="230"/>
      <point x="464" y="222" type="curve"/>
    </contour>
    <contour>
      <point x="387" y="554" type="curve" smooth="yes"/>
      <point x="388" y="566"/>
      <point x="402" y="578"/>
      <point x="414" y="578" type="curve" smooth="yes"/>
      <point x="426" y="578"/>
      <point x="436" y="567"/>
      <point x="435" y="554" type="curve" smooth="yes"/>
      <point x="434" y="542"/>
      <point x="420" y="530"/>
      <point x="408" y="530" type="curve" smooth="yes"/>
      <point x="396" y="530"/>
      <point x="386" y="541"/>
    </contour>
    <contour>
      <point x="193" y="554" type="curve" smooth="yes"/>
      <point x="194" y="566"/>
      <point x="208" y="578"/>
      <point x="220" y="578" type="curve" smooth="yes"/>
      <point x="232" y="578"/>
      <point x="242" y="567"/>
      <point x="241" y="554" type="curve" smooth="yes"/>
      <point x="240" y="542"/>
      <point x="226" y="530"/>
      <point x="214" y="530" type="curve" smooth="yes"/>
      <point x="202" y="530"/>
      <point x="192" y="541"/>
    </contour>
  </outline>
</glyph>
<glyph name="iacute" format="2">
  <advance width="204"/>
  <unicode hex="00ED"/>
  <outline>
    <contour>
      <point x="139" y="460" type="line"/>
      <point x="170" y="460" type="line"/>
      <point x="90" y="0" type="line"/>
      <point x="60" y="0" type="line"/>
    </contour>
    <contour>
      <point x="346" y="690" type="line"/>
      <point x="150" y="537" type="line"/>
      <point x="134" y="550" type="line"/>
      <point x="320" y="708" type="line"/>
    </contour>
  </outline>
</glyph>
<glyph name="icircumflex" format="2">
  <advance width="204"/>
  <unicode hex="00EE"/>
  <outline>
    <contour>
      <point x="139" y="460" type="line"/>
      <point x="170" y="460" type="line"/>
      <point x="90" y="0" type="line"/>
      <point x="60" y="0" type="line"/>
    </contour>
    <contour>
      <point x="188" y="656" type="line"/>
      <point x="31" y="534" type="line"/>
      <point x="14" y="551" type="line"/>
      <point x="192" y="690" type="line"/>
      <point x="325" y="550" type="line"/>
      <point x="304" y="534" type="line"/>
    </contour>
  </outline>
</glyph>
<glyph name="idieresis" format="2">
  <advance width="204"/>
  <unicode hex="00EF"/>
  <outline>
    <contour>
      <point x="139" y="460" type="line"/>
      <point x="170" y="460" type="line"/>
      <point x="90" y="0" type="line"/>
      <point x="60" y="0" type="line"/>
    </contour>
    <contour>
      <point x="232" y="564" type="curve" smooth="yes"/>
      <point x="233" y="576"/>
      <point x="246" y="588"/>
      <point x="258" y="588" type="curve" smooth="yes"/>
      <point x="270" y="588"/>
      <point x="280" y="575"/>
      <point x="279" y="562" type="curve" smooth="yes"/>
      <point x="278" y="550"/>
      <point x="264" y="540"/>
      <point x="252" y="540" type="curve" smooth="yes"/>
      <point x="240" y="540"/>
      <point x="231" y="551"/>
    </contour>
    <contour>
      <point x="64" y="564" type="curve" smooth="yes"/>
      <point x="65" y="576"/>
      <point x="80" y="588"/>
      <point x="92" y="588" type="curve" smooth="yes"/>
      <point x="104" y="588"/>
      <point x="113" y="575"/>
      <point x="112" y="562" type="curve" smooth="yes"/>
      <point x="111" y="550"/>
      <point x="96" y="540"/>
      <point x="84" y="540" type="curve" smooth="yes"/>
      <point x="72" y="540"/>
      <point x="63" y="551"/>
    </contour>
  </outline>
</glyph>
<glyph name="eth" format="2">
  <advance width="548"/>
  <unicode hex="00F0"/>
  <outline>
    <contour>
      <point x="244" y="-10" type="curve" smooth="yes"/>
      <point x="124" y="-10"/>
      <point x="52" y="67"/>
      <point x="52" y="188" type="curve" smooth="yes"/>
      <point x="52" y="325"/>
      <point x="176" y="443"/>
      <point x="299" y="443" type="curve" smooth="yes"/>
      <point x="369" y="443"/>
      <point x="424" y="416"/>
      <point x="465" y="364" type="curve"/>
      <point x="452" y="364" type="line"/>
      <point x="403" y="475"/>
      <point x="372" y="528"/>
      <point x="264" y="686" type="curve"/>
      <point x="283" y="708" type="line"/>
      <point x="470" y="422"/>
      <point x="507" y="354"/>
      <point x="507" y="262" type="curve" smooth="yes"/>
      <point x="508" y="120"/>
      <point x="385" y="-10"/>
    </contour>
    <contour>
      <point x="246" y="20" type="curve" smooth="yes"/>
      <point x="364" y="20"/>
      <point x="474" y="135"/>
      <point x="474" y="255" type="curve" smooth="yes"/>
      <point x="474" y="345"/>
      <point x="413" y="418"/>
      <point x="303" y="418" type="curve" smooth="yes"/>
      <point x="194" y="418"/>
      <point x="83" y="307"/>
      <point x="83" y="188" type="curve" smooth="yes"/>
      <point x="83" y="87"/>
      <point x="148" y="20"/>
    </contour>
    <contour>
      <point x="232" y="515" type="line"/>
      <point x="225" y="536" type="line"/>
      <point x="495" y="645" type="line"/>
      <point x="502" y="624" type="line"/>
    </contour>
  </outline>
</glyph>
<glyph name="ntilde" format="2">
  <advance width="475"/>
  <unicode hex="00F1"/>
  <outline>
    <contour>
      <point x="162" y="460" type="line"/>
      <point x="82" y="0" type="line"/>
      <point x="51" y="0" type="line"/>
      <point x="131" y="460" type="line"/>
    </contour>
    <contour>
      <point x="392" y="308" type="line" smooth="yes"/>
      <point x="401" y="378"/>
      <point x="384" y="439"/>
      <point x="304" y="440" type="curve" smooth="yes"/>
      <point x="216" y="441"/>
      <point x="149" y="361"/>
      <point x="130" y="281" type="curve"/>
      <point x="115" y="281" type="line"/>
      <point x="135" y="379"/>
      <point x="210" y="470"/>
      <point x="312" y="470" type="curve" smooth="yes"/>
      <point x="406" y="470"/>
      <point x="433" y="397"/>
      <point x="422" y="311" type="curve"/>
      <point x="368" y="0" type="line"/>
      <point x="338" y="0" type="line"/>
    </contour>
    <contour>
      <point x="172" y="557" type="line"/>
      <point x="184" y="589"/>
      <point x="210" y="620"/>
      <point x="254" y="620" type="curve" smooth="yes"/>
      <point x="303" y="620"/>
      <point x="320" y="573"/>
      <point x="367" y="574" type="curve" smooth="yes"/>
      <point x="394" y="575"/>
      <point x="412" y="597"/>
      <point x="430" y="622" type="curve"/>
      <point x="448" y="606" type="line"/>
      <point x="428" y="576"/>
      <point x="400" y="548"/>
      <point x="363" y="548" type="curve" smooth="yes"/>
      <point x="317" y="548"/>
      <point x="296" y="594"/>
      <point x="254" y="594" type="curve" smooth="yes"/>
      <point x="218" y="594"/>
      <point x="200" y="566"/>
      <point x="192" y="544" type="curve"/>
    </contour>
  </outline>
</glyph>
<glyph name="ograve" format="2">
  <advance width="536"/>
  <unicode hex="00F2"/>
  <outline>
    <contour>
      <point x="52" y="230" type="curve" smooth="yes"/>
      <point x="72" y="362"/>
      <point x="186" y="470"/>
      <point x="320" y="470" type="curve" smooth="yes"/>
      <point x="453" y="470"/>
      <point x="526" y="356"/>
      <point x="508" y="230" type="curve" smooth="yes"/>
      <point x="488" y="98"/>
      <point x="374" y="-10"/>
      <point x="240" y="-10" type="curve" smooth="yes"/>
      <point x="107" y="-10"/>
      <point x="34" y="104"/>
    </contour>
    <contour>
      <point x="84" y="230" type="curve" smooth="yes"/>
      <point x="67" y="121"/>
      <point x="128" y="20"/>
      <point x="243" y="20" type="curve" smooth="yes"/>
      <point x="359" y="20"/>
      <point x="460" y="115"/>
      <point x="478" y="230" type="curve" smooth="yes"/>
      <point x="495" y="339"/>
      <point x="433" y="440"/>
      <point x="318" y="440" type="curve" smooth="yes"/>
      <point x="202" y="440"/>
      <point x="102" y="345"/>
    </contour>
    <contour>
      <point x="220" y="692" type="line"/>
      <point x="250" y="708" type="line"/>
      <point x="383" y="548" type="line"/>
      <point x="366" y="536" type="line"/>
    </contour>
  </outline>
</glyph>
<glyph name="ocircumflex" format="2">
  <advance width="536"/>
  <unicode hex="00F4"/>
  <outline>
    <contour>
      <point x="52" y="230" type="curve" smooth="yes"/>
      <point x="72" y="362"/>
      <point x="186" y="470"/>
      <point x="320" y="470" type="curve" smooth="yes"/>
      <point x="453" y="470"/>
      <point x="526" y="356"/>
      <point x="508" y="230" type="curve" smooth="yes"/>
      <point x="488" y="98"/>
      <point x="374" y="-10"/>
      <point x="240" y="-10" type="curve" smooth="yes"/>
      <point x="107" y="-10"/>
      <point x="34" y="104"/>
    </contour>
    <contour>
      <point x="84" y="230" type="curve" smooth="yes"/>
      <point x="67" y="121"/>
      <point x="128" y="20"/>
      <point x="243" y="20" type="curve" smooth="yes"/>
      <point x="359" y="20"/>
      <point x="460" y="115"/>
      <point x="478" y="230" type="curve" smooth="yes"/>
      <point x="495" y="339"/>
      <point x="433" y="440"/>
      <point x="318" y="440" type="curve" smooth="yes"/>
      <point x="202" y="440"/>
      <point x="102" y="345"/>
    </contour>
    <contour>
      <point x="357" y="672" type="line"/>
      <point x="199" y="551" type="line"/>
      <point x="182" y="568" type="line"/>
      <point x="361" y="706" type="line"/>
      <point x="494" y="566" type="line"/>
      <point x="472" y="550" type="line"/>
    </contour>
  </outline>
</glyph>
<glyph name="otilde" format="2">
  <advance width="536"/>
  <unicode hex="00F5"/>
  <outline>
    <contour>
      <point x="52" y="230" type="curve" smooth="yes"/>
      <point x="72" y="362"/>
      <point x="186" y="470"/>
      <point x="320" y="470" type="curve" smooth="yes"/>
      <point x="453" y="470"/>
      <point x="526" y="356"/>
      <point x="508" y="230" type="curve" smooth="yes"/>
      <point x="488" y="98"/>
      <point x="374" y="-10"/>
      <point x="240" y="-10" type="curve" smooth="yes"/>
      <point x="107" y="-10"/>
      <point x="34" y="104"/>
    </contour>
    <contour>
      <point x="84" y="230" type="curve" smooth="yes"/>
      <point x="67" y="121"/>
      <point x="128" y="20"/>
      <point x="243" y="20" type="curve" smooth="yes"/>
      <point x="359" y="20"/>
      <point x="460" y="115"/>
      <point x="478" y="230" type="curve" smooth="yes"/>
      <point x="495" y="339"/>
      <point x="433" y="440"/>
      <point x="318" y="440" type="curve" smooth="yes"/>
      <point x="202" y="440"/>
      <point x="102" y="345"/>
    </contour>
    <contour>
      <point x="202" y="557" type="line"/>
      <point x="198" y="589"/>
      <point x="253" y="620"/>
      <point x="285" y="620" type="curve" smooth="yes"/>
      <point x="334" y="620"/>
      <point x="351" y="573"/>
      <point x="398" y="574" type="curve" smooth="yes"/>
      <point x="425" y="575"/>
      <point x="443" y="597"/>
      <point x="461" y="622" type="curve"/>
      <point x="479" y="606" type="line"/>
      <point x="459" y="576"/>
      <point x="431" y="548"/>
      <point x="394" y="548" type="curve" smooth="yes"/>
      <point x="348" y="548"/>
      <point x="326" y="595"/>
      <point x="284" y="594" type="curve" smooth="yes"/>
      <point x="248" y="593"/>
      <point x="232" y="566"/>
      <point x="223" y="544" type="curve"/>
    </contour>
  </outline>
</glyph>
<glyph name="odieresis" format="2">
  <advance width="536"/>
  <unicode hex="00F6"/>
  <outline>
    <contour>
      <point x="52" y="230" type="curve" smooth="yes"/>
      <point x="72" y="362"/>
      <point x="186" y="470"/>
      <point x="320" y="470" type="curve" smooth="yes"/>
      <point x="453" y="470"/>
      <point x="526" y="356"/>
      <point x="508" y="230" type="curve" smooth="yes"/>
      <point x="488" y="98"/>
      <point x="374" y="-10"/>
      <point x="240" y="-10" type="curve" smooth="yes"/>
      <point x="107" y="-10"/>
      <point x="34" y="104"/>
    </contour>
    <contour>
      <point x="84" y="230" type="curve" smooth="yes"/>
      <point x="67" y="121"/>
      <point x="128" y="20"/>
      <point x="243" y="20" type="curve" smooth="yes"/>
      <point x="359" y="20"/>
      <point x="460" y="115"/>
      <point x="478" y="230" type="curve" smooth="yes"/>
      <point x="495" y="339"/>
      <point x="433" y="440"/>
      <point x="318" y="440" type="curve" smooth="yes"/>
      <point x="202" y="440"/>
      <point x="102" y="345"/>
    </contour>
    <contour>
      <point x="413" y="578" type="curve" smooth="yes"/>
      <point x="414" y="590"/>
      <point x="428" y="602"/>
      <point x="440" y="602" type="curve" smooth="yes"/>
      <point x="452" y="602"/>
      <point x="461" y="589"/>
      <point x="460" y="576" type="curve" smooth="yes"/>
      <point x="459" y="564"/>
      <point x="445" y="554"/>
      <point x="433" y="554" type="curve" smooth="yes"/>
      <point x="421" y="554"/>
      <point x="412" y="565"/>
    </contour>
    <contour>
      <point x="219" y="578" type="curve" smooth="yes"/>
      <point x="220" y="590"/>
      <point x="234" y="602"/>
      <point x="246" y="602" type="curve" smooth="yes"/>
      <point x="258" y="602"/>
      <point x="267" y="589"/>
      <point x="266" y="576" type="curve" smooth="yes"/>
      <point x="265" y="564"/>
      <point x="251" y="554"/>
      <point x="239" y="554" type="curve" smooth="yes"/>
      <point x="227" y="554"/>
      <point x="218" y="565"/>
    </contour>
  </outline>
</glyph>
<glyph name="divide" format="2">
  <advance width="604"/>
  <unicode hex="00F7"/>
  <outline>
    <contour>
      <point x="327" y="451" type="curve" smooth="yes"/>
      <point x="328" y="463"/>
      <point x="342" y="474"/>
      <point x="354" y="474" type="curve" smooth="yes"/>
      <point x="366" y="474"/>
      <point x="375" y="463"/>
      <point x="374" y="450" type="curve" smooth="yes"/>
      <point x="373" y="438"/>
      <point x="359" y="426"/>
      <point x="347" y="426" type="curve" smooth="yes"/>
      <point x="335" y="426"/>
      <point x="326" y="438"/>
    </contour>
    <contour>
      <point x="257" y="43" type="curve" smooth="yes"/>
      <point x="258" y="55"/>
      <point x="272" y="66"/>
      <point x="284" y="66" type="curve" smooth="yes"/>
      <point x="296" y="66"/>
      <point x="306" y="55"/>
      <point x="305" y="42" type="curve" smooth="yes"/>
      <point x="304" y="30"/>
      <point x="290" y="18"/>
      <point x="278" y="18" type="curve" smooth="yes"/>
      <point x="266" y="18"/>
      <point x="256" y="30"/>
    </contour>
    <contour>
      <point x="71" y="232" type="line"/>
      <point x="76" y="263" type="line"/>
      <point x="562" y="263" type="line"/>
      <point x="556" y="232" type="line"/>
    </contour>
  </outline>
</glyph>
<glyph name="oslash" format="2">
  <advance width="529"/>
  <unicode hex="00F8"/>
  <outline>
    <contour>
      <point x="52" y="230" type="curve" smooth="yes"/>
      <point x="72" y="362"/>
      <point x="186" y="470"/>
      <point x="320" y="470" type="curve" smooth="yes"/>
      <point x="453" y="470"/>
      <point x="526" y="356"/>
      <point x="508" y="230" type="curve" smooth="yes"/>
      <point x="488" y="98"/>
      <point x="374" y="-10"/>
      <point x="240" y="-10" type="curve" smooth="yes"/>
      <point x="107" y="-10"/>
      <point x="34" y="104"/>
    </contour>
    <contour>
      <point x="84" y="230" type="curve" smooth="yes"/>
      <point x="67" y="121"/>
      <point x="128" y="20"/>
      <point x="243" y="20" type="curve" smooth="yes"/>
      <point x="359" y="20"/>
      <point x="460" y="115"/>
      <point x="478" y="230" type="curve" smooth="yes"/>
      <point x="495" y="339"/>
      <point x="433" y="440"/>
      <point x="318" y="440" type="curve" smooth="yes"/>
      <point x="202" y="440"/>
      <point x="102" y="345"/>
    </contour>
    <contour>
      <point x="496" y="494" type="line"/>
      <point x="515" y="484" type="line"/>
      <point x="46" y="-38" type="line"/>
      <point x="28" y="-28" type="line"/>
    </contour>
  </outline>
</glyph>
<glyph name="ucircumflex" format="2">
  <advance width="475"/>
  <unicode hex="00FB"/>
  <outline>
    <contour>
      <point x="338" y="0" type="line"/>
      <point x="418" y="460" type="line"/>
      <point x="448" y="460" type="line"/>
      <point x="369" y="0" type="line"/>
    </contour>
    <contour>
      <point x="110" y="159" type="line" smooth="yes"/>
      <point x="101" y="86"/>
      <point x="114" y="21"/>
      <point x="196" y="20" type="curve" smooth="yes"/>
      <point x="284" y="19"/>
      <point x="351" y="99"/>
      <point x="370" y="179" type="curve"/>
      <point x="385" y="179" type="line"/>
      <point x="365" y="81"/>
      <point x="290" y="-11"/>
      <point x="188" y="-10" type="curve" smooth="yes"/>
      <point x="92" y="-10"/>
      <point x="67" y="66"/>
      <point x="78" y="156" type="curve"/>
      <point x="132" y="460" type="line"/>
      <point x="162" y="460" type="line"/>
    </contour>
    <contour>
      <point x="326" y="666" type="line"/>
      <point x="167" y="544" type="line"/>
      <point x="150" y="561" type="line"/>
      <point x="330" y="700" type="line"/>
      <point x="462" y="560" type="line"/>
      <point x="440" y="544" type="line"/>
    </contour>
  </outline>
</glyph>
<glyph name="udieresis" format="2">
  <advance width="475"/>
  <unicode hex="00FC"/>
  <outline>
    <contour>
      <point x="338" y="0" type="line"/>
      <point x="418" y="460" type="line"/>
      <point x="448" y="460" type="line"/>
      <point x="369" y="0" type="line"/>
    </contour>
    <contour>
      <point x="110" y="159" type="line" smooth="yes"/>
      <point x="101" y="86"/>
      <point x="114" y="21"/>
      <point x="196" y="20" type="curve" smooth="yes"/>
      <point x="284" y="19"/>
      <point x="351" y="99"/>
      <point x="370" y="179" type="curve"/>
      <point x="385" y="179" type="line"/>
      <point x="365" y="81"/>
      <point x="290" y="-11"/>
      <point x="188" y="-10" type="curve" smooth="yes"/>
      <point x="92" y="-10"/>
      <point x="67" y="66"/>
      <point x="78" y="156" type="curve"/>
      <point x="132" y="460" type="line"/>
      <point x="162" y="460" type="line"/>
    </contour>
    <contour>
      <point x="368" y="575" type="curve" smooth="yes"/>
      <point x="369" y="587"/>
      <point x="384" y="598"/>
      <point x="396" y="598" type="curve" smooth="yes"/>
      <point x="408" y="597"/>
      <point x="417" y="587"/>
      <point x="416" y="574" type="curve" smooth="yes"/>
      <point x="415" y="562"/>
      <point x="400" y="550"/>
      <point x="388" y="550" type="curve" smooth="yes"/>
      <point x="376" y="550"/>
      <point x="367" y="563"/>
    </contour>
    <contour>
      <point x="201" y="575" type="curve" smooth="yes"/>
      <point x="202" y="587"/>
      <point x="216" y="598"/>
      <point x="228" y="598" type="curve" smooth="yes"/>
      <point x="240" y="597"/>
      <point x="249" y="587"/>
      <point x="248" y="574" type="curve" smooth="yes"/>
      <point x="247" y="562"/>
      <point x="234" y="550"/>
      <point x="222" y="550" type="curve" smooth="yes"/>
      <point x="210" y="550"/>
      <point x="200" y="563"/>
    </contour>
  </outline>
</glyph>
<glyph name="yacute" format="2">
  <advance width="416"/>
  <unicode hex="00FD"/>
  <outline>
    <contour>
      <point x="462" y="460" type="line"/>
      <point x="54" y="-220" type="line"/>
      <point x="20" y="-219" type="line"/>
      <point x="173" y="35" type="line"/>
      <point x="58" y="460" type="line"/>
      <point x="94" y="460" type="line"/>
      <point x="200" y="44" type="line"/>
      <point x="184" y="46" type="line"/>
      <point x="428" y="460" type="line"/>
    </contour>
    <contour>
      <point x="443" y="690" type="line"/>
      <point x="247" y="537" type="line"/>
      <point x="231" y="550" type="line"/>
      <point x="418" y="708" type="line"/>
    </contour>
  </outline>
</glyph>
<glyph name="ydieresis" format="2">
  <advance width="416"/>
  <unicode hex="00FF"/>
  <outline>
    <contour>
      <point x="462" y="460" type="line"/>
      <point x="54" y="-220" type="line"/>
      <point x="20" y="-219" type="line"/>
      <point x="173" y="35" type="line"/>
      <point x="58" y="460" type="line"/>
      <point x="94" y="460" type="line"/>
      <point x="200" y="44" type="line"/>
      <point x="184" y="46" type="line"/>
      <point x="428" y="460" type="line"/>
    </contour>
    <contour>
      <point x="338" y="568" type="curve" smooth="yes"/>
      <point x="339" y="580"/>
      <point x="353" y="592"/>
      <point x="365" y="592" type="curve" smooth="yes"/>
      <point x="377" y="592"/>
      <point x="387" y="581"/>
      <point x="386" y="568" type="curve" smooth="yes"/>
      <point x="385" y="556"/>
      <point x="370" y="544"/>
      <point x="358" y="544" type="curve" smooth="yes"/>
      <point x="346" y="545"/>
      <point x="337" y="555"/>
    </contour>
    <contour>
      <point x="172" y="568" type="curve" smooth="yes"/>
      <point x="173" y="580"/>
      <point x="186" y="592"/>
      <point x="198" y="592" type="curve" smooth="yes"/>
      <point x="210" y="592"/>
      <point x="220" y="581"/>
      <point x="219" y="568" type="curve" smooth="yes"/>
      <point x="218" y="556"/>
      <point x="202" y="544"/>
      <point x="190" y="544" type="curve" smooth="yes"/>
      <point x="178" y="545"/>
      <point x="171" y="555"/>
    </contour>
  </outline>
</glyph>
<glyph name="Amacron" format="2">
  <advance width="599"/>
  <unicode hex="0100"/>
  <outline>
    <contour>
      <point x="146" y="254" type="line"/>
      <point x="159" y="284" type="line"/>
      <point x="484" y="284" type="line"/>
      <point x="488" y="254" type="line"/>
    </contour>
    <contour>
      <point x="384" y="644" type="line"/>
      <point x="174" y="273" type="line"/>
      <point x="170" y="265" type="line"/>
      <point x="20" y="0" type="line"/>
      <point x="-17" y="0" type="line"/>
      <point x="396" y="722" type="line"/>
      <point x="561" y="0" type="line"/>
      <point x="524" y="0" type="line"/>
      <point x="468" y="263" type="line"/>
      <point x="466" y="271" type="line"/>
    </contour>
    <contour>
      <point x="239" y="796" type="line"/>
      <point x="244" y="824" type="line"/>
      <point x="584" y="824" type="line"/>
      <point x="579" y="795" type="line"/>
    </contour>
  </outline>
</glyph>
<glyph name="Abreve" format="2">
  <advance width="599"/>
  <unicode hex="0102"/>
  <outline>
    <contour>
      <point x="146" y="254" type="line"/>
      <point x="159" y="284" type="line"/>
      <point x="484" y="284" type="line"/>
      <point x="488" y="254" type="line"/>
    </contour>
    <contour>
      <point x="384" y="644" type="line"/>
      <point x="174" y="273" type="line"/>
      <point x="170" y="265" type="line"/>
      <point x="20" y="0" type="line"/>
      <point x="-17" y="0" type="line"/>
      <point x="396" y="722" type="line"/>
      <point x="561" y="0" type="line"/>
      <point x="524" y="0" type="line"/>
      <point x="468" y="263" type="line"/>
      <point x="466" y="271" type="line"/>
    </contour>
    <contour>
      <point x="278" y="928" type="curve"/>
      <point x="306" y="928" type="line"/>
      <point x="301" y="870"/>
      <point x="332" y="815"/>
      <point x="410" y="815" type="curve" smooth="yes"/>
      <point x="490" y="815"/>
      <point x="539" y="871"/>
      <point x="557" y="927" type="curve"/>
      <point x="586" y="927" type="line"/>
      <point x="566" y="855"/>
      <point x="506" y="788"/>
      <point x="408" y="788" type="curve" smooth="yes"/>
      <point x="312" y="788"/>
      <point x="272" y="854"/>
    </contour>
  </outline>
</glyph>
<glyph name="Aogonek" format="2">
  <advance width="599"/>
  <unicode hex="0104"/>
  <outline>
    <contour>
      <point x="146" y="254" type="line"/>
      <point x="160" y="284" type="line"/>
      <point x="484" y="284" type="line"/>
      <point x="488" y="254" type="line"/>
    </contour>
    <contour>
      <point x="384" y="644" type="line"/>
      <point x="174" y="273" type="line"/>
      <point x="170" y="265" type="line"/>
      <point x="20" y="0" type="line"/>
      <point x="-17" y="0" type="line"/>
      <point x="396" y="722" type="line"/>
      <point x="561" y="0" type="line"/>
      <point x="524" y="0" type="line"/>
      <point x="468" y="263" type="line"/>
      <point x="466" y="271" type="line"/>
    </contour>
    <contour>
      <point x="558" y="-160" type="curve"/>
      <point x="570" y="-181" type="line"/>
      <point x="547" y="-201"/>
      <point x="511" y="-220"/>
      <point x="471" y="-220" type="curve" smooth="yes"/>
      <point x="411" y="-220"/>
      <point x="370" y="-187"/>
      <point x="378" y="-134" type="curve" smooth="yes"/>
      <point x="389" y="-62"/>
      <point x="478" y="-19"/>
      <point x="546" y="14" type="curve"/>
      <point x="562" y="0" type="line"/>
      <point x="502" y="-28"/>
      <point x="419" y="-68"/>
      <point x="410" y="-128" type="curve" smooth="yes"/>
      <point x="405" y="-168"/>
      <point x="435" y="-191"/>
      <point x="475" y="-192" type="curve" smooth="yes"/>
      <point x="508" y="-193"/>
      <point x="538" y="-175"/>
    </contour>
  </outline>
</glyph>
<glyph name="aogonek" format="2">
  <advance width="533"/>
  <unicode hex="0105"/>
  <outline>
    <contour>
      <point x="482" y="460" type="line"/>
      <point x="511" y="460" type="line"/>
      <point x="431" y="0" type="line"/>
      <point x="402" y="0" type="line"/>
    </contour>
    <contour>
      <point x="52" y="230" type="curve" smooth="yes"/>
      <point x="72" y="363"/>
      <point x="176" y="471"/>
      <point x="304" y="470" type="curve" smooth="yes"/>
      <point x="428" y="469"/>
      <point x="471" y="342"/>
      <point x="455" y="230" type="curve" smooth="yes"/>
      <point x="437" y="110"/>
      <point x="348" y="-10"/>
      <point x="224" y="-10" type="curve" smooth="yes"/>
      <point x="96" y="-10"/>
      <point x="35" y="104"/>
    </contour>
    <contour>
      <point x="84" y="230" type="curve" smooth="yes"/>
      <point x="68" y="120"/>
      <point x="119" y="19"/>
      <point x="231" y="20" type="curve" smooth="yes"/>
      <point x="335" y="21"/>
      <point x="424" y="125"/>
      <point x="441" y="230" type="curve" smooth="yes"/>
      <point x="455" y="328"/>
      <point x="409" y="438"/>
      <point x="306" y="440" type="curve" smooth="yes"/>
      <point x="194" y="442"/>
      <point x="102" y="346"/>
    </contour>
    <contour>
      <point x="428" y="-160" type="curve"/>
      <point x="440" y="-181" type="line"/>
      <point x="417" y="-201"/>
      <point x="382" y="-220"/>
      <point x="342" y="-220" type="curve" smooth="yes"/>
      <point x="282" y="-220"/>
      <point x="242" y="-187"/>
      <point x="250" y="-134" type="curve" smooth="yes"/>
      <point x="261" y="-62"/>
      <point x="349" y="-19"/>
      <point x="417" y="14" type="curve"/>
      <point x="432" y="0" type="line"/>
      <point x="372" y="-28"/>
      <point x="290" y="-68"/>
      <point x="281" y="-128" type="curve" smooth="yes"/>
      <point x="276" y="-168"/>
      <point x="306" y="-191"/>
      <point x="346" y="-192" type="curve" smooth="yes"/>
      <point x="379" y="-193"/>
      <point x="408" y="-175"/>
    </contour>
  </outline>
</glyph>
<glyph name="Cacute" format="2">
  <advance width="664"/>
  <unicode hex="0106"/>
  <outline>
    <contour>
      <point x="113" y="350" type="curve" smooth="yes"/>
      <point x="88" y="184"/>
      <point x="173" y="28"/>
      <point x="348" y="26" type="curve" smooth="yes"/>
      <point x="442" y="25"/>
      <point x="519" y="61"/>
      <point x="583" y="115" type="curve"/>
      <point x="576" y="70" type="line"/>
      <point x="510" y="21"/>
      <point x="438" y="-8"/>
      <point x="344" y="-8" type="curve" smooth="yes"/>
      <point x="148" y="-7"/>
      <point x="51" y="164"/>
      <point x="78" y="350" type="curve" smooth="yes"/>
      <point x="108" y="546"/>
      <point x="266" y="707"/>
      <point x="464" y="708" type="curve" smooth="yes"/>
      <point x="553" y="708"/>
      <point x="615" y="683"/>
      <point x="671" y="630" type="curve"/>
      <point x="664" y="586" type="line"/>
      <point x="615" y="646"/>
      <point x="547" y="674"/>
      <point x="461" y="674" type="curve" smooth="yes"/>
      <point x="283" y="673"/>
      <point x="141" y="528"/>
    </contour>
    <contour>
      <point x="632" y="922" type="line"/>
      <point x="436" y="769" type="line"/>
      <point x="420" y="782" type="line"/>
      <point x="608" y="940" type="line"/>
    </contour>
  </outline>
</glyph>
<glyph name="Cdotaccent" format="2">
  <advance width="664"/>
  <unicode hex="010A"/>
  <outline>
    <contour>
      <point x="113" y="350" type="curve" smooth="yes"/>
      <point x="88" y="184"/>
      <point x="173" y="28"/>
      <point x="348" y="26" type="curve" smooth="yes"/>
      <point x="442" y="25"/>
      <point x="519" y="61"/>
      <point x="583" y="115" type="curve"/>
      <point x="576" y="70" type="line"/>
      <point x="510" y="21"/>
      <point x="438" y="-8"/>
      <point x="344" y="-8" type="curve" smooth="yes"/>
      <point x="148" y="-7"/>
      <point x="51" y="164"/>
      <point x="78" y="350" type="curve" smooth="yes"/>
      <point x="108" y="546"/>
      <point x="266" y="707"/>
      <point x="464" y="708" type="curve" smooth="yes"/>
      <point x="553" y="708"/>
      <point x="615" y="683"/>
      <point x="671" y="630" type="curve"/>
      <point x="664" y="586" type="line"/>
      <point x="615" y="646"/>
      <point x="547" y="674"/>
      <point x="461" y="674" type="curve" smooth="yes"/>
      <point x="283" y="673"/>
      <point x="141" y="528"/>
    </contour>
    <contour>
      <point x="458" y="800" type="curve" smooth="yes"/>
      <point x="459" y="812"/>
      <point x="472" y="824"/>
      <point x="484" y="824" type="curve" smooth="yes"/>
      <point x="496" y="824"/>
      <point x="505" y="813"/>
      <point x="504" y="800" type="curve" smooth="yes"/>
      <point x="503" y="788"/>
      <point x="490" y="776"/>
      <point x="478" y="776" type="curve" smooth="yes"/>
      <point x="466" y="776"/>
      <point x="457" y="787"/>
    </contour>
  </outline>
</glyph>
<glyph name="cdotaccent" format="2">
  <advance width="470"/>
  <unicode hex="010B"/>
  <outline>
    <contour>
      <point x="78" y="230" type="curve" smooth="yes"/>
      <point x="61" y="121"/>
      <point x="124" y="21"/>
      <point x="239" y="20" type="curve" smooth="yes"/>
      <point x="308" y="20"/>
      <point x="367" y="54"/>
      <point x="403" y="87" type="curve"/>
      <point x="397" y="48" type="line"/>
      <point x="359" y="18"/>
      <point x="301" y="-10"/>
      <point x="236" y="-10" type="curve" smooth="yes"/>
      <point x="103" y="-10"/>
      <point x="30" y="104"/>
      <point x="48" y="230" type="curve" smooth="yes"/>
      <point x="68" y="362"/>
      <point x="182" y="470"/>
      <point x="316" y="470" type="curve" smooth="yes"/>
      <point x="377" y="470"/>
      <point x="429" y="445"/>
      <point x="459" y="412" type="curve"/>
      <point x="453" y="373" type="line"/>
      <point x="429" y="410"/>
      <point x="377" y="440"/>
      <point x="313" y="440" type="curve" smooth="yes"/>
      <point x="197" y="440"/>
      <point x="97" y="345"/>
    </contour>
    <contour>
      <point x="309" y="562" type="curve" smooth="yes"/>
      <point x="310" y="574"/>
      <point x="324" y="586"/>
      <point x="336" y="586" type="curve" smooth="yes"/>
      <point x="348" y="586"/>
      <point x="357" y="573"/>
      <point x="356" y="560" type="curve" smooth="yes"/>
      <point x="355" y="548"/>
      <point x="340" y="538"/>
      <point x="328" y="538" type="curve" smooth="yes"/>
      <point x="316" y="538"/>
      <point x="308" y="549"/>
    </contour>
  </outline>
</glyph>
<glyph name="Ccaron" format="2">
  <advance width="664"/>
  <unicode hex="010C"/>
  <outline>
    <contour>
      <point x="113" y="350" type="curve" smooth="yes"/>
      <point x="88" y="184"/>
      <point x="173" y="28"/>
      <point x="348" y="26" type="curve" smooth="yes"/>
      <point x="442" y="25"/>
      <point x="519" y="61"/>
      <point x="583" y="115" type="curve"/>
      <point x="576" y="70" type="line"/>
      <point x="510" y="21"/>
      <point x="438" y="-8"/>
      <point x="344" y="-8" type="curve" smooth="yes"/>
      <point x="148" y="-7"/>
      <point x="51" y="164"/>
      <point x="78" y="350" type="curve" smooth="yes"/>
      <point x="108" y="546"/>
      <point x="266" y="707"/>
      <point x="464" y="708" type="curve" smooth="yes"/>
      <point x="553" y="708"/>
      <point x="615" y="683"/>
      <point x="671" y="630" type="curve"/>
      <point x="664" y="586" type="line"/>
      <point x="615" y="646"/>
      <point x="547" y="674"/>
      <point x="461" y="674" type="curve" smooth="yes"/>
      <point x="283" y="673"/>
      <point x="141" y="528"/>
    </contour>
    <contour>
      <point x="482" y="810" type="line"/>
      <point x="638" y="932" type="line"/>
      <point x="656" y="915" type="line"/>
      <point x="478" y="776" type="line"/>
      <point x="345" y="916" type="line"/>
      <point x="368" y="933" type="line"/>
    </contour>
  </outline>
</glyph>
<glyph name="ccaron" format="2">
  <advance width="470"/>
  <unicode hex="010D"/>
  <outline>
    <contour>
      <point x="78" y="230" type="curve" smooth="yes"/>
      <point x="61" y="121"/>
      <point x="124" y="21"/>
      <point x="239" y="20" type="curve" smooth="yes"/>
      <point x="308" y="20"/>
      <point x="367" y="54"/>
      <point x="403" y="87" type="curve"/>
      <point x="397" y="48" type="line"/>
      <point x="359" y="18"/>
      <point x="301" y="-10"/>
      <point x="236" y="-10" type="curve" smooth="yes"/>
      <point x="103" y="-10"/>
      <point x="30" y="104"/>
      <point x="48" y="230" type="curve" smooth="yes"/>
      <point x="68" y="362"/>
      <point x="182" y="470"/>
      <point x="316" y="470" type="curve" smooth="yes"/>
      <point x="377" y="470"/>
      <point x="429" y="445"/>
      <point x="459" y="412" type="curve"/>
      <point x="453" y="373" type="line"/>
      <point x="429" y="410"/>
      <point x="377" y="440"/>
      <point x="313" y="440" type="curve" smooth="yes"/>
      <point x="197" y="440"/>
      <point x="97" y="345"/>
    </contour>
    <contour>
      <point x="334" y="578" type="line"/>
      <point x="491" y="701" type="line"/>
      <point x="509" y="683" type="line"/>
      <point x="330" y="544" type="line"/>
      <point x="198" y="684" type="line"/>
      <point x="220" y="702" type="line"/>
    </contour>
  </outline>
</glyph>
<glyph name="Dcaron" format="2">
  <advance width="628"/>
  <unicode hex="010E"/>
  <outline>
    <contour>
      <point x="176" y="700" type="line"/>
      <point x="210" y="700" type="line"/>
      <point x="89" y="0" type="line"/>
      <point x="57" y="0" type="line"/>
    </contour>
    <contour>
      <point x="228" y="0" type="curve"/>
      <point x="74" y="0" type="line"/>
      <point x="80" y="33" type="line"/>
      <point x="232" y="33" type="line"/>
      <point x="419" y="36"/>
      <point x="554" y="168"/>
      <point x="584" y="350" type="curve" smooth="yes"/>
      <point x="611" y="522"/>
      <point x="526" y="663"/>
      <point x="342" y="667" type="curve"/>
      <point x="188" y="667" type="line"/>
      <point x="193" y="700" type="line"/>
      <point x="345" y="700" type="line"/>
      <point x="546" y="696"/>
      <point x="645" y="540"/>
      <point x="617" y="350" type="curve" smooth="yes"/>
      <point x="586" y="152"/>
      <point x="432" y="3"/>
    </contour>
    <contour>
      <point x="424" y="824" type="line"/>
      <point x="582" y="946" type="line"/>
      <point x="600" y="929" type="line"/>
      <point x="421" y="790" type="line"/>
      <point x="288" y="930" type="line"/>
      <point x="310" y="947" type="line"/>
    </contour>
  </outline>
</glyph>
<glyph name="dcroat" format="2">
  <advance width="533"/>
  <unicode hex="0111"/>
  <outline>
    <contour>
      <point x="368" y="636" type="line"/>
      <point x="372" y="665" type="line"/>
      <point x="664" y="665" type="line"/>
      <point x="660" y="636" type="line"/>
    </contour>
    <contour>
      <point x="534" y="780" type="line"/>
      <point x="565" y="780" type="line"/>
      <point x="431" y="0" type="line"/>
      <point x="401" y="0" type="line"/>
    </contour>
    <contour>
      <point x="52" y="230" type="curve" smooth="yes"/>
      <point x="72" y="364"/>
      <point x="176" y="471"/>
      <point x="304" y="470" type="curve" smooth="yes"/>
      <point x="426" y="469"/>
      <point x="471" y="345"/>
      <point x="455" y="230" type="curve" smooth="yes"/>
      <point x="437" y="107"/>
      <point x="346" y="-10"/>
      <point x="224" y="-10" type="curve" smooth="yes"/>
      <point x="96" y="-10"/>
      <point x="34" y="102"/>
    </contour>
    <contour>
      <point x="84" y="230" type="curve" smooth="yes"/>
      <point x="68" y="120"/>
      <point x="120" y="19"/>
      <point x="231" y="20" type="curve" smooth="yes"/>
      <point x="337" y="21"/>
      <point x="424" y="128"/>
      <point x="441" y="230" type="curve" smooth="yes"/>
      <point x="455" y="324"/>
      <point x="411" y="438"/>
      <point x="306" y="440" type="curve" smooth="yes"/>
      <point x="194" y="442"/>
      <point x="102" y="346"/>
    </contour>
  </outline>
</glyph>
<glyph name="Emacron" format="2">
  <advance width="506"/>
  <unicode hex="0112"/>
  <outline>
    <contour>
      <point x="72" y="0" type="line"/>
      <point x="77" y="31" type="line"/>
      <point x="410" y="31" type="line"/>
      <point x="406" y="0" type="line"/>
    </contour>
    <contour>
      <point x="186" y="670" type="line"/>
      <point x="192" y="700" type="line"/>
      <point x="524" y="700" type="line"/>
      <point x="520" y="669" type="line"/>
    </contour>
    <contour>
      <point x="135" y="371" type="line"/>
      <point x="141" y="402" type="line"/>
      <point x="454" y="402" type="line"/>
      <point x="450" y="371" type="line"/>
    </contour>
    <contour>
      <point x="176" y="700" type="line"/>
      <point x="210" y="700" type="line"/>
      <point x="89" y="0" type="line"/>
      <point x="57" y="0" type="line"/>
    </contour>
    <contour>
      <point x="214" y="816" type="line"/>
      <point x="219" y="845" type="line"/>
      <point x="559" y="845" type="line"/>
      <point x="554" y="816" type="line"/>
    </contour>
  </outline>
</glyph>
<glyph name="Ebreve" format="2">
  <advance width="506"/>
  <unicode hex="0114"/>
  <outline>
    <contour>
      <point x="72" y="0" type="line"/>
      <point x="77" y="31" type="line"/>
      <point x="410" y="31" type="line"/>
      <point x="406" y="0" type="line"/>
    </contour>
    <contour>
      <point x="186" y="670" type="line"/>
      <point x="192" y="700" type="line"/>
      <point x="524" y="700" type="line"/>
      <point x="520" y="669" type="line"/>
    </contour>
    <contour>
      <point x="135" y="371" type="line"/>
      <point x="141" y="402" type="line"/>
      <point x="454" y="402" type="line"/>
      <point x="450" y="371" type="line"/>
    </contour>
    <contour>
      <point x="176" y="700" type="line"/>
      <point x="210" y="700" type="line"/>
      <point x="89" y="0" type="line"/>
      <point x="57" y="0" type="line"/>
    </contour>
    <contour>
      <point x="240" y="908" type="curve"/>
      <point x="267" y="908" type="line"/>
      <point x="262" y="850"/>
      <point x="294" y="796"/>
      <point x="372" y="796" type="curve" smooth="yes"/>
      <point x="452" y="796"/>
      <point x="500" y="852"/>
      <point x="518" y="908" type="curve"/>
      <point x="547" y="907" type="line"/>
      <point x="527" y="835"/>
      <point x="468" y="769"/>
      <point x="370" y="769" type="curve" smooth="yes"/>
      <point x="274" y="769"/>
      <point x="234" y="834"/>
    </contour>
  </outline>
</glyph>
<glyph name="ebreve" format="2">
  <advance width="490"/>
  <unicode hex="0115"/>
  <outline>
    <contour>
      <point x="76" y="222" type="line"/>
      <point x="80" y="250" type="line"/>
      <point x="436" y="250" type="line"/>
      <point x="452" y="344"/>
      <point x="405" y="440"/>
      <point x="302" y="441" type="curve" smooth="yes"/>
      <point x="196" y="442"/>
      <point x="108" y="351"/>
      <point x="90" y="241" type="curve"/>
      <point x="88" y="232" type="line"/>
      <point x="76" y="126"/>
      <point x="119" y="22"/>
      <point x="228" y="20" type="curve" smooth="yes"/>
      <point x="318" y="19"/>
      <point x="376" y="72"/>
      <point x="418" y="123" type="curve"/>
      <point x="440" y="106" type="line"/>
      <point x="391" y="48"/>
      <point x="331" y="-10"/>
      <point x="223" y="-10" type="curve" smooth="yes"/>
      <point x="99" y="-9"/>
      <point x="42" y="112"/>
      <point x="57" y="232" type="curve" smooth="yes"/>
      <point x="61" y="256"/>
      <point x="67" y="278"/>
      <point x="76" y="300" type="curve" smooth="yes"/>
      <point x="112" y="394"/>
      <point x="198" y="470"/>
      <point x="303" y="470" type="curve" smooth="yes"/>
      <point x="420" y="469"/>
      <point x="484" y="364"/>
      <point x="470" y="248" type="curve" smooth="yes"/>
      <point x="469" y="240"/>
      <point x="466" y="230"/>
      <point x="464" y="222" type="curve"/>
    </contour>
    <contour>
      <point x="172" y="670" type="curve"/>
      <point x="200" y="670" type="line"/>
      <point x="196" y="612"/>
      <point x="229" y="556"/>
      <point x="307" y="556" type="curve" smooth="yes"/>
      <point x="387" y="556"/>
      <point x="435" y="612"/>
      <point x="452" y="669" type="curve"/>
      <point x="480" y="668" type="line"/>
      <point x="461" y="596"/>
      <point x="402" y="530"/>
      <point x="304" y="530" type="curve" smooth="yes"/>
      <point x="208" y="530"/>
      <point x="166" y="596"/>
    </contour>
  </outline>
</glyph>
<glyph name="Edotaccent" format="2">
  <advance width="506"/>
  <unicode hex="0116"/>
  <outline>
    <contour>
      <point x="72" y="0" type="line"/>
      <point x="77" y="31" type="line"/>
      <point x="410" y="31" type="line"/>
      <point x="406" y="0" type="line"/>
    </contour>
    <contour>
      <point x="186" y="670" type="line"/>
      <point x="192" y="700" type="line"/>
      <point x="524" y="700" type="line"/>
      <point x="520" y="669" type="line"/>
    </contour>
    <contour>
      <point x="135" y="371" type="line"/>
      <point x="141" y="402" type="line"/>
      <point x="454" y="402" type="line"/>
      <point x="450" y="371" type="line"/>
    </contour>
    <contour>
      <point x="176" y="700" type="line"/>
      <point x="210" y="700" type="line"/>
      <point x="89" y="0" type="line"/>
      <point x="57" y="0" type="line"/>
    </contour>
    <contour>
      <point x="343" y="794" type="curve" smooth="yes"/>
      <point x="344" y="806"/>
      <point x="358" y="816"/>
      <point x="370" y="816" type="curve" smooth="yes"/>
      <point x="382" y="816"/>
      <point x="391" y="805"/>
      <point x="390" y="792" type="curve" smooth="yes"/>
      <point x="389" y="780"/>
      <point x="375" y="768"/>
      <point x="363" y="768" type="curve" smooth="yes"/>
      <point x="351" y="768"/>
      <point x="342" y="781"/>
    </contour>
  </outline>
</glyph>
<glyph name="Eogonek" format="2">
  <advance width="506"/>
  <unicode hex="0118"/>
  <outline>
    <contour>
      <point x="72" y="0" type="line"/>
      <point x="77" y="31" type="line"/>
      <point x="410" y="31" type="line"/>
      <point x="406" y="0" type="line"/>
    </contour>
    <contour>
      <point x="186" y="670" type="line"/>
      <point x="192" y="700" type="line"/>
      <point x="524" y="700" type="line"/>
      <point x="520" y="669" type="line"/>
    </contour>
    <contour>
      <point x="135" y="371" type="line"/>
      <point x="141" y="402" type="line"/>
      <point x="454" y="402" type="line"/>
      <point x="450" y="371" type="line"/>
    </contour>
    <contour>
      <point x="176" y="700" type="line"/>
      <point x="210" y="700" type="line"/>
      <point x="89" y="0" type="line"/>
      <point x="57" y="0" type="line"/>
    </contour>
    <contour>
      <point x="366" y="-160" type="curve"/>
      <point x="378" y="-181" type="line"/>
      <point x="355" y="-201"/>
      <point x="320" y="-220"/>
      <point x="280" y="-220" type="curve" smooth="yes"/>
      <point x="220" y="-220"/>
      <point x="180" y="-187"/>
      <point x="188" y="-134" type="curve" smooth="yes"/>
      <point x="199" y="-62"/>
      <point x="287" y="-19"/>
      <point x="355" y="14" type="curve"/>
      <point x="370" y="0" type="line"/>
      <point x="310" y="-28"/>
      <point x="228" y="-68"/>
      <point x="219" y="-128" type="curve" smooth="yes"/>
      <point x="214" y="-168"/>
      <point x="244" y="-191"/>
      <point x="284" y="-192" type="curve" smooth="yes"/>
      <point x="317" y="-193"/>
      <point x="346" y="-175"/>
    </contour>
  </outline>
</glyph>
<glyph name="eogonek" format="2">
  <advance width="490"/>
  <unicode hex="0119"/>
  <outline>
    <contour>
      <point x="76" y="222" type="line"/>
      <point x="80" y="250" type="line"/>
      <point x="436" y="250" type="line"/>
      <point x="452" y="344"/>
      <point x="405" y="440"/>
      <point x="302" y="441" type="curve" smooth="yes"/>
      <point x="196" y="442"/>
      <point x="108" y="351"/>
      <point x="90" y="241" type="curve"/>
      <point x="88" y="232" type="line"/>
      <point x="76" y="126"/>
      <point x="119" y="22"/>
      <point x="228" y="20" type="curve" smooth="yes"/>
      <point x="318" y="19"/>
      <point x="376" y="72"/>
      <point x="418" y="123" type="curve"/>
      <point x="440" y="106" type="line"/>
      <point x="391" y="48"/>
      <point x="331" y="-10"/>
      <point x="223" y="-10" type="curve" smooth="yes"/>
      <point x="99" y="-9"/>
      <point x="42" y="112"/>
      <point x="57" y="232" type="curve" smooth="yes"/>
      <point x="61" y="256"/>
      <point x="67" y="278"/>
      <point x="76" y="300" type="curve" smooth="yes"/>
      <point x="112" y="394"/>
      <point x="198" y="470"/>
      <point x="303" y="470" type="curve" smooth="yes"/>
      <point x="420" y="469"/>
      <point x="484" y="364"/>
      <point x="470" y="248" type="curve" smooth="yes"/>
      <point x="469" y="240"/>
      <point x="466" y="230"/>
      <point x="464" y="222" type="curve"/>
    </contour>
    <contour>
      <point x="238" y="-163" type="curve"/>
      <point x="250" y="-184" type="line"/>
      <point x="227" y="-204"/>
      <point x="192" y="-222"/>
      <point x="152" y="-222" type="curve" smooth="yes"/>
      <point x="92" y="-222"/>
      <point x="51" y="-189"/>
      <point x="58" y="-136" type="curve" smooth="yes"/>
      <point x="68" y="-64"/>
      <point x="156" y="-26"/>
      <point x="223" y="7" type="curve"/>
      <point x="240" y="-8" type="line"/>
      <point x="180" y="-36"/>
      <point x="98" y="-70"/>
      <point x="90" y="-131" type="curve" smooth="yes"/>
      <point x="86" y="-171"/>
      <point x="116" y="-193"/>
      <point x="156" y="-194" type="curve" smooth="yes"/>
      <point x="189" y="-195"/>
      <point x="218" y="-179"/>
    </contour>
  </outline>
</glyph>
<glyph name="Ecaron" format="2">
  <advance width="506"/>
  <unicode hex="011A"/>
  <outline>
    <contour>
      <point x="72" y="0" type="line"/>
      <point x="77" y="31" type="line"/>
      <point x="410" y="31" type="line"/>
      <point x="406" y="0" type="line"/>
    </contour>
    <contour>
      <point x="186" y="670" type="line"/>
      <point x="192" y="700" type="line"/>
      <point x="524" y="700" type="line"/>
      <point x="520" y="669" type="line"/>
    </contour>
    <contour>
      <point x="135" y="371" type="line"/>
      <point x="141" y="402" type="line"/>
      <point x="454" y="402" type="line"/>
      <point x="450" y="371" type="line"/>
    </contour>
    <contour>
      <point x="176" y="700" type="line"/>
      <point x="210" y="700" type="line"/>
      <point x="89" y="0" type="line"/>
      <point x="57" y="0" type="line"/>
    </contour>
    <contour>
      <point x="367" y="803" type="line"/>
      <point x="524" y="925" type="line"/>
      <point x="542" y="907" type="line"/>
      <point x="363" y="769" type="line"/>
      <point x="230" y="908" type="line"/>
      <point x="252" y="926" type="line"/>
    </contour>
  </outline>
</glyph>
